<?xml version="1.0" standalone="no"?>
<!DOCTYPE svg PUBLIC "-//W3C//DTD SVG 1.1//EN" "http://www.w3.org/Graphics/SVG/1.1/DTD/svg11.dtd" >
<svg xmlns="http://www.w3.org/2000/svg">
<metadata></metadata>
<defs>
<font id="walt_disney_scriptregular" horiz-adv-x="1366" >
<font-face units-per-em="2048" ascent="1638" descent="-410" />
<missing-glyph horiz-adv-x="559" />
<glyph horiz-adv-x="2048" />
<glyph horiz-adv-x="2048" />
<glyph unicode="&#xd;" horiz-adv-x="1064" />
<glyph unicode=" "  horiz-adv-x="559" />
<glyph unicode="&#x09;" horiz-adv-x="559" />
<glyph unicode="&#xa0;" horiz-adv-x="559" />
<glyph unicode="!" horiz-adv-x="348" d="M61 94q0 -35 29 -58.5t66 -23.5q35 0 60.5 27t25.5 61q0 37 -26.5 63.5t-61.5 26.5q-41 0 -67 -27.5t-26 -68.5zM90 815q0 -49 2 -102.5t2 -122.5v-162l6 -131q4 -14 17.5 -22.5t21.5 -14.5q20 10 41 17.5t27 35.5q-2 55 -2 105v92q0 113 2 190.5t6 139.5 q4 82 15.5 163.5t31.5 167.5l27 119q-12 29 -44 45.5t-67 26.5q-27 -4 -38 -15.5t-19 -27.5q-16 -61 -22.5 -93t-6.5 -61q2 -45 2 -82v-69q0 -66 -1 -112t-1 -87z" />
<glyph unicode="&#x22;" horiz-adv-x="413" d="M27 1356l39 -297q4 -14 13 -20.5t19 -6.5q8 0 19 6q16 59 26.5 99.5t16.5 74t11 66.5t11 78q-4 27 -31.5 37t-41.5 10q-23 0 -46.5 -6t-35.5 -41zM221 1356l39 -297q4 -14 13.5 -20.5t19.5 -6.5q8 0 18 6q16 59 26.5 99.5t16.5 74t11.5 66.5t11.5 78q-4 27 -32 37t-42 10 q-23 0 -46.5 -6t-35.5 -41z" />
<glyph unicode="#" horiz-adv-x="1173" d="M66 801q0 -27 19 -52.5t67 -37.5q49 -14 97 -22.5t95 -12.5l-4 -209q-27 2 -53.5 3t-55.5 3l-55 2q-16 0 -29.5 -2t-23.5 -6q-33 -20 -33 -68q0 -25 12 -50.5t41 -45.5q100 -6 199 -6q2 -53 6 -107.5t14 -111.5q6 -35 29 -45q14 -8 37 -16.5t43 -8.5t33.5 11.5t13.5 39.5 q0 8 -1 15.5t-3 17.5q-10 53 -17.5 104.5t-11.5 100.5h99q51 0 104 2q2 -53 6 -106.5t11 -108.5q4 -35 40.5 -59.5t79.5 -24.5q35 0 47.5 14.5t24.5 42.5q-23 0 -26 8.5t-7 28.5q-6 53 -10 105.5t-6 103.5q47 0 95 1t101 3q14 0 22.5 14.5t13.5 35t9.5 45t10.5 44.5 q-2 16 -18.5 22.5t-41.5 6.5h-22q-10 0 -21 -2q-80 -10 -153 -12v51l2 182l63 4q41 0 80 -2t80 -8q18 8 26.5 40t8.5 65q0 37 -10 53q-10 8 -39 8q-20 0 -31 -2q-47 -2 -91 -4t-87 -6l2 57l-2 139q-4 12 -22.5 18.5t-43.5 6.5q-31 0 -59.5 -8t-34.5 -21q2 -39 2 -76v-71 l-2 -58q-47 -4 -94 -7t-94 -3q2 23 2 47v52q0 31 -1 61.5t-3 60.5v2q0 20 -33 21l-37 -2q-20 0 -49 -7t-33 -20q4 -45 4 -90v-84l-2 -37q-41 4 -84 12.5t-88 20.5q-25 6 -34 8t-9 10v7q-29 -6 -47 -29t-18 -51zM481 459q0 55 3.5 109.5t7.5 107.5l194 10l-2 -180v-49h-27 h-88t-88 2z" />
<glyph unicode="$" horiz-adv-x="1173" d="M70 326q0 -61 34.5 -110.5t89 -88.5t121 -66.5t131.5 -42.5v-10q0 -16 2.5 -31.5t10.5 -25.5q12 -10 21 -13.5t26 -3.5h8q18 0 26.5 8.5t24.5 30.5v27h31q39 0 72 8q4 -33 12 -52t49 -22h8q18 0 26.5 8.5t24.5 30.5v74q59 27 117 66t103 87t72.5 104t27.5 116 q0 82 -25.5 140t-68.5 97t-99.5 61.5t-119.5 37.5q2 104 3 206.5t3 198.5q59 -10 96 -22.5t49 -18.5q25 -14 25 -39q0 -33 -29 -53q4 -2 12 -2q29 0 62 28.5t33 69.5q0 16 -9 33q-33 66 -94 103.5t-143 48.5q0 14 1 26.5t1 26.5q-4 18 -30.5 23.5t-51.5 7.5 q-16 0 -20.5 -16.5t-12.5 -33.5l-2 -32q-29 -2 -54.5 -4t-53.5 -7q0 16 1 31t1 31q-4 18 -21.5 30.5t-42.5 12.5h-6q-35 0 -49 -29l-2 -100q-70 -18 -129.5 -48t-103.5 -72t-68.5 -95t-24.5 -119t25.5 -107.5t69.5 -68.5t101.5 -42t123.5 -24l-9 -561q-45 8 -100 23.5 t-102 40t-80 56.5t-33 75q0 47 12.5 74.5t28.5 41t35.5 17.5t34.5 4h18q41 0 55.5 -19.5t28.5 -50.5q12 -25 33 -24q16 0 30.5 16t14.5 39q-59 106 -143 107q-33 0 -70 -7.5t-67.5 -31t-51 -65.5t-20.5 -109zM272 950q0 78 55.5 123t131.5 68l-4 -338q-80 16 -131.5 46.5 t-51.5 100.5zM567 131q2 129 2 268q0 141 2 287q27 -4 52.5 -8t52.5 -8l-4 -174q-2 -59 -5 -148.5t-3 -177.5v-25q-41 -10 -97 -14zM571 786q2 98 3 192.5t4 184.5q55 6 102 6h6l-8 -395q-29 4 -54.5 6t-52.5 6zM791 197q2 104 2 215q0 113 2 227q74 -27 121 -78t47 -147 q0 -12 -9.5 -37t-30 -55.5t-53 -64.5t-79.5 -60z" />
<glyph unicode="%" horiz-adv-x="1490" d="M113 971q0 -119 79.5 -195t225.5 -76q51 0 99 19.5t86 55.5t61.5 86t23.5 110q0 39 -10 80q94 2 187 26.5t179 65.5q-96 -137 -189 -275.5t-191.5 -273.5t-205 -263t-227.5 -245q-8 -8 -8 -20q0 -25 30 -50.5t58 -25.5q16 0 27 12q123 154 238.5 308.5t231.5 309 t233.5 308t240.5 305.5q2 2 2 8q0 12 -10 27.5t-24.5 29t-31 21.5t-28.5 8q-10 0 -16 -6q-106 -94 -240.5 -149.5t-276.5 -59.5q-35 78 -94 125t-106 47t-82 -17.5t-35 -60.5q0 -14 9 -32.5t24.5 -35t34 -29.5t36.5 -17q35 -14 71 -22.5t73 -12.5q12 -41 12 -82 q0 -43 -15.5 -78t-41 -61.5t-59 -41t-68.5 -14.5q-92 0 -153.5 48.5t-61.5 138.5q0 47 10 79.5t27.5 58t39 45t44.5 38.5q4 2 4 12l4 55q-2 4 -5 5.5t-6 3.5q-25 -4 -49 -12.5t-43 -30.5q-37 -37 -59.5 -67t-34.5 -58.5t-16 -58t-4 -66.5zM410 1184q0 10 8 17t28 7 q33 0 64 -25.5t53 -66.5q-29 4 -56.5 7t-55.5 16q-16 8 -28.5 21.5t-12.5 23.5zM846 287q0 -119 71.5 -196t217.5 -77q51 0 102 20.5t92 56.5t66.5 86t25.5 110q0 53 -17.5 108.5t-48 99.5t-73.5 72.5t-94 28.5q-18 0 -44 -3t-44 -15q-82 -10 -131 -43t-77 -76t-37 -89 t-9 -83zM930 305q0 47 9 78t26.5 51.5t40 33.5t51.5 26q8 4 16 18q-6 -14 -9 -21.5t-5 -13.5t-4 -16t-4 -31l90 74q4 4 15 8t32 4q29 0 56.5 -16.5t49 -44t34.5 -65.5t13 -81t-20.5 -79.5t-52 -65.5t-69.5 -45.5t-73 -16.5q-92 0 -144 56.5t-52 146.5z" />
<glyph unicode="&#x26;" horiz-adv-x="1292" d="M31 702q0 -59 34.5 -108t92 -83t131 -52.5t151.5 -18.5h43q2 -55 11.5 -131t34 -144.5t68.5 -116.5t112 -48q41 0 68.5 36t44 90t22.5 116.5t6 117.5q0 61 -6 117q78 14 144.5 36t115.5 48.5t76.5 57t27.5 67.5q0 20 -10 44t-24.5 44.5t-31 32.5t-28.5 12h-6 q10 -18 10 -35l-2 -18q-4 -25 -28.5 -47.5t-63.5 -41t-91 -32.5t-110 -27q-20 88 -53 147.5t-76 98.5q29 115 64 197t65 102q0 2 1 5t1 8q0 14 -7 36.5t-18.5 44t-25.5 37t-29 15.5q-22 0 -40 -33q-37 -78 -73 -164t-67 -178q-41 12 -84 17t-86 5q-61 0 -125.5 -15t-118 -46 t-87 -79t-33.5 -114zM137 696q0 43 26.5 73t66.5 49.5t85 27.5t84 8q82 0 140 -14q-18 -66 -32 -129t-20 -129q-20 -2 -41 -2h-36q-35 0 -82 8t-89 23.5t-72 37t-30 47.5zM627 371v37q0 20 2 41q64 4 121 12q6 -61 6 -139q0 -37 -5.5 -76t-14.5 -71t-21.5 -52.5t-26.5 -20.5 q-29 0 -45 71t-16 198zM641 592q6 41 13.5 81t15.5 81q41 -55 61 -152q-23 -4 -45 -6t-45 -4z" />
<glyph unicode="'" horiz-adv-x="276" d="M47 834q0 -39 8 -56.5t19.5 -28t19.5 -18.5t8 -26q0 -10 -8 -17.5t-17 -16.5t-17.5 -20.5t-8.5 -27.5q0 -23 21 -23q6 0 33.5 9t58.5 29.5t55.5 50.5t24.5 71q0 18 -8.5 41.5t-24.5 45t-43 37t-64 15.5q-18 0 -29.5 -8t-17.5 -18.5t-8 -21.5t-2 -17z" />
<glyph unicode="(" horiz-adv-x="407" d="M12 793q0 -84 12.5 -218.5t42 -283t79 -290.5t122.5 -239l43 -24l70 65l10 111l-4 8l-6 8q-59 63 -102 180t-71 249.5t-41 262.5t-13 224q0 240 46 475t138 426q-6 41 -37 59l-25 -4q-76 -160 -126 -288t-80.5 -243.5t-44 -229t-13.5 -248.5z" />
<glyph unicode=")" horiz-adv-x="415" d="M12 1696l62 -47q68 -51 108.5 -131t64 -175.5t32 -199t8.5 -201.5q0 -68 -5.5 -159t-15.5 -191t-28.5 -204.5t-45 -199t-63.5 -170t-84 -120.5l-10 -70l51 -88l68 -4l20 2q82 111 129 260t68.5 314t26.5 330t5 304q0 53 -5 129t-19 161t-40 170t-67 156.5t-99 123 t-138 67.5z" />
<glyph unicode="*" horiz-adv-x="657" d="M18 1139q0 -4 2 -6q88 -55 124 -76t42 -23l31 -22q-78 -53 -121 -88t-65 -58q-8 -14 -8 -39q0 -18 10 -34.5t47 -38.5q23 0 37 20q18 23 32.5 37t26.5 27.5t26.5 27t35.5 31.5l24 23l10 -226q2 -10 11.5 -14t38.5 -4q10 0 14 16l12 236q55 -43 89 -71t54.5 -46t33 -30.5 l24.5 -24.5q4 -2 14 -2q8 0 12 2l25 37l-2 22l-223 189l250 149l-4 29l-31 20q-74 -31 -110 -45t-64 -31l-43 -22q4 29 13 71t20 70l4 17q2 8 2 22q0 16 -5.5 22.5t-13.5 10.5l-6 4l-6 2l-102 -37q-12 -47 -15.5 -64.5t-3.5 -31.5l2 -84q-47 41 -76.5 65.5t-47 38t-26 17.5 t-12.5 4q-8 0 -18 -8q-39 -41 -51.5 -58.5t-12.5 -25.5z" />
<glyph unicode="+" horiz-adv-x="864" d="M53 801q0 -27 13.5 -52.5t46.5 -37.5q53 -23 103 -30t99 -7h25q0 -59 4 -117.5t18 -124.5q6 -23 29 -29q14 -6 36 -11t44 -5q20 0 33.5 7t13.5 26q0 4 -4 20q-18 59 -25.5 112.5t-7.5 106.5v27q41 4 80 8t80 4q29 0 54.5 -2t54.5 -8q12 8 18 40t6 65q0 37 -6 53 q-8 8 -29 8q-14 0 -20 -2h-2q-59 -2 -114.5 -8t-110.5 -15q4 41 6 82t2 86v37q0 18 -2 37v2q0 10 -13.5 12t-29.5 2h-29q-20 0 -49 -4t-33 -14q2 -31 3 -59.5t1 -57.5q0 -35 -1 -68.5t-3 -66.5q-53 0 -106.5 8.5t-108.5 30.5q-18 6 -24.5 9t-6.5 12v4q-20 -6 -32.5 -29 t-12.5 -51z" />
<glyph unicode="," horiz-adv-x="294" d="M23 -6q0 -23 21.5 -40t43.5 -17q23 0 39 16q6 8 16 8q23 -8 23 -35q0 -47 -39 -76.5t-86 -29.5h-10q10 -29 32.5 -41t51.5 -12q72 0 114.5 53t42.5 123q0 14 -6 43.5t-20.5 58.5t-41 51.5t-65.5 22.5t-62.5 -11.5t-35.5 -30t-15 -41t-3 -42.5z" />
<glyph unicode="-" horiz-adv-x="688" d="M72 514q0 -27 10 -52.5t33 -37.5q39 -23 75.5 -30t73.5 -7l240 25q20 0 40.5 -2t41.5 -9q10 8 14 40t4 65q0 37 -6 53q-6 8 -20 8q-11 0 -15 -2q-74 -2 -142.5 -17.5t-137.5 -15.5q-39 0 -77 7.5t-79 29.5q-12 6 -17.5 8.5t-5.5 10.5v6q-16 -6 -24 -28.5t-8 -51.5z" />
<glyph unicode="." horiz-adv-x="225" d="M23 37q0 -35 28.5 -58.5t65.5 -23.5q35 0 60.5 26.5t25.5 61.5q0 37 -26.5 63.5t-61.5 26.5q-41 0 -66.5 -27.5t-25.5 -68.5z" />
<glyph unicode="/" horiz-adv-x="1124" d="M23 6q0 -14 14 -29.5t35.5 -29t45 -21.5t40.5 -8q18 0 30 14q160 227 281 400.5t224.5 319t199.5 272.5t209 262q4 2 4 10q0 14 -15.5 35.5t-38 40t-46 32t-37.5 13.5q-12 0 -21 -6l-135 -221q-59 -90 -151.5 -222.5t-200 -279t-219 -294t-209.5 -263.5q-10 -8 -10 -25z " />
<glyph unicode="0" horiz-adv-x="1376" d="M39 629q0 -129 54 -243t145.5 -200t208 -136t241.5 -50q135 0 254 54.5t206 146.5t137 213t50 254q0 121 -47 234.5t-128 200.5t-190.5 140t-234.5 53q-139 0 -266 -52t-222 -142t-151.5 -212t-56.5 -261zM172 686q0 49 19.5 121t56.5 137.5t88 111.5t115 46h14 q-2 -10 -7 -18.5t-5 -12.5t6 -4q39 10 69.5 24.5t73.5 14.5q49 0 98.5 -16.5t95.5 -43t86 -60.5t72 -71q0 37 -11 67t-28.5 56.5t-37 48t-37.5 39.5v19h18q4 0 22.5 -11.5t43 -26.5t49 -31.5t39.5 -26.5q86 -72 129 -155t43 -198q0 -104 -38 -198.5t-103.5 -167 t-156.5 -115.5t-198 -43q-104 0 -197.5 41t-164 111.5t-112.5 164t-42 197.5z" />
<glyph unicode="1" horiz-adv-x="399" d="M6 993q0 -6 2 -8q18 -23 43 -37t68 -14q25 0 41 11t26 28q6 -221 15.5 -438.5t13.5 -438.5q0 -20 2 -39.5t12 -33.5q12 -8 41 -11.5t45 -3.5q23 0 32 8.5t26 32.5q-6 299 -18.5 606.5t-16.5 606.5q-6 18 -41 29.5t-59 11.5q-39 0 -54 -31q-8 -96 -59 -168t-117 -103 q-2 -2 -2 -8z" />
<glyph unicode="2" horiz-adv-x="1228" d="M37 80q0 -25 15.5 -43.5t37.5 -20.5q25 0 51.5 10.5t52 22.5t52 22.5t51.5 10.5l555 -25q45 2 93 17.5t94 42t87 60.5t72 71q0 23 -3 36t-19 17q-37 -20 -64 -36.5t-52.5 -30t-54 -21.5t-71.5 -10l-43 -2q-55 0 -92 7t-69 17.5t-63.5 19.5t-76.5 13q-8 0 -29.5 2t-46.5 5 t-46.5 5t-31.5 4q41 41 96.5 92.5t115 108.5t116.5 119.5t103 126t75 127t29 123.5q0 72 -21.5 127t-59.5 95t-89 62.5t-109 28.5q-16 2 -33.5 3t-35.5 1q-68 0 -136.5 -13t-125 -44t-95.5 -80t-47 -123q-2 -10 -3 -22.5t-1 -28.5q0 -35 11.5 -65.5t45.5 -34.5q27 0 38.5 15 t16.5 36.5l10 43t17 34.5q66 53 153 86.5t177 33.5h18t19 -2q25 -2 51.5 -12t48 -26.5t35.5 -39t14 -49.5q0 -45 -25.5 -96t-61 -99t-73.5 -89t-63 -64l-440 -420q-23 -8 -51.5 -21t-54 -31.5t-44 -43t-20.5 -53.5z" />
<glyph unicode="3" horiz-adv-x="983" d="M41 287q0 -39 26.5 -88t79 -93.5t130 -75t182.5 -30.5q82 0 167 14.5t154.5 54.5t114.5 110.5t45 182.5q0 74 -10 122t-33 82t-59.5 58.5t-87.5 53.5q37 12 66.5 45t50 75t31.5 85t13 75q-4 104 -49 172t-116.5 108t-161.5 56.5t-187 16.5q-61 0 -110 -10.5t-105 -28.5 q-45 -14 -68.5 -64.5t-23.5 -103.5q0 -43 20.5 -73t67.5 -30q14 0 24.5 3.5t22.5 5.5q-14 10 -34.5 32.5t-20.5 53.5q0 8 8 17t53 30q35 12 79 19t83 7q61 0 125 -9t114 -31.5t83 -63.5t33 -104q0 -27 -9.5 -63t-27 -70.5t-44 -60.5t-61.5 -32q-49 14 -99 20.5t-99 6.5 q-10 0 -51.5 -3t-87.5 -15.5t-82.5 -37t-36.5 -65.5q0 -23 18 -41t49 -33.5t73 -23.5t91 -8q61 0 120.5 7t116.5 29q51 -23 81 -42t46.5 -40.5t21.5 -49t5 -66.5q0 -66 -31.5 -110t-79 -71.5t-99.5 -40t-91 -12.5q-119 0 -206 50.5t-144 138.5q-16 29 -33.5 37t-28.5 8 q-12 0 -15 -20.5t-3 -65.5zM276 653q27 14 74 15q41 0 75.5 -8.5t61.5 -12.5l-108 -10q-43 0 -103 16z" />
<glyph unicode="4" horiz-adv-x="833" d="M29 707q0 -74 18 -138q82 -94 172 -126.5t211 -32.5h27q-2 -25 -2 -52v-53q0 -53 2 -104t5 -95.5t7 -78t8 -47.5q10 -27 56.5 -41.5t87.5 -14.5h12q23 10 33 30.5t10 37.5q0 10 -2 14q-33 109 -42 212.5t-14 215.5q59 25 93 58.5t51.5 82t23 113t5.5 148.5t-8.5 170 t-30 154.5t-59.5 111.5t-97 43q-41 0 -67.5 -44t-42 -111.5t-22.5 -150.5t-9 -163t-2 -146v-98l-2 -76q-10 -2 -20.5 -3t-20.5 -1q-53 0 -105.5 22.5t-111.5 67.5q-10 35 -15.5 72t-5.5 78q0 92 21.5 186t52.5 176q10 23 23.5 60t13.5 65q0 39 -31 39q-16 0 -21.5 -6 t-15.5 -22q-39 -59 -72.5 -127t-59.5 -140.5t-40 -145.5t-14 -140zM602 948q0 72 2 129.5t8 81.5q16 -16 26.5 -51t17 -79t8.5 -91t2 -90q0 -33 -2 -75t-7.5 -82t-16 -76t-28.5 -56q-2 25 -4 68t-3 96t-2 111.5t-1 113.5z" />
<glyph unicode="5" horiz-adv-x="1085" d="M41 334q0 -84 58.5 -145.5t141.5 -102.5t174 -61.5t154 -20.5q57 0 139.5 22.5t157 71.5t128 129t53.5 197q0 133 -48.5 216t-124 129t-169 62.5t-183.5 16.5q-100 0 -168.5 -7t-89.5 -22q-2 16 -3 40t-1 52q0 66 9.5 134.5t33.5 97.5l234 2q18 2 79.5 3t134 3t140 4 t96.5 6q18 2 31 15q-4 35 -18.5 70.5t-41.5 53.5q-8 6 -28 7h-15q-49 -4 -124.5 -7.5t-161.5 -6.5t-174 -5t-160 -3t-118 -2t-50 -1l-66 -12l-14 -13q10 -35 36 -65.5t67 -40.5q-23 -74 -33.5 -137.5t-10.5 -122.5q0 -49 5.5 -100.5t11.5 -108.5q12 -10 22.5 -12t20.5 -2 l29 2q23 2 49 20.5t51 20.5q37 2 75 3t76 1q86 0 166 -9.5t142.5 -36t100.5 -74.5t38 -128q0 -41 -13.5 -97.5t-55.5 -108.5t-118.5 -89t-201.5 -37q-29 0 -94.5 11.5t-135 36t-122 62.5t-52.5 93q0 47 15.5 65.5t40.5 18.5q20 0 47.5 -12.5t55.5 -33t55.5 -46t52.5 -51.5 q10 -10 36 -11q29 0 60 16.5t31 43.5q-63 88 -141.5 130t-147.5 42q-70 0 -117 -42t-47 -124z" />
<glyph unicode="6" horiz-adv-x="1009" d="M35 377q0 -80 18.5 -152.5t57.5 -128t101 -88.5t153 -33q78 0 155 31l12 -41q12 -33 30 -46t36 -13q35 0 65.5 37t30.5 80l-2 14l-18 61q154 131 230.5 275.5t76.5 285.5q0 45 -7 91.5t-27.5 83t-54.5 60.5t-87 24q-92 0 -157.5 -50.5t-108.5 -126t-65.5 -164 t-27.5 -163.5q2 -25 3 -35q0 -10 1 -22.5t2 -31t5 -57.5q6 -66 13 -104.5t11 -54.5q-53 -41 -106 -41q-47 0 -80 28.5t-54.5 70.5t-31.5 90t-10 89q0 186 60 365.5t161 324.5q39 57 84 109.5t98 103.5q6 6 14.5 20.5t8.5 30.5q0 23 -29 23q-20 0 -46 -9t-48 -26 q-111 -76 -198 -179t-146.5 -222t-91 -249t-31.5 -261zM631 362q0 61 3 107.5t10 88.5t19.5 84t30.5 95q10 29 26.5 59.5t53.5 30.5q18 0 29.5 -23.5t17.5 -54t8 -59t2 -39.5q0 -106 -51 -202.5t-131 -198.5q-4 4 -8 19.5t-6 34t-3 34.5t-1 24z" />
<glyph unicode="7" horiz-adv-x="1032" d="M33 1229q0 -4 3 -29.5t8 -54.5t12 -51.5t16 -22.5q4 0 12 11.5t16.5 23.5t16.5 22.5t14 10.5q55 -6 112.5 -15.5t116.5 -19.5q84 -16 184.5 -23.5t184.5 -7.5q-68 -113 -132.5 -236.5t-114.5 -251.5t-80.5 -256t-30.5 -247q0 -41 25.5 -58.5t60.5 -17.5q18 0 35.5 13.5 t32 34t23.5 44t11 43.5q23 250 103.5 495t226.5 456q16 4 39.5 12t46.5 24q20 16 24.5 41t4.5 52q0 29 -20.5 50t-49.5 21q-35 0 -56.5 -8t-36 -20.5t-23.5 -28.5t-21 -35q-4 0 -6.5 -1t-8.5 -1q-10 0 -28.5 1t-53.5 3q-70 4 -138 18.5t-136 31t-136.5 31.5t-137.5 22h-15 q-18 0 -36.5 -7.5t-34 -17.5t-24.5 -24.5t-9 -26.5z" />
<glyph unicode="8" horiz-adv-x="1021" d="M45 367q0 -78 35 -142.5t98.5 -110.5t153.5 -72t198 -26q98 0 181.5 23.5t142.5 68t92 106.5t33 140q0 84 -33 140.5t-85 94.5t-118.5 63.5t-132.5 45.5q74 25 140.5 54.5t115.5 65.5t79 81t30 100q0 68 -38 125.5t-101.5 100.5t-146.5 66.5t-175 23.5 q-84 0 -159.5 -23.5t-134 -67.5t-92.5 -105.5t-34 -135.5q0 -92 88 -165t228 -126q-72 -31 -137.5 -65.5t-117 -74.5t-81 -85t-29.5 -100zM193 365q0 49 24.5 90t67.5 74.5t99.5 63t117.5 58.5q45 -23 100 -49.5t102.5 -63t80 -84.5t32.5 -110q0 -49 -29.5 -83t-72.5 -56.5 t-89 -32.5t-79 -10q-92 0 -158.5 18.5t-109.5 47t-64.5 65.5t-21.5 72zM233 977q0 16 4.5 48t17.5 64.5t40 61.5t72 41q-2 -4 -5.5 -15.5t-3.5 -19.5q0 -6 4 -6q10 0 18.5 5t17 12.5t17.5 12.5t21 5q31 0 61.5 -10.5t58.5 -26.5t52.5 -35.5t44.5 -36.5v6q0 29 -26.5 57.5 t-63.5 69.5h15q53 0 99 -20.5t80 -51t53 -67.5t19 -70q0 -37 -25.5 -70.5t-68.5 -65t-100 -62.5t-121 -62q-55 27 -105.5 57.5t-89 61.5t-62.5 60.5t-24 56.5z" />
<glyph unicode="9" horiz-adv-x="888" d="M33 831q0 -61 15 -117.5t45 -99.5t74 -68.5t103 -25.5q88 0 159 29t122 78t79.5 114.5t35.5 141.5q-47 -10 -57.5 -26.5t-14.5 -22.5q-18 -51 -40 -89t-56.5 -63t-86 -37t-128.5 -14q-59 0 -89 57t-30 135q0 182 92 291t252 109q84 0 132 -68t48 -190q0 -117 -24.5 -232 t-69.5 -222.5t-108.5 -205.5t-139.5 -182q-23 -23 -41 -61.5t-18 -61.5q0 -10 4 -12q20 0 45.5 9t48.5 26q111 78 196 181t144 222t91 249t36 259q0 80 -18.5 152.5t-57.5 128t-102.5 88t-151.5 32.5q-78 0 -164 -39t-158.5 -106.5t-119.5 -159.5t-47 -199z" />
<glyph unicode=":" horiz-adv-x="276" d="M23 152q0 -47 35.5 -77t82.5 -30t80 39q31 31 31 76t-35 80q-33 33 -78 32q-51 0 -83.5 -34.5t-32.5 -85.5zM23 496q0 -47 35.5 -76t82.5 -29q51 0 80 35q31 31 31 76q0 51 -33 82.5t-80 31.5q-51 0 -83.5 -34.5t-32.5 -85.5z" />
<glyph unicode=";" horiz-adv-x="317" d="M45 -6q0 -23 21.5 -40t44.5 -17t39 16q6 8 16 8q23 -8 22 -35q0 -47 -38.5 -76.5t-86.5 -29.5h-10q10 -29 33 -41t51 -12q72 0 115 53t43 123q0 14 -6 43.5t-20.5 58.5t-41 51.5t-65.5 22.5t-62.5 -11.5t-36 -30t-15.5 -41t-3 -42.5zM51 532q0 -45 36 -74.5t83 -29.5 q43 0 76 35t33 78q0 47 -33 79.5t-78 32.5q-53 0 -85 -33.5t-32 -87.5z" />
<glyph unicode="&#x3c;" horiz-adv-x="0" d="M-223 772q0 -35 28.5 -58.5t65.5 -23.5q35 0 60.5 26.5t25.5 61.5q0 37 -26.5 63.5t-61.5 26.5q-41 0 -66.5 -27.5t-25.5 -68.5z" />
<glyph unicode="=" horiz-adv-x="1095" d="M63 434q0 -27 17.5 -52.5t58.5 -37.5q66 -23 129.5 -30t124.5 -7q106 0 206.5 12.5t203.5 12.5q35 0 69.5 -2t69.5 -8q16 8 23.5 39.5t7.5 64.5q0 39 -8 53q-10 8 -35 8h-15q-6 0 -12 -2q-129 -2 -244.5 -17t-234.5 -15q-66 0 -130.5 7t-133.5 29q-23 6 -30 8.5t-7 10.5 v6q-27 -6 -43.5 -28.5t-16.5 -51.5zM88 705q0 -27 16.5 -52.5t57.5 -38.5q66 -23 129 -29.5t125 -6.5q104 0 204.5 12t200.5 12q35 0 69 -2t68 -8q16 8 23.5 40t7.5 64q0 39 -8 54q-10 8 -35 8q-16 0 -24 -2q-127 -2 -243 -17.5t-233 -15.5q-66 0 -130 7t-134 30 q-20 6 -28.5 8t-8.5 10v6q-27 -6 -42 -28.5t-15 -50.5z" />
<glyph unicode="&#x3e;" horiz-adv-x="102" />
<glyph unicode="?" horiz-adv-x="727" d="M23 1174q0 -20 7 -43t22.5 -42.5t38 -33t52.5 -13.5q37 1 78 21q-49 25 -69.5 45t-20.5 37q0 25 37 40t83 23.5t88 11.5t52 3q49 0 82 -15.5t54.5 -38t30.5 -49t9 -49.5q0 -59 -47 -131t-103.5 -155t-103.5 -177t-47 -198q0 -78 52.5 -121t115.5 -43q16 0 47 8l13 4 l18 25l-6 41h-14q-92 0 -93 86q0 66 22.5 129t56.5 124.5t74 118t73.5 107.5t56.5 95t23 81q0 66 -26 121t-71 96t-104.5 63.5t-126.5 22.5q-51 0 -112.5 -14.5t-116 -40t-90 -61t-35.5 -78.5zM297 41q0 -35 28.5 -58.5t65.5 -23.5q35 0 60.5 26.5t25.5 61.5 q0 37 -26.5 63.5t-61.5 26.5q-41 0 -66.5 -27.5t-25.5 -68.5z" />
<glyph unicode="@" horiz-adv-x="1353" d="M129 563q0 -150 40 -269.5t115.5 -202.5t181 -127t239.5 -44q55 0 127.5 8.5t146.5 36t139.5 77.5t106.5 136q4 12 4 15q0 33 -47 32q-33 0 -72 -22q-31 -41 -82 -69t-107.5 -45t-110.5 -24.5t-93 -7.5q-227 0 -337 130t-110 360q0 129 33 242.5t92.5 197.5t144.5 133 t189 49q86 0 162 -31.5t132 -98t90 -169t34 -243.5q0 -98 -24.5 -154.5t-106.5 -56.5q-39 0 -70 30q37 82 37 185q0 63 -9 117.5t-27.5 94.5t-47.5 63.5t-68 23.5q-12 0 -27.5 -8.5t-28.5 -20.5t-22.5 -25.5t-9.5 -21.5q0 -6 -3 -22.5t-3 -34.5q0 -86 24.5 -178.5 t72.5 -163.5q-23 -25 -50.5 -40.5t-60.5 -15.5q-178 0 -178 226q0 51 20.5 88t47 62.5t53 40.5t39.5 24q14 10 31.5 32.5t27.5 38.5l12 13q-98 0 -162.5 -32t-102.5 -78t-54.5 -98t-16.5 -91q0 -150 72 -239t213 -89q59 0 104 22.5t76 61.5q59 -41 137 -41q68 0 112 30.5 t69.5 73.5t35 89.5t9.5 76.5q0 139 -31 264t-95.5 219.5t-168 149.5t-246.5 55q-119 0 -227.5 -67.5t-190.5 -173t-131 -236.5t-49 -258zM815 819q0 10 5.5 30.5t21.5 20.5q14 0 25.5 -28.5t18.5 -66.5t10 -78t3 -64q0 -41 -16 -90q-8 16 -14.5 31.5t-12.5 29.5 q-35 90 -41 215z" />
<glyph unicode="A" horiz-adv-x="1112" d="M74 590q-4 -47 -6 -97.5t-2 -101.5q0 -102 -2.5 -201.5t-4.5 -201.5q-2 -6 -2 -15q0 -16 8.5 -29.5t24.5 -13.5h76q29 0 53.5 6.5t32.5 34.5l4 428v21q63 -35 132 -49.5t134 -18.5q29 4 56.5 8.5t56.5 8.5q37 -49 72.5 -105.5t65.5 -114t52.5 -112.5t34.5 -100 q33 -12 76 -13q18 0 38.5 2t45.5 6q6 2 11 23.5t5 34.5v321q0 41 1 90.5t3 104.5q25 14 49.5 31.5t49 36t39 44t14.5 48.5t-15.5 38t-50.5 15q2 -6 2 -17q0 -23 -20.5 -41t-67.5 -49q-2 96 -7 198.5t-20.5 200t-42 183.5t-68.5 150.5t-102.5 102.5t-142.5 38 q-100 0 -188 -49.5t-158.5 -139.5t-124 -217t-84.5 -282q-75 -23 -75 -86q0 -53 47 -121zM262 545q2 35 6 66.5t8 64.5q66 -20 139.5 -78.5t145.5 -138.5q-82 0 -157.5 19.5t-141.5 66.5zM297 793q25 117 61.5 217t81.5 172.5t96.5 113.5t106.5 41q72 0 117 -55t70.5 -143 t34.5 -198t9 -216q0 -53 -2 -104.5t-4 -96.5q-39 -16 -77.5 -26.5t-79.5 -20.5q-92 111 -188.5 191t-182.5 116q-10 4 -21.5 5.5t-21.5 3.5zM774 397q23 6 44.5 12.5t43.5 14.5q-6 -67 -6 -94v-49q-20 31 -39.5 59.5t-42.5 56.5z" />
<glyph unicode="B" horiz-adv-x="1484" d="M-100 915q0 -18 11 -32.5t32 -14.5q18 0 26 15.5t15 25.5q23 35 44 59.5t45.5 47t55.5 44t72 50.5q25 -12 40 -37.5t23 -60.5t11.5 -75t3.5 -79q0 -37 -1.5 -69.5t-1.5 -53.5q-27 -35 -54 -69.5t-32 -79.5q0 -10 11.5 -26.5t28 -35t34 -39t31.5 -34.5l-21 -326 q0 -63 41 -100t99.5 -56.5t122 -24.5t110.5 -5q131 0 274.5 24.5t263.5 83.5t197.5 161.5t77.5 260.5q0 55 -23.5 110.5t-60.5 104.5t-83 89t-91 67q63 78 102 166t39 217q0 68 -44 117t-110.5 81.5t-143 48t-142.5 15.5q-162 0 -313.5 -57.5t-292.5 -143.5 q-104 -63 -207.5 -143t-181.5 -178q-4 -14 -6 -22.5t-2 -25.5zM377 1171q0 12 23.5 26.5t52 29t56.5 25t38 14.5q190 71 359 71h5q45 0 96.5 -8t95.5 -29.5t72.5 -58.5t28.5 -94q0 -72 -34.5 -145.5t-88.5 -124.5q-29 10 -88 21t-133 11q-96 0 -202.5 -18.5t-184.5 -44.5 q-8 43 -12 86t-12.5 84t-24.5 79.5t-47 75.5zM461 389q0 20 4 35.5t22 26.5q16 4 58.5 12t90.5 18.5t90 19.5t56 15q6 2 34 15.5t60.5 30t63.5 31.5t47 25q35 20 67.5 50t61.5 59q68 -29 106 -59.5t56 -60t21.5 -60.5t3.5 -60q0 -102 -67 -174.5t-162 -119t-200.5 -69 t-185.5 -22.5q-12 0 -48 1t-73 7.5t-66.5 18.5t-29.5 35q2 35 30.5 57.5t70.5 37.5t90.5 23.5t89.5 14.5t68.5 13t27.5 20q0 27 -30 32t-54 5q-29 0 -69 -3.5t-83 -11.5t-83 -19t-66 -28zM479 696q16 18 40 30.5t38 16.5q39 12 108.5 28.5t127.5 16.5q20 0 76.5 -4 t103.5 -20q-16 -14 -76.5 -40t-131.5 -50.5t-136.5 -42t-91.5 -17.5q-10 0 -26.5 1t-29.5 6z" />
<glyph unicode="C" horiz-adv-x="1253" d="M31 635q0 -164 56 -294t146.5 -222t203 -141.5t225.5 -49.5q61 0 135.5 12.5t149.5 34t142.5 48t116.5 55.5q4 12 6 24.5t2 22.5q0 16 -9 35t-34 39q-49 -16 -111.5 -34t-130 -32t-134 -22.5t-123.5 -8.5q-66 0 -150 38t-158.5 110t-126 174t-51.5 231q0 135 51.5 258 t146.5 217.5t232.5 150.5t311.5 56q37 0 74.5 -8t68.5 -27.5t50.5 -52t19.5 -82.5q0 -139 -62.5 -210.5t-163.5 -71.5q-29 0 -46 6t-25 18.5t-10.5 27.5t-2.5 34v35q0 35 28 75.5t75 98.5h-8q-37 0 -73 -19.5t-64.5 -47.5t-47 -59.5t-18.5 -58.5q0 -41 7 -79.5t25.5 -69.5 t49.5 -50.5t78 -19.5q184 0 279 103.5t95 341.5q0 14 -2 29.5t-6 27.5q-18 47 -57 83t-85 60.5t-93 36.5t-80 12q-174 0 -308 -37.5t-234.5 -102t-169 -148.5t-111.5 -177.5t-61.5 -188.5t-18.5 -181z" />
<glyph unicode="D" horiz-adv-x="2011" d="M4 1286q0 -20 32 -26.5t64 -6.5q16 0 30 1t20 1q8 8 8 17q0 10 -11 16q-4 2 -16 4t-25.5 5t-24.5 7.5t-11 10.5q0 12 47 22q41 10 83 14.5t83 4.5q199 0 373.5 -34t355.5 -103q84 -33 176 -77t180 -98.5t167 -119t139.5 -138t95 -155.5t34.5 -170q0 -90 -34.5 -154.5 t-92 -108.5t-131 -71t-149.5 -41t-147.5 -18.5t-127.5 -4.5q-39 0 -92 7.5t-102 35.5l-2 437q12 4 22 6t31 2q59 0 127 -9.5t127 -24.5t103 -33.5t61 -37.5q-10 -20 -38 -42.5t-50 -47.5q16 -12 43.5 -19t46.5 -7q25 0 50.5 14t44.5 35.5t31.5 46.5t12.5 43q0 51 -32.5 88 t-85 63.5t-117 44t-128 26.5t-120 13.5t-90.5 4.5h-29q-4 35 -6 65.5t-4 61.5q-4 70 -18.5 120t-69.5 95q-18 -14 -30.5 -56.5t-21 -88.5t-13.5 -85t-5 -47l-4 -82q-147 -27 -244.5 -58.5t-169.5 -84.5q-66 -47 -65 -92q0 -47 31.5 -93.5t66.5 -82.5q41 -47 130 -114 t228 -147q8 -47 18.5 -88t33.5 -69l47 -4q20 0 36.5 2t32.5 6q10 35 15.5 52.5t9.5 33.5q68 -10 146.5 -20.5t148.5 -10.5q137 0 273 33t244.5 100.5t176.5 169t68 240.5q0 104 -46.5 202.5t-123 187.5t-173 168t-197.5 142.5t-197.5 111.5t-172.5 75q-74 27 -152.5 50 t-158.5 39.5t-155.5 27t-143.5 10.5q-53 0 -132 -4.5t-153.5 -22.5t-128 -57t-53.5 -109zM336 438q0 27 38 43.5t96 28.5t129 19.5t136 15.5h21l-17 -391q-72 16 -139.5 49t-116.5 71q-20 16 -45.5 36t-48 41.5t-38 44t-15.5 42.5z" />
<glyph unicode="E" horiz-adv-x="1067" d="M18 395q0 -109 50.5 -206t150.5 -150q90 -59 195.5 -90t216.5 -31q55 0 99 8t84 26.5t79 45.5t86 63q49 37 49 109q0 45 -3 65.5t-15 20.5q-16 0 -62 -45q-61 -63 -150 -104t-182 -41q-78 0 -152.5 22.5t-133 67.5t-95 110.5t-36.5 149.5q0 51 8 101t28.5 92t56.5 75 t91 51q12 8 23 13q57 -23 116.5 -30t120.5 -7q72 0 117 6t70.5 19.5t34.5 32.5t9 48q0 45 -16 63.5t-74 34.5q-41 12 -83 17.5t-85 5.5q-49 0 -99 -6t-99 -21q-35 23 -51.5 73t-16.5 103q0 63 35 112.5t88 82.5t118.5 49.5t127.5 16.5q39 0 91 -7.5t87 -19.5 q45 -20 53 -29.5t8 -17.5q0 -16 -6 -34.5t-14 -35t-18.5 -30t-16.5 -19.5q12 -2 22.5 -5t24.5 -3q25 0 41.5 13.5t26.5 32.5t15 43t5 46q0 53 -23.5 103.5t-68.5 64.5q-55 18 -112.5 28.5t-118.5 10.5q-96 0 -192.5 -22.5t-174.5 -70.5t-129 -123t-55 -179 q4 -66 36.5 -129.5t73.5 -110.5q-66 -29 -113.5 -76t-79.5 -107.5t-47.5 -131t-15.5 -144.5zM537 823q27 4 61.5 12.5t75.5 8.5q47 0 74 -15q-59 -16 -103 -16z" />
<glyph unicode="F" horiz-adv-x="1081" d="M25 1374q0 -31 31.5 -61.5t74.5 -55t89 -39t75 -14.5h205q45 -55 69.5 -111.5t35.5 -115.5t13.5 -126t6.5 -140h-33h-17q-6 0 -15 1t-30 3v57q0 43 -2 102.5t-5 130t-11 144.5q-37 -84 -42 -183.5t-9 -240.5q-53 4 -108.5 18.5t-112.5 24.5q2 -35 29.5 -63.5t45.5 -42.5 q29 -18 67 -31t71 -17q0 -18 -3.5 -74.5t-3.5 -131.5q0 -98 9.5 -212t38.5 -200q6 -20 30.5 -45t44.5 -25q80 0 128 48.5t69 123.5q10 35 12 84t2 103v299h240q14 0 24 -17q18 6 27.5 13.5t9.5 35.5q0 10 -5 25.5t-14 29t-22.5 22.5t-29.5 9h-31q-20 0 -45 1.5t-49.5 2.5 t-38.5 1l-74 4q-6 80 -18.5 143.5t-33 121.5t-51 112.5t-73.5 115.5q100 2 172 5t132.5 5.5t115.5 3.5t121 1q29 0 58.5 -3.5t29.5 -25.5q0 -16 -30 -28t-52 -34q14 -8 39 -8q20 0 42.5 6.5t41 18.5t31 30.5t12.5 43.5q0 41 -19.5 65.5t-50.5 37.5t-67.5 17t-73.5 4 q-135 0 -224.5 -4t-152.5 -8q-47 -4 -97.5 -5t-101.5 -5q-31 31 -71.5 58.5t-89 48t-99.5 33t-100 12.5h-21q-10 0 -20 -3q-33 -4 -51.5 -14t-28.5 -23.5t-13 -28.5t-3 -30zM113 1380q0 10 9 16.5t46 6.5q18 0 48 -6t64.5 -16.5t69.5 -28t62 -37.5l-101 -2q-6 0 -37.5 2 t-67.5 9t-64.5 20.5t-28.5 35.5zM532 526v80l99 -12q-2 -41 -2 -96q0 -53 -1 -111.5t-2 -116t-5.5 -101.5t-11.5 -71.5t-17 -27.5q-14 0 -24.5 31.5t-17.5 81.5t-10 111.5t-5.5 121t-2.5 110.5z" />
<glyph unicode="G" horiz-adv-x="1200" d="M43 408q0 -121 39 -208t106.5 -144.5t160.5 -84t204 -26.5q104 0 198.5 31.5t165 92t112.5 145.5t42 189q0 78 -20 154q41 29 65.5 63.5t24.5 75.5q0 25 -10.5 49.5t-55.5 47.5q-2 2 -8 2q-12 0 -18 -15q0 -8 11 -20t11 -19q-18 -12 -38.5 -25.5t-39.5 -19.5 q-78 47 -146.5 64.5t-141.5 17.5q-68 0 -140.5 -11t-132 -34.5t-98.5 -61.5t-39 -93q0 -37 22.5 -64t54 -44t66.5 -25.5t58 -8.5q123 0 241.5 20.5t229.5 69.5q2 -10 2 -18v-19q0 -86 -37 -156.5t-95.5 -120.5t-134 -79t-151.5 -29q-66 0 -127.5 16.5t-108.5 50.5t-75.5 85 t-28.5 121q0 152 44 288t116 242q57 84 141 161t188.5 136.5t223 94t243.5 34.5q45 0 87 -11t74 -30.5t50.5 -44t18.5 -51.5q0 -53 -41 -53q-12 0 -28 4t-34 8q8 -31 35 -54.5t60 -23.5q47 0 78.5 37t31.5 86q0 68 -30.5 120t-83 89t-119 56.5t-138.5 19.5q-141 0 -276 -40 t-256 -111.5t-222.5 -172t-175 -220.5t-114.5 -255t-41 -278zM397 598q14 29 50 45t81 25.5t93.5 12.5t87.5 3q10 0 30.5 -3t46 -9t53 -16.5t52.5 -24.5q-35 -10 -65.5 -16.5t-64.5 -9.5t-75 -6t-92 -7q-12 -2 -29 -2h-33q-35 0 -72.5 2t-62.5 6z" />
<glyph unicode="H" horiz-adv-x="1241" d="M23 610q0 -74 55 -129q23 -29 59 -49l4 -6l4 -469q2 -14 27 -16t55 -2q29 0 46.5 11t17.5 34l4 385l6 6q45 -4 93 -5t102 -1q41 0 95 6t114 22l6 -2q102 -96 167.5 -199.5t65.5 -207.5q2 -23 2 -29q0 -8 4 -12q4 -6 30 -7t46 -1q25 0 54.5 2t29.5 10v72q6 129 9 247.5 t7 241.5l4 6q59 23 112.5 51.5t94.5 53.5q29 20 35 41.5t6 44.5q0 31 -13 40t-42 21q-6 -45 -61.5 -75.5t-126.5 -55.5l-9 8q2 47 2 94v101v620q-6 10 -21 15.5t-34 5.5q-31 0 -64.5 -11.5t-52.5 -27.5v-72q0 -92 1 -169t1 -144v-129v-123v-205l-2 -6q-14 -6 -34 -10h-2 q-29 -8 -79 -17.5t-112 -17.5l-4 2q-102 78 -213 142.5t-207 99.5l-4 6l8 629q-4 12 -19.5 17t-33.5 5q-35 0 -73 -15.5t-48 -39.5l4 -70v-520l-4 -6q-51 -27 -81.5 -80t-30.5 -111zM295 528l4 119l8 6q55 -25 108.5 -52.5t106.5 -61.5l-4 -13q-73 -6 -143 -6h-39 q-18 0 -35 2zM877 428l2 10q18 4 35.5 9.5t33.5 11.5l8 -6v-47q0 -23 -2 -46l-10 -4l-31 33z" />
<glyph unicode="I" horiz-adv-x="751" d="M49 57q0 -31 21.5 -60.5t56.5 -53t81 -36.5t95 -13q86 0 147.5 33.5t105.5 90t70.5 129t41 151.5t19.5 158t5 144q0 172 -9 303t-19.5 222.5t-19.5 138.5t-11 51q-14 37 -28.5 63.5t-35 44t-49 26.5t-67.5 9q-41 0 -64.5 -52t-36 -126t-15.5 -156t-3 -141v-80 q0 -221 20.5 -376.5t89.5 -254.5q-24 150 -24 217v5l2 28q10 150 12 289t5 247.5t12.5 177.5t37.5 79q8 -6 14.5 -54.5t10.5 -125t6 -175t2 -200.5q0 -47 2 -104.5t2 -123.5q0 -98 -7 -200.5t-30.5 -185.5t-66.5 -136t-117 -53q-78 2 -123 37t-45 63q0 27 31 31 q-6 14 -18.5 19.5t-28.5 5.5q-29 0 -50.5 -14.5t-21.5 -41.5z" />
<glyph unicode="J" horiz-adv-x="1226" d="M90 162q0 -35 23.5 -83t69.5 -92t110.5 -75t148.5 -31q100 0 182.5 34t146 91t110.5 130t77 153q59 -12 117 -29.5t107 -40.5q-6 57 -57.5 101.5t-129.5 72.5q18 68 27.5 131.5t9.5 116.5q-4 193 -12 318.5t-17.5 202.5t-18.5 113t-15 50q-16 37 -33.5 65.5t-40.5 50 t-54.5 33t-78.5 11.5q-74 0 -134.5 -51.5t-103.5 -132t-65.5 -178t-22.5 -189.5q0 -113 37 -198t117 -101q4 0 7 -1t7 -1q16 0 34.5 2t31.5 6q-37 20 -57.5 50t-31 62.5t-12.5 64.5t-2 56q0 29 9.5 74t23.5 95.5t33.5 100.5t41 90t43 64.5t40.5 24.5q43 0 64.5 -50 t31.5 -133t12 -190.5t2 -220.5v-6q0 -59 -8 -135t-26 -154q-31 4 -64 6t-65 2q-111 0 -220.5 -16t-197.5 -50t-142.5 -87t-54.5 -127zM201 143q0 45 22.5 79t75.5 56.5t140 34t216 11.5q31 0 67 -2.5t77 -6.5q-25 -72 -57.5 -135t-76.5 -112.5t-98.5 -78t-120.5 -28.5 t-111.5 23.5t-75.5 55.5t-44 61.5t-14 41.5z" />
<glyph unicode="K" horiz-adv-x="1118" d="M20 655q0 -31 20.5 -45t49.5 -28l2 -459l10 -139q8 -37 40 -44.5t48 -7.5q33 0 63 14.5t40 61.5l-6 168l-8 350q80 0 155.5 17.5t147.5 50.5q61 -55 122.5 -123t113.5 -145.5t92 -165.5t61 -183q4 -16 19.5 -34.5t45.5 -18.5q10 0 13.5 20.5t3.5 51.5t-3 66.5t-8.5 72.5 t-12.5 70t-15 55q-47 137 -122 240.5t-163 177.5q82 57 148.5 132t114.5 162t75 181t27 193q0 20 -12.5 40.5t-30 35t-38 23.5t-38.5 9q-25 0 -43.5 -12t-29.5 -28.5t-16 -32t-5 -21.5l24 -45q4 35 19.5 42t31.5 7q35 0 35 -41q0 -31 -17.5 -77t-41 -92t-48 -85t-40.5 -57 q-57 -70 -115.5 -133.5t-124.5 -114.5q-92 55 -182 82.5t-162 32.5l-18 485q-2 41 -28 56.5t-48 15.5q-29 0 -52.5 -7.5t-25.5 -33.5v-183l2 -36v-347q-70 -59 -70 -174zM266 772h10q27 0 56.5 -8t60.5 -27q37 -25 80 -55q-95 -47 -201 -53z" />
<glyph unicode="L" horiz-adv-x="983" d="M33 133q0 -72 40 -110.5t97 -38.5q92 0 151.5 54t100.5 155q41 -20 87 -56.5t93 -75t95 -76.5t94 -63q29 -16 62.5 -25.5t49.5 -9.5q35 0 64.5 7.5t29.5 27.5q0 10 -12 27q-47 61 -109.5 116.5t-132 101.5t-139.5 83.5t-131 68.5q31 98 56.5 193.5t45 192t30.5 195.5 t11 206q0 55 -4 122.5t-22.5 126t-57 97.5t-108.5 39q-39 0 -49 -12.5t-10 -51.5q10 -45 25.5 -101t30.5 -123.5t26.5 -144.5t11.5 -159q0 -45 -4 -114.5t-14.5 -146.5t-26 -153.5t-37.5 -136.5q-31 8 -66 15.5t-94 7.5q-33 0 -65.5 -19.5t-59 -53.5t-43 -77t-16.5 -88z M127 145q0 55 37 87t72 32q18 0 44.5 -4t61.5 -27q-27 -90 -77 -125.5t-87 -35.5q-27 0 -39 22.5t-12 50.5z" />
<glyph unicode="M" horiz-adv-x="1814" d="M25 1206q0 -35 30.5 -59.5t55.5 -24.5q23 0 22 23q0 10 -2 16q-37 16 -37 51q0 25 17.5 50.5t41 48t48 37t39.5 14.5q8 0 10 -4q57 -100 92 -213q-18 -80 -36.5 -179.5t-33 -204t-23.5 -211t-9 -202.5q0 -84 9 -155.5t21.5 -127t23.5 -89t17 -42.5q4 -6 18.5 -16 t30.5 -10h9q23 4 53.5 21.5t46.5 37.5q27 35 48.5 99.5t36.5 149.5t23.5 186.5t8.5 207.5q0 152 -17.5 300.5t-56.5 271.5q35 53 72 85.5t78 39.5q35 -25 63.5 -99.5t52 -180t44 -233.5t36.5 -259.5t29.5 -256t25.5 -225.5q0 -25 22.5 -37t51.5 -12t53.5 13.5t24.5 37.5v2 q0 4 -1 6.5t-1 6.5v69q0 102 13.5 224t36 246t52 243t59 214t58.5 159.5t51 81.5q29 -18 44.5 -98.5t27.5 -197t26.5 -260t38 -286.5t62.5 -274.5t102 -225.5q10 -16 44 -38.5t74 -45t80 -40t64 -21.5q4 0 6.5 -1t4.5 -1q10 0 10 8q0 16 -35 51q-70 35 -116 95.5 t-75.5 140.5t-45 174t-23.5 196q-18 252 -37.5 439.5t-48.5 312.5t-73 187.5t-113 62.5q-68 0 -124.5 -62.5t-101.5 -167t-79.5 -241.5t-59.5 -285q-59 369 -135 562.5t-176 193.5q-82 0 -141.5 -38t-100.5 -93q-39 59 -87 92t-109 33q-18 0 -53.5 -19.5t-70 -55.5t-61 -86 t-26.5 -112zM317 250q0 174 20.5 340t59.5 307q8 -61 11.5 -124t3.5 -126q0 -160 -16.5 -316.5t-35.5 -307.5q-6 2 -13 29.5t-14 64.5t-11.5 73.5t-4.5 59.5z" />
<glyph unicode="N" horiz-adv-x="1155" d="M10 113q0 -25 5 -49.5t15.5 -44t23 -33t28.5 -13.5q43 0 56.5 25t21.5 53q31 109 54.5 200t39.5 179t26.5 181.5t18.5 207.5q33 -96 81 -196.5t105.5 -193.5t120 -175t120.5 -144.5t111.5 -98.5t90.5 -38q72 27 112.5 100.5t61 164t26 183.5t5.5 161q0 266 -91 486.5 t-284 404.5q-8 -16 -13.5 -28.5t-5.5 -27.5q41 -98 81 -202.5t71 -214t49 -222t18 -225.5q0 -82 -11 -164t-36 -164q-37 0 -86 46t-104 121t-112.5 168t-111 187.5t-96.5 180.5t-69 145h-2v2q10 72 17 141.5t9 135.5q0 31 -24.5 61.5t-57.5 30.5q-78 0 -116.5 -47 t-42.5 -103v-14q0 -51 23.5 -124t60.5 -144q-25 -123 -48.5 -243t-46 -231.5t-45 -210t-45.5 -175.5q-4 -10 -4 -21v-18zM219 1294q0 41 4 58.5t27 17.5q10 0 14 -14.5t4 -30.5q0 -31 -5 -64.5t-13 -68.5q-14 29 -22.5 55.5t-8.5 46.5z" />
<glyph unicode="O" d="M27 655q0 -158 46 -290t133 -227t213 -147t286 -52q115 0 223 52t193 146t137.5 226.5t52.5 291.5q0 184 -53.5 337t-132 262.5t-170 170t-164.5 60.5q-51 0 -98.5 -10.5t-83.5 -35t-57.5 -65.5t-21.5 -100q0 -43 25 -85t63.5 -75t87 -53.5t93.5 -20.5q20 0 32 7l35 65 q-35 0 -68.5 17.5t-59 43t-42 56.5t-16.5 57q0 29 19.5 47.5t66.5 18.5q63 0 131 -64.5t122 -166t89 -224.5t35 -238q0 -113 -33 -216t-91 -183t-139 -128t-175 -48q-117 0 -210.5 40t-159 113.5t-100 179t-34.5 238.5t26.5 231.5t69.5 172.5t94 127t101 96q8 8 8 21 q0 14 4 26v80l-17 18q-53 -8 -106 -31.5t-100 -78.5q-80 -96 -130.5 -176t-78 -157t-36.5 -155.5t-9 -173.5z" />
<glyph unicode="P" horiz-adv-x="1058" d="M27 1348l4 -23q61 4 130.5 7t129.5 3q47 0 122.5 -12t162 -36.5t172.5 -64.5t156.5 -94.5t114.5 -125t44 -158.5q0 -74 -56.5 -124t-135 -81t-161.5 -45t-137 -14q-51 0 -98 8l-4 252q98 0 134 -12.5t36 -45.5q0 -14 -6 -28q61 6 61 71q0 25 -10 47.5t-35.5 41 t-70.5 29.5t-113 11l-14 170q0 12 -6.5 32t-15.5 39t-19.5 36.5t-22.5 25.5q-41 -41 -51 -77.5t-14 -75.5q-4 -31 -5 -70q0 -37 -2 -78q-8 0 -33.5 -7t-33.5 -9q-104 -29 -154.5 -85t-50.5 -124q0 -43 28.5 -83t70.5 -73.5t91.5 -58t90.5 -37.5v-45l-4 -278q0 -35 1 -61.5 t3 -45.5q4 -23 8 -43t8 -43q16 -23 22.5 -32t24.5 -9q37 10 66.5 43t31.5 72q-4 90 -6 160.5t-2 128.5v65q0 31 2 55q45 -6 64.5 -7t36.5 -1q121 0 237.5 32t208.5 88t148.5 132t56.5 164q0 90 -40 171t-107.5 149.5t-155.5 123t-184.5 93.5t-194.5 59t-184 20 q-104 0 -192.5 -31.5t-147.5 -90.5zM125 758q0 33 29.5 50t68.5 26q16 4 46 5t50 1v-211q-27 6 -60.5 17t-63 26.5t-50 36t-20.5 49.5z" />
<glyph unicode="Q" d="M27 655q0 -158 46 -290t133 -227t213 -147t286 -52q135 0 258 69q59 -47 123.5 -79.5t142.5 -32.5h18t19 2q29 2 50 37.5t21 70.5v12q-14 -14 -53 -14q-35 0 -61 10q-37 12 -72 34t-70 48q102 96 166 237.5t64 321.5q0 184 -53.5 337t-132 262.5t-170 170t-164.5 60.5 q-51 0 -98.5 -10.5t-83.5 -35t-57.5 -65.5t-21.5 -100q0 -18 15.5 -54t41 -71t57.5 -63.5t65 -32.5q16 -2 41.5 -7.5t48.5 -5.5q20 0 32 7l35 65q-35 0 -68.5 17.5t-59 43t-42 56.5t-16.5 57q0 29 19.5 46.5t66.5 19.5h4q63 0 129 -64.5t120 -166t89 -224.5t35 -238 q0 -137 -47 -258.5t-131 -203.5q-41 35 -84 68.5t-91.5 60t-100.5 43t-111 16.5q-18 0 -39 -2t-41 -6q-53 -10 -99.5 -45t-72.5 -82q-59 74 -92 175t-33 230q0 133 26.5 231.5t69.5 172.5t94 127t101 96v14q0 35 11 64.5t27 52.5l-16 27q-53 -8 -119.5 -38t-113.5 -85 q-80 -96 -130.5 -176t-78 -157t-36.5 -155.5t-9 -173.5zM424 160v2q2 0 2 2q14 45 46 61.5t73 16.5t82 -10.5t73 -20.5q37 -20 72 -45t70 -53q-68 -29 -137 -29q-160 0 -281 76z" />
<glyph unicode="R" d="M68 1176q0 -39 26.5 -69t83.5 -30q33 0 66 8q-23 18 -34 30.5t-11 35.5v12q2 31 59 57.5t137 46t167 30t151 10.5q33 0 102.5 -9.5t140 -37t124 -77.5t53.5 -132q0 -55 -20.5 -104.5t-57.5 -90.5t-86 -74.5t-105 -58.5q-94 61 -205.5 99t-222.5 40v66q0 53 -1 97t-5 101 q0 31 -19.5 44.5t-43.5 13.5q-29 0 -56.5 -18.5t-29.5 -55.5l-2 -20q4 -43 4 -76v-72v-98q-27 -2 -47.5 -18.5t-35 -41t-21.5 -55.5t-7 -63q0 -61 25.5 -115.5t78.5 -71.5q-4 -68 -7 -126t-3 -117q0 -84 13 -189q4 -43 25.5 -63.5t49.5 -20.5q29 0 52.5 23.5t23.5 66.5v10 q-6 57 -8 112.5t-2 109.5v86t2 84h41q92 0 189.5 16t174.5 45q63 -55 115.5 -109.5t101 -117t96.5 -139t103 -175.5q25 -45 53 -45q16 0 25.5 13.5t9.5 33.5q0 12 -6 29q-49 137 -89 227.5t-75 151.5t-67.5 106.5t-69.5 94.5q53 33 104.5 80t91.5 106t64.5 131t24.5 154 q0 106 -51.5 184t-131 128t-176 73.5t-184.5 23.5q-37 0 -103.5 -7t-144.5 -21.5t-157.5 -37t-145 -55t-106.5 -74.5t-41 -95zM420 662l4 28q10 2 27.5 3t35.5 1q27 0 55.5 -2t55.5 -8t48.5 -15.5t33.5 -23.5q-8 -8 -28.5 -13t-48.5 -9.5t-58.5 -6.5t-57.5 -2q-20 0 -36.5 1 t-28.5 3z" />
<glyph unicode="S" horiz-adv-x="1323" d="M70 319q0 -63 31.5 -116t84 -95t119 -75t136 -54.5t135 -33t114.5 -11.5q68 0 170.5 26t198.5 84t164.5 152.5t68.5 231.5q0 125 -42 203t-109.5 124t-155.5 67.5t-178 30.5t-178 16.5t-155.5 22.5t-109.5 49t-42 97q0 80 49 133.5t120.5 85t152.5 45t147 13.5 q63 0 118.5 -8.5t95 -19.5t64.5 -24.5t29 -23.5q2 -4 2 -12q0 -23 -16.5 -45.5t-26.5 -36.5q-2 -2 -2 -4q0 -4 4 -4l12 -2q18 0 44 10t50.5 28.5t41 42t16.5 50.5q0 18 -9 32q-45 92 -137 138.5t-213 46.5q-135 0 -266 -28t-234.5 -85t-167 -142t-63.5 -198q0 -92 42 -145.5 t110.5 -82t156.5 -39.5t180.5 -18.5t180.5 -17.5t156.5 -36.5t110.5 -77t42 -136.5q0 -47 -22.5 -113.5t-79 -128t-153.5 -104.5t-245 -43q-23 0 -65.5 6t-95 18.5t-107.5 32t-100 46t-74 60.5t-29 77q0 49 20.5 80.5t53.5 50t71 26t74 7.5q119 0 196 -43t142 -101 q14 -12 43 -12q35 0 70 19.5t35 50.5q-47 61 -96.5 98t-101.5 57.5t-107.5 26.5t-114.5 6t-121.5 -15.5t-115 -48t-86 -85t-33.5 -126.5z" />
<glyph unicode="T" horiz-adv-x="1044" d="M29 1366q0 -29 13 -54.5t34.5 -47t47.5 -40t50 -30.5q72 -37 168 -81t197 -75q-88 -133 -142.5 -269t-54.5 -294q0 -72 15.5 -155.5t43 -166.5t66.5 -161t86 -139q16 -20 34 -32t38 -26q27 -6 43 -6t16 10q0 16 -28.5 53t-63.5 103q-47 88 -67.5 186.5t-20.5 202.5 q0 174 51 346t137 314q51 -10 99.5 -15.5t95.5 -5.5q78 0 169 21.5t169 66.5t130 114.5t52 166.5q0 20 -12.5 31.5t-29.5 17.5t-38.5 7t-40.5 1q-184 0 -360 -68.5t-312 -201.5q-63 10 -131.5 25.5t-131 36t-115 43t-82.5 46.5q-27 20 -43.5 35.5t-16.5 34.5q0 29 47 84 q2 2 2 6t-2 4h-8q-41 0 -72.5 -28.5t-31.5 -59.5zM799 1116q66 51 144.5 87t156.5 54q23 6 62.5 14.5t80.5 8.5h17q-53 -98 -151.5 -134t-207.5 -36q-53 0 -102 6z" />
<glyph unicode="U" horiz-adv-x="1298" d="M47 741q0 -172 23.5 -324.5t84 -267t165 -181t266.5 -66.5q123 0 226 56t183 148q25 -41 54.5 -85t64.5 -93q25 -18 47 -18q31 0 52.5 25.5t21.5 58.5q0 39 -33 65q-66 109 -106 189q74 129 112.5 277.5t38.5 289.5q0 49 -1 115.5t-7 136.5t-19.5 139.5t-37 122.5 t-59.5 87t-89 34q-39 0 -68.5 -34t-53 -86t-41 -116.5t-29 -127t-16.5 -117t-5 -84.5q0 -106 4 -193.5t14.5 -163t30 -142.5t48.5 -132q-74 -98 -160 -145.5t-164 -47.5q-125 0 -202 68t-119 176.5t-56 245.5t-14 276q0 127 17.5 246t49.5 232q10 39 18.5 69.5t8.5 50.5 q0 27 -16 27q-14 0 -45 -25q-92 -141 -140.5 -319t-48.5 -367zM977 834q0 8 2 44.5t7 87t11.5 107.5t15.5 105.5t19 80t23 31.5q6 0 12 -9t11 -54t8.5 -138.5t3.5 -259.5q0 -117 -18.5 -215t-51.5 -180q-25 80 -34 173.5t-9 226.5z" />
<glyph unicode="V" horiz-adv-x="1056" d="M35 1057q0 -190 34.5 -339t89 -261.5t120 -192.5t127 -133t111.5 -84t73 -43q12 -4 28 -4h37h35q16 0 31 4q98 100 173 241.5t127 305.5t78.5 338t30.5 340q0 43 -11 59.5t-52 16.5q-23 0 -43 -38t-37.5 -87.5t-29 -98.5t-13.5 -73q-10 -68 -28.5 -152t-43 -172t-53 -173 t-58.5 -151.5t-57.5 -106.5t-50.5 -40q-47 0 -119.5 54.5t-144.5 168t-128 290.5t-68 423q0 70 14 148.5t14 170.5l-16 17q-49 -29 -82 -91.5t-52.5 -130t-27.5 -126t-8 -80.5z" />
<glyph unicode="W" horiz-adv-x="1466" d="M16 530q0 -74 17.5 -144.5t54.5 -126.5t96.5 -91t145.5 -35q41 0 86 10.5t84 26.5q2 -12 22.5 -46t57 -67.5t90 -60.5t121.5 -27q63 0 139 24.5t152.5 74t148.5 124t127 176t89 230.5t34 285q0 96 -24.5 201.5t-70 203.5t-107.5 184.5t-136 145.5q-23 18 -53.5 30.5 t-55.5 12.5l-4 -14q63 -55 113.5 -129t85.5 -157t52 -171t17 -174q0 -215 -48 -379t-118.5 -273.5t-154.5 -166t-154 -56.5q-143 0 -182 117q154 131 233.5 272.5t79.5 282.5q0 39 -8 85t-28.5 86t-52 67.5t-79.5 27.5q-39 0 -99 -26.5t-118.5 -84t-100.5 -148.5t-42 -220 q0 -6 2 -32.5t5 -64.5t8 -80t9.5 -77t7.5 -58.5t5 -25.5q-18 -20 -49 -30.5t-62 -10.5q-51 0 -85 26.5t-53 66.5t-26.5 89.5t-7.5 96.5q0 127 29 255t80 247.5t122.5 228t159.5 199.5q6 6 17.5 17t11.5 28q0 23 -29 22q-20 0 -46.5 -14.5t-49.5 -30.5q-106 -74 -191 -177.5 t-144.5 -224t-91.5 -254.5t-32 -266zM610 492q0 23 3 68.5t9.5 102t16.5 116t24.5 108.5t34 79.5t43.5 30.5q16 0 25.5 -13t14.5 -34.5t6 -46t1 -45.5q0 -123 -36.5 -232.5t-130.5 -222.5q-8 6 -9.5 36t-1.5 53z" />
<glyph unicode="X" horiz-adv-x="1351" d="M0 1350q0 -66 22.5 -84.5t61.5 -26.5q10 51 19.5 77.5t43.5 26.5q27 0 53.5 -18t51.5 -47q47 -53 89 -117.5t82 -137.5t77 -152.5t75 -159.5l-331 -508q-20 -29 -29.5 -54.5t-13.5 -50t-5 -46t-8 -40.5l-6 -18l-4 -27l43 -37q16 -4 25 -4q16 0 27.5 6.5t13.5 16.5 q6 14 17 35.5t47 80t108.5 169t202.5 305.5q47 -90 99 -175t112.5 -157t131 -127t156.5 -88q14 -6 38 -13.5t50.5 -14.5t53 -12t49.5 -5h18t16 4q4 0 9.5 5t5.5 15q-14 0 -44 16.5t-60.5 36t-54 38t-23.5 22.5q-78 57 -140.5 127t-116 148.5t-100.5 165.5t-92 180 q12 20 25.5 38.5t27.5 38.5q113 154 176.5 253.5t94 160.5t40 95t13.5 59v36l-72 80q-12 -4 -29.5 -9t-33.5 -15l-19 -15l-8 -18q-18 -53 -35.5 -93t-38 -79t-49 -83t-67.5 -107l-109 -166q-66 135 -144.5 272t-187.5 272q-23 29 -61.5 42.5t-83.5 13.5q-37 0 -75 -9.5 t-66.5 -24.5t-48 -39t-19.5 -50v-8z" />
<glyph unicode="Y" horiz-adv-x="739" d="M70 698q0 -49 12 -99t38.5 -94t69.5 -81t107 -62q-20 -80 -38.5 -166.5t-33 -164.5t-23.5 -138.5t-9 -87.5q0 -20 13 -40.5t32.5 -39t43 -33t44.5 -20.5q14 2 25 12.5t19.5 25t12.5 28.5t4 24q0 150 21.5 293.5t56.5 290.5q111 14 195.5 80t142 161t86.5 213t29 240 q0 43 -2.5 100.5t-14.5 110t-37.5 89t-70.5 36.5q-59 0 -112.5 -49t-101 -126t-87 -169t-69.5 -177t-48.5 -150.5t-24.5 -90.5l-22 -94q-31 4 -51.5 24.5t-33 47t-17.5 54.5t-5 50q0 160 52.5 300.5t127.5 273.5q8 14 21.5 36.5t26 46t20.5 47t8 40.5q0 41 -33 41 q-8 0 -14 -6.5t-18 -16.5q-70 -76 -131.5 -164t-108.5 -184t-74.5 -200.5t-27.5 -211.5zM500 506q6 43 27.5 133t54 191.5t75.5 193.5t93 137l12 8q6 -16 12 -44.5t6 -57.5q0 -84 -16 -172t-51 -165t-88.5 -136t-124.5 -88z" />
<glyph unicode="Z" horiz-adv-x="1417" d="M6 23q0 -25 22.5 -51.5t45.5 -30.5l12 -2q20 0 44 8t48.5 18t49 18.5t48.5 8.5h7l743 -41h8q43 0 92.5 14.5t96.5 39t90 56t73 66.5l3 25q0 10 -4.5 19t-14.5 11l-8 2q-35 -16 -60.5 -30.5t-49 -25.5t-51 -17.5t-64.5 -6.5h-17q-80 0 -145.5 5.5t-127 12.5t-122.5 17.5 t-133 22.5q-10 2 -31.5 5t-45 8t-45 8t-30.5 5q102 102 198.5 215t181.5 238t153.5 264t116.5 295q20 -2 40 -2h44q111 0 165 33t54 86q0 37 -26 62.5t-57.5 41t-60 21.5t-35.5 6q-25 0 -57.5 -9t-65 -27.5t-59 -43.5t-37.5 -55q-80 18 -145.5 44.5t-131 53.5t-140 45.5 t-175.5 18.5q-39 0 -93 -11.5t-103 -36t-84 -63.5t-35 -94q0 -23 13.5 -36t35 -22.5t45 -12.5t45.5 -3q-23 16 -47 40t-24 42q0 20 21.5 31.5t51 17.5t61.5 7t54 1q70 0 135.5 -12t134 -30.5t148.5 -39t180 -36.5q-51 -156 -132 -288t-180.5 -255t-212 -243t-229.5 -249 q-25 -10 -54.5 -23.5t-56 -33t-46 -42.5t-23.5 -52q0 -2 -1 -3t-1 -5zM1135 1292q12 20 34.5 42t42.5 22h2q72 0 72 -27q0 -14 -24.5 -26.5t-67.5 -12.5h-31q-14 0 -28 2z" />
<glyph unicode="[" horiz-adv-x="583" d="M53 -158q0 -16 12.5 -20t34.5 -6q57 -4 129 -20.5t183 -16.5q12 0 28.5 2t44.5 10q12 16 35 41t23 47q0 6 -10.5 13.5t-25.5 13.5t-32.5 10t-30.5 4q-29 2 -47 2h-35q-14 0 -28.5 1t-32.5 1h-14v78q0 70 -1 178.5t-2 244.5t-2 280.5t-1 283.5v258q0 141 1 229.5t3 90.5 q6 2 12 2h14q18 0 32.5 1t29.5 1h35q18 0 47 2q12 0 29.5 4t32.5 10t25.5 13.5t10.5 13.5q0 23 -22.5 47.5t-34.5 40.5q-29 8 -45.5 10t-28.5 2q-111 0 -182.5 -16.5t-128.5 -20.5q-23 -2 -35.5 -6t-12.5 -20q0 -29 36 -47.5t67 -32.5l-19 -1653q-31 -14 -62.5 -31.5 t-31.5 -44.5z" />
<glyph unicode="\" horiz-adv-x="1247" d="M49 1176q0 -8 2 -11l180 -184q74 -80 179.5 -202t222.5 -261t231.5 -283.5t204.5 -267.5q4 -14 23 -18h6q14 0 32.5 11t35 28.5t27.5 36t15 34.5q2 4 2 13q0 10 -6 20q-182 211 -321.5 371t-255 295t-216 259t-202.5 265q0 6 -8 6l-11 2q-16 0 -38.5 -11t-44 -27.5 t-38 -34t-18.5 -31.5q-2 -4 -2 -10z" />
<glyph unicode="]" horiz-adv-x="583" d="M53 -123q0 -23 22.5 -47.5t35.5 -40.5q29 -8 45 -10t28 -2q111 0 182.5 16.5t129.5 20.5q23 2 35 6t12 20q0 29 -36 47.5t-67 32.5l19 1653q31 14 62.5 31.5t31.5 44.5q0 16 -12.5 20t-34.5 6q-57 4 -129 20.5t-182 16.5q-12 0 -28.5 -2t-45.5 -10q-12 -16 -35 -41 t-23 -47q0 -6 10.5 -13.5t26 -13.5t33 -10t29.5 -4q29 -2 47 -2h33q16 0 30.5 -1t32.5 -1h14v-80q0 -68 1.5 -176.5t2.5 -244.5t2 -280.5t1 -285.5v-256q0 -141 -1 -229.5t-3 -90.5q-6 -2 -15 -2h-12q-18 0 -32.5 -1t-31.5 -1h-32t-47 -2q-12 0 -30 -4t-33 -10t-25.5 -13.5 t-10.5 -13.5z" />
<glyph unicode="^" horiz-adv-x="675" d="M31 1214q0 -33 22.5 -67.5t59.5 -34.5q39 0 63.5 10.5t52.5 28.5q35 23 59 51.5t40 57.5q10 -23 29.5 -39.5t41.5 -34.5q27 -23 78 -40.5t98 -17.5q23 0 33 26t10 48q0 23 -10 39t-33 16q-16 0 -34.5 5.5t-36 12.5t-30.5 15t-17 15q-31 43 -38 74.5t-18 66.5 q-16 43 -61 43q-23 0 -43.5 -14.5t-24.5 -42.5q-8 -23 -13 -38.5t-10 -27.5t-11.5 -22.5t-16.5 -22.5q-29 -39 -55.5 -62.5t-73.5 -23.5q-12 0 -24.5 1t-28.5 9q-8 -10 -8 -31z" />
<glyph unicode="_" horiz-adv-x="686" d="M0 -10v-72h686v72h-686z" />
<glyph unicode="`" horiz-adv-x="483" d="M4 1726q0 -16 3 -31.5t16 -31.5q16 10 26 10h6q18 -2 45 -12t67 -29.5t98.5 -48.5t137.5 -65q20 0 34 14t22 35.5t12 44t6 39.5l-14 -9q-41 6 -98.5 29t-112.5 47.5t-96 45l-45 22.5q-16 6 -29.5 10t-26.5 4q-51 0 -51 -61v-13z" />
<glyph unicode="a" horiz-adv-x="475" d="M12 270q27 -4 38 -21.5t11 -37.5q-45 -80 -45 -139q0 -47 31 -80q10 -2 17.5 -3t15.5 -1q27 0 39 12l18 47q16 45 27.5 85t30.5 46q2 2 10 2q10 0 28.5 -1t61.5 -1h51l6 -94q14 -31 32.5 -53.5t41.5 -22.5q6 0 18 4q4 16 5 33v59q0 47 -2.5 87t-6.5 80t-10 83t-14 97 q-2 16 -8.5 37.5t-12.5 43t-13 41t-9 29.5q-4 16 -17.5 32.5t-29.5 16.5h-11q-12 0 -18 -8l-4 -18l-78 -97q-14 -23 -31.5 -53.5t-35 -63t-32 -62.5t-24.5 -50h-53q-16 0 -23 2zM240 307q4 14 12 37t18.5 45.5t20.5 38.5t18 18q8 -14 12.5 -32.5t6.5 -39t3 -38t1 -29.5 q-10 -2 -25 -2h-22h-23q-12 0 -22 2z" />
<glyph unicode="b" horiz-adv-x="606" d="M-18 530q14 -18 26 -18q16 0 43 7t51 20q-10 -27 -20 -61t-18.5 -69.5t-13.5 -69.5t-5 -58q-2 -18 -2 -37v-33q0 -51 3 -98.5t11 -100.5q8 -14 37 -14q16 0 33.5 4t30.5 8q6 -10 14 -10q29 -2 57.5 -4t57.5 -2q10 -2 18 -2h19q113 0 186.5 62.5t73.5 197.5q0 61 -37 98 t-92 47q41 29 54 54.5t13 48.5q0 35 -15 66.5t-41 55t-61.5 37t-74.5 13.5q-35 0 -78 -2t-88 -11.5t-86 -29t-68 -51.5q-8 -10 -16 -20.5t-12 -27.5zM164 111l10 182q12 4 50 9t83 5q29 0 57.5 -3t51 -10t37 -20.5t14.5 -31.5q0 -43 -18.5 -70t-48 -41t-66.5 -19.5t-74 -5.5 q0 10 15.5 21.5t34 23t33.5 21.5t15 16v2l-22 3q-29 0 -55.5 -7.5t-50 -19.5t-41 -26.5t-25.5 -28.5zM180 399q4 47 14.5 86t16.5 70q45 14 94 14h19q53 -2 65 -20.5t12 -48.5q0 -25 -23.5 -42.5t-57 -29.5t-71.5 -18.5t-69 -10.5z" />
<glyph unicode="c" horiz-adv-x="620" d="M31 246q0 -121 66.5 -183.5t203.5 -62.5q39 0 89 3t95 13.5t75 30t30 53.5q0 23 -8.5 36.5t-20.5 23.5h-57q-53 -16 -96 -31.5t-78 -15.5q-96 0 -130 34.5t-34 94.5q0 49 14.5 94t37 81t51 60.5t57.5 30.5l92 24q37 -57 92 -57q27 0 63 17q8 31 9 55q0 20 -4.5 28.5 t-16.5 30.5q-8 14 -23.5 22.5t-34 12.5t-38 5t-33.5 1q-94 0 -168 -34.5t-126 -92t-79.5 -129.5t-27.5 -145z" />
<glyph unicode="d" horiz-adv-x="708" d="M31 578q0 -15 2 -21l24 -35l41 60h23q219 0 354 -164q41 -57 60.5 -102.5t19.5 -79.5q0 -104 -182 -105q-14 0 -36 1t-42 9v119q0 49 -1 106.5t-9 104.5h-13q-108 0 -108 -217v-33q0 -12 2 -28q-59 29 -90 67q-23 -39 -23 -74q0 -80 127 -161v-7q0 -75 66 -75h2h14 q37 20 51 47h11q63 0 128.5 21.5t117 58t84 88t32.5 110.5q0 51 -12 87t-47 89q-166 215 -439 215h-30t-31 -2q-96 -18 -96 -79z" />
<glyph unicode="e" horiz-adv-x="548" d="M20 131q0 -59 35 -105t109 -46q45 0 87 14t78 33.5t64.5 40t46.5 34.5q13 9 13 27t-14.5 36.5t-30.5 18.5q-14 0 -31 -1t-29 -3q-88 -8 -137 -18t-55 -10q12 29 23 60.5t20 59.5q2 6 10 7q68 0 123 2t80 4q12 2 16 17t4 26q0 12 -2 26.5t-8 24.5l-27 4h-133q-10 0 -13 6 t-3 12q0 35 8 52.5t14 23.5q6 2 13 2h14q18 0 32.5 1t28.5 1h35q18 0 47 2q12 0 29.5 4.5t33 10.5t26 13t10.5 13q0 23 -22.5 47.5t-35.5 40.5q-29 8 -45 10.5t-28 2.5q-111 0 -182.5 -16.5t-129.5 -20.5q-23 -2 -35 -6t-12 -21q0 -29 36 -47t67 -33l-44 -100q-12 -2 -24 -6 t-23 -8q-4 -10 -6 -17.5t-2 -17.5q0 -14 5 -23.5t10 -23.5q-16 -41 -31 -82t-15 -72z" />
<glyph unicode="f" horiz-adv-x="616" d="M16 598q0 -10 3.5 -21.5t7.5 -19.5q6 -16 22.5 -30.5t52.5 -20.5q-35 -123 -50 -225.5t-15 -165.5q0 -72 16 -97q13 -24 46 -24h3q16 0 32.5 4t39.5 8q2 6 2 12v15q0 31 -5 63.5t-5 67.5q0 16 4 49t18 49q41 12 73 15.5t67 3.5h49h43q25 0 51 4q12 16 16.5 33.5t4.5 31.5 q0 29 -17 47q-18 -4 -35 -4q-14 0 -43 -2l-184 -6q8 76 37 129q66 14 102.5 19.5t63.5 5.5q12 0 34.5 -2t47.5 -2q37 0 67.5 8t30.5 35v4q-2 10 -7 23t-18 24q-10 8 -16 12t-21.5 6t-46 3t-90.5 1q-106 -4 -193 -18.5t-186 -22.5z" />
<glyph unicode="g" horiz-adv-x="667" d="M18 248q0 -129 61.5 -191.5t203.5 -62.5q162 0 252 67.5t90 196.5q0 45 -35 81t-96 36q-31 0 -74 -2t-83 -14.5t-67.5 -36t-27.5 -66.5q0 -20 5 -31.5t27 -17.5q23 39 51.5 58.5t73.5 19.5q12 0 29.5 -1t33 -4.5t26 -10.5t10.5 -19q0 -51 -24.5 -80t-56.5 -44t-66 -19.5 t-52 -4.5q-84 0 -122 36t-38 106q0 59 19.5 106t52.5 83t78 60.5t96 36.5q33 8 55 9q33 0 33 -25q0 -16 -12 -41q28 1 63 19q23 51 23 83q0 88 -135 89q-53 0 -122 -31t-129.5 -86t-101.5 -131t-41 -168z" />
<glyph unicode="h" horiz-adv-x="583" d="M2 397q0 -23 4 -53.5t8 -40.5q8 -23 30 -42t38 -23q0 -6 1 -29t2 -48.5t3 -49t4 -31.5l17 -57q16 -12 33.5 -15.5t35.5 -3.5q35 4 45 9t10 30v29v43q0 25 -1 49t-3 41q35 -4 60.5 -6t48.5 -2q16 0 34.5 1t41.5 3v-13l8 -143q4 -23 28.5 -35t45.5 -12q16 0 43 10 q12 14 14 46t2 55q0 57 -10 106t-13 107l-12 237q-2 37 -3 61.5t-1 38.5q-14 6 -34.5 9.5t-30.5 3.5h-25q-35 -22 -43 -49l4 -48l16 -247q-16 -4 -24 -5t-25 -1h-43t-30.5 2t-26.5 4t-31 6v92q0 86 8.5 130t8.5 62q-10 8 -33 12.5t-37 4.5q-18 0 -37 -6l-27 -15l-14 -241 q-16 4 -40.5 14t-47.5 25q0 -4 -1 -7.5t-1 -7.5z" />
<glyph unicode="i" horiz-adv-x="299" d="M-55 895q0 -31 12 -55.5t35 -53.5q-2 -6 -4 -15t-2 -15q4 -29 17 -51.5t28 -26.5q20 4 29.5 17.5t23.5 29.5q25 -8 55.5 -12t59.5 -4q45 0 106.5 26.5t116.5 69.5t94 96t39 105q0 25 -11.5 43t-27.5 30.5t-32.5 18.5t-28.5 6q-4 0 -5.5 -1t-3.5 -1q-8 29 -51 49t-102 20 q-63 0 -126 -26.5t-112 -67.5t-79.5 -89t-30.5 -93zM33 895q4 53 45 97t108 57q2 -2 2 -9v-2q-16 -14 -36.5 -33.5t-40 -40t-37 -39t-25.5 -30.5q-4 -4 -10 -4q-2 0 -6 4zM86 98q0 -6 3 -21.5t7 -30.5t10.5 -28.5t16.5 -15.5q10 -4 24.5 -7t24.5 -3q35 0 46 20.5t11 42.5 q0 109 -7 220.5t-11 222.5q-4 53 -16.5 79.5t-61.5 28.5q-8 0 -10 -12q-18 -137 -23.5 -212t-7.5 -95q-2 -35 -3 -56.5t-2 -39t-1 -37.5v-56zM141 829q27 37 59.5 74t68.5 65.5t75 46t78 17.5q35 0 41 -13t6 -32q0 -41 -30.5 -73.5t-73.5 -54t-90.5 -33t-79.5 -11.5h-39 q-4 0 -9.5 5t-5.5 9z" />
<glyph unicode="j" horiz-adv-x="397" d="M-72 -229q0 -29 2 -71t14.5 -82t38 -68.5t72.5 -28.5q70 0 102.5 26.5t55.5 79.5q6 8 14.5 34t17.5 80t15 143t6 229q0 8 -1 22.5t-3 32.5q39 37 73 79t56 95q2 4 2 10q0 2 -2 2q-25 -14 -60.5 -36.5t-76.5 -53.5q-6 43 -13.5 89t-18.5 90t-24.5 85t-29.5 72 q-16 -18 -32.5 -38.5t-18.5 -65.5v-349q-78 -78 -133.5 -172t-55.5 -204zM-63 866q0 -31 12 -55.5t35 -52.5q-2 -6 -4.5 -15.5t-2.5 -15.5q4 -29 17.5 -51.5t28.5 -26.5q20 4 29 17.5t24 29.5q25 -8 55.5 -12t58.5 -4q45 0 106.5 26.5t117 69.5t94.5 96.5t39 104.5 q0 25 -11.5 43t-27.5 30.5t-32.5 18.5t-29.5 6q-4 0 -5 -1t-3 -1q-8 29 -51 49.5t-102 20.5q-63 0 -126 -26.5t-112 -67.5t-79.5 -89.5t-30.5 -93.5zM25 866q4 53 45 97.5t108 56.5q2 -2 2 -8v-2q-16 -14 -36.5 -34t-40 -40.5t-37 -38.5t-25.5 -31q-4 -4 -10 -4q-2 0 -6 4z M51 -227q0 53 6 111.5t41 117.5q5 11 19 27q0 -76 -2 -146.5t-6.5 -126t-9.5 -91.5t-11 -38q-12 4 -19.5 19.5t-11.5 37t-5 46t-1 43.5zM133 801q27 37 59.5 73.5t68.5 65.5t75 46.5t78 17.5q35 0 41 -13.5t6 -32.5q0 -41 -31 -73.5t-74 -54t-90 -33t-80 -11.5h-39 q-4 0 -9 5.5t-5 9.5z" />
<glyph unicode="k" horiz-adv-x="610" d="M35 641l4 -211q0 -74 3 -146.5t7 -150.5q-2 -12 -2 -27v-22q0 -49 8 -80q25 -8 54 -8q45 0 73 20l-10 226q39 -47 77 -89t81 -75t92 -53.5t110 -26.5q14 8 24.5 18.5t21.5 20.5q4 20 4 35q0 16 -6.5 30.5t-22.5 24.5q-66 8 -113 37t-78.5 59.5t-48 55t-18.5 28.5 q53 35 93 64.5t72 62.5t56.5 73t46.5 95v2q0 6 -6 16.5t-15.5 21.5t-19.5 18.5t-18 7.5t-10 -6q-51 -74 -89 -119t-72 -73t-72 -44t-89 -33q2 18 2 35v33q0 102 -21 161.5t-53 59.5q-14 0 -28 -12z" />
<glyph unicode="l" horiz-adv-x="436" d="M31 213q0 -35 4 -72t18.5 -67.5t42 -51t72.5 -20.5q33 0 73 19.5t72.5 48t55 63.5t22.5 64q0 8 -3 24.5t-17 16.5q-12 0 -36 -10.5t-44 -18.5q-43 -16 -73 -28.5t-50 -12.5q-8 0 -13 9t-5 22v6q12 94 26 153.5t26.5 102.5t21.5 80t9 86q0 20 -5 29.5t-25 9.5 q-25 -8 -36 -16.5t-20 -22.5q-16 -29 -35.5 -78t-38 -106.5t-30.5 -118t-12 -111.5z" />
<glyph unicode="m" horiz-adv-x="870" d="M23 59q0 -29 11 -47t42 -18q16 0 38.5 14.5t28.5 36.5q8 31 25.5 89.5t34 116.5t32 102t21.5 44t21.5 -45t33 -105.5t34.5 -118.5t28 -85q6 -14 33.5 -24.5t37.5 -10.5h2q10 2 33 7t35 25.5t31.5 77t40 114t37 102.5t22.5 45t15.5 -43t21.5 -101.5t24.5 -119t22.5 -97.5 l19 -18q10 -4 24 -4h14t11 2q31 12 37 33l6 69q0 16 -7.5 52t-17.5 82.5t-22.5 96.5t-24.5 95t-23.5 80t-17.5 49q-10 29 -32.5 55.5t-53.5 26.5q-16 0 -30.5 -9.5t-24.5 -31.5l-111 -309q-20 -57 -24 -58q-4 0 -19 62q-2 8 -17.5 54t-35 100.5t-35.5 103.5t-22 63 q-6 16 -18.5 29.5t-31.5 13.5q-20 0 -34.5 -12t-24.5 -22q-14 -16 -43 -82t-59.5 -148t-55 -164t-30.5 -131q-2 -10 -2 -20v-17z" />
<glyph unicode="n" horiz-adv-x="577" d="M31 125q0 -16 3 -40t10 -46.5t20.5 -37.5t33.5 -15q14 0 23.5 9t15.5 22.5t9.5 26.5t5.5 24q4 20 6 61t4 83t4 76t4 42q6 20 12 20t18.5 -24.5t31 -61.5t40 -79t45 -78.5t50 -61.5t51.5 -25q33 0 57.5 21.5t42 56.5t26.5 77t9 83q0 92 -22.5 169t-54.5 133t-63.5 87 t-50.5 31q-12 0 -15 -13.5t-3 -23.5v-6l6 -23q16 -61 30.5 -105t25 -84t16.5 -83t6 -104q0 -45 -10 -46q-2 0 -12 15q-35 43 -72 101.5t-71 110.5t-62.5 89t-48.5 37q-29 0 -51.5 -52.5t-38 -122t-23.5 -139t-8 -104.5z" />
<glyph unicode="o" horiz-adv-x="673" d="M20 297q0 -53 16.5 -111.5t55.5 -119.5v-9q0 -23 12.5 -51.5t38.5 -62.5q16 12 28.5 25.5t18.5 31.5q82 2 165 29.5t148.5 78t107.5 119t42 154.5q0 39 -14 85t-37 60q-29 18 -60.5 25.5t-64.5 7.5q-39 0 -88 -16q-78 -23 -138.5 -109t-121.5 -246q-12 33 -12 70 q0 43 13 88t42 84t71 69.5t101 45.5q29 10 60.5 17t60.5 9q12 0 28.5 4.5t16.5 14.5q0 12 -43 31q-39 16 -96 16q-68 0 -131.5 -25.5t-111.5 -71.5t-78 -107.5t-30 -135.5zM242 145q51 143 107 228.5t134 85.5q35 0 56.5 -16.5t21.5 -49.5q0 -49 -30.5 -94t-75.5 -79 t-94.5 -54.5t-86.5 -20.5h-32z" />
<glyph unicode="p" horiz-adv-x="677" d="M23 127q0 -33 20 -40t43 -17l49 -23q0 -80 -1 -132t-1 -105q0 -55 1 -97.5t7 -70.5q27 -29 58 -29q16 0 26.5 6t26.5 23q10 66 13 163t5 203q29 -4 44.5 -6t39.5 -2q59 0 112.5 18.5t93.5 52t63.5 83t23.5 112.5q0 186 -108.5 285.5t-313.5 99.5q-82 0 -133 -35 q-37 -43 -37 -61q0 -12 13 -12h4q35 8 58.5 12t47.5 4h19q10 0 20 -2q-23 -41 -37 -91t-22 -101.5t-12.5 -99.5t-6.5 -85l-96 35q-20 -47 -20 -88zM262 551q72 -18 119 -48t75.5 -65t41 -72.5t12.5 -72.5q0 -66 -32 -109t-97 -43q-31 0 -50.5 2t-54.5 9q0 113 -5 205t-9 194 z" />
<glyph unicode="q" horiz-adv-x="702" d="M23 297q0 -96 30.5 -156.5t85 -94.5t126 -47t153.5 -15q2 -82 12 -164t30.5 -148.5t56.5 -107.5t91 -41q23 0 23 31q0 35 -19.5 87t-25.5 87q-8 43 -15.5 76.5t-12.5 66.5t-9 65.5t-6 75.5q43 29 68.5 67t39 80t17.5 86t4 87q0 29 -3 63.5t-13.5 64t-31 50t-55.5 20.5 q-53 0 -83.5 -28.5t-48 -75.5t-22.5 -106.5t-5 -122.5q0 -14 2 -35t2 -49q-55 0 -103.5 6t-84.5 25.5t-55 55.5t-19 97q0 72 32.5 122t90 80.5t131 45t157.5 14.5q14 0 29.5 -2t40.5 -12q4 6 4 18t-6 22.5t-13 18.5q-18 23 -53 37t-78 14q-96 0 -181 -17t-147.5 -58 t-99 -110t-36.5 -173zM539 127v131q0 66 6 121t35 72q20 -47 20 -142q0 -53 -8 -87t-31 -70q-6 -10 -11 -14.5t-11 -10.5z" />
<glyph unicode="r" horiz-adv-x="643" d="M10 86q0 -41 30 -65.5t58 -24.5q18 0 31.5 11t17.5 34q10 115 19.5 228.5t38.5 232.5q0 16 -14.5 24.5t-34.5 8.5q-25 0 -48.5 -10.5t-27.5 -30.5q-18 -59 -31.5 -107.5t-22 -95.5t-12.5 -96.5t-4 -108.5zM59 575q0 -22 35 -38q23 2 48.5 12t54.5 10q33 0 75.5 -6 t81.5 -23.5t65.5 -50.5t26.5 -88q0 -39 -40 -86q-51 23 -119 23q-35 0 -70 -21.5t-35 -48.5q0 -41 28 -68.5t73 -27.5q53 0 102 14q27 -33 55.5 -70.5t53 -70.5t41 -56.5t18.5 -25.5q8 -8 18 -8q18 0 38 18.5t20 46.5q0 18 -8 33q-29 49 -57.5 99.5t-63.5 90.5 q37 29 59.5 67t22.5 85q0 135 -93.5 208t-261.5 73q-18 0 -46.5 -8.5t-55.5 -20.5t-46.5 -28.5t-19.5 -33.5zM303 262q8 0 31 -26q-16 -10 -33 -17.5t-27 -7.5q-24 0 -24 29q0 22 53 22z" />
<glyph unicode="s" horiz-adv-x="669" d="M20 420q0 -29 7.5 -47.5t33 -30.5t72.5 -18.5t127 -8.5q29 0 75 -6t90 -17t75.5 -28.5t31.5 -42.5t-39.5 -43t-91 -30.5t-98.5 -17.5t-59 -5q-25 0 -51.5 1t-48 5t-36 13.5t-14.5 25.5q0 31 18.5 39t39.5 8q27 0 53 -7t52 -15.5t49.5 -15.5t43.5 -7q35 0 64.5 13.5 t40.5 23.5q4 4 4 10q0 4 -4 8q-57 29 -121 43.5t-117 14.5q-29 0 -58.5 -5.5t-54 -18.5t-40 -35.5t-15.5 -55.5q0 -29 24.5 -59.5t64.5 -56t93.5 -42t112.5 -16.5q23 0 69 5t93 25.5t83 62.5t36 116q0 66 -31 101.5t-78 53t-101.5 21.5t-101.5 8q-55 4 -96 11.5t-94 27.5 q-4 0 -4 4q0 2 4 6q14 10 36.5 15.5t67.5 13.5q23 4 66 7t90 6t90 6t68 8q10 2 30.5 5t30.5 7q16 4 27.5 14t13.5 27q0 16 -5 21t-15 7q-47 10 -106.5 20.5t-129.5 10.5q-4 0 -32.5 -2t-69.5 -8t-87 -18.5t-86 -33t-66 -51t-26 -73.5z" />
<glyph unicode="t" horiz-adv-x="575" d="M27 594q0 -98 180 -170q-23 -70 -41.5 -161t-18.5 -204q0 -41 5.5 -91t27.5 -85q10 -16 36 -36.5t50 -20.5q20 0 28.5 4t20.5 14q-2 43 -3 91.5t-1 99.5q0 86 6.5 177t28.5 177h10q23 0 58 4t66.5 16.5t55 36t23.5 60.5q0 47 -12 75.5t-30.5 43t-39 18.5t-39.5 4 q-31 0 -56.5 -12t-46 -29.5t-35.5 -35t-28 -27.5q-53 8 -99 22.5t-91 50.5q-4 4 -5 13.5t-1 17.5q0 10 -3 17.5t-12 7.5q-20 -8 -27 -35t-7 -43zM383 530q2 33 28.5 50.5t53.5 17.5q12 0 19.5 -9t7.5 -20q0 -16 -30 -29.5t-50 -13.5q-13 0 -29 4z" />
<glyph unicode="u" horiz-adv-x="600" d="M31 238v-6q0 -71 22 -152q39 -78 142 -80h2q25 0 59.5 13.5t69 42t64.5 73.5t48 109l8 -72q4 -27 6.5 -52.5t2.5 -50.5q0 -35 22 -63q12 -4 22.5 -6t20.5 -2q57 0 58 76v18l-9 88q-8 61 -25.5 140t-62.5 200q-16 43 -30 43q-23 0 -56 -82q-31 -78 -48 -142.5 t-33.5 -111.5t-37 -72.5t-59.5 -25.5q-35 0 -46 25.5t-11 68.5q0 16 2 36.5t6 43.5q14 86 36.5 170t49.5 170q-6 37 -27 37q-10 0 -24 -10q-172 -209 -172 -426z" />
<glyph unicode="v" horiz-adv-x="614" d="M12 528q10 -25 32 -78t43.5 -111t39.5 -109.5t25 -71.5l41 -146q37 -10 65 -10q47 0 88 21q14 16 23.5 34.5t17.5 36.5l162 363q23 47 31 71.5t8 51.5q0 16 -26.5 34.5t-45.5 18.5q-6 0 -8 -2q-18 -10 -30.5 -34t-28.5 -56l-168 -365q-8 10 -11.5 19.5t-5.5 15.5l-88 289 q-16 41 -30 73.5t-29 55.5h-64q-41 -37 -41 -88v-13z" />
<glyph unicode="w" horiz-adv-x="774" d="M20 219q0 -82 45.5 -130t122.5 -48q16 0 34 2t36 6q27 -47 76 -56t96 -9q86 0 146.5 30.5t99.5 83t57.5 120t18.5 142.5q0 84 -22.5 162t-80 123t-80 53.5t-39.5 8.5h-14q-8 -6 -8 -27v-12q66 -61 94.5 -126t28.5 -139q0 -41 -13.5 -95t-38 -103t-62.5 -84t-87 -35 q-27 0 -53 18q66 47 101.5 106.5t35.5 133.5q0 51 -26.5 90t-79.5 39q-45 0 -81 -19.5t-60.5 -50t-38 -70.5t-13.5 -79q0 -31 6 -66.5t17 -68.5q-2 -2 -21 -2q-47 0 -61.5 35.5t-14.5 68.5q0 55 17.5 107.5t46 98.5t64.5 87t73 76l2 28q0 18 -8 21q-16 4 -29 4 q-25 0 -73 -35t-96 -93t-83 -135t-35 -161zM326 276q0 43 18 67t41 36q18 -18 18 -45q0 -16 -5 -38t-14 -43.5t-20.5 -38.5t-25.5 -24q-4 16 -8 45t-4 41z" />
<glyph unicode="x" horiz-adv-x="604" d="M41 578q0 -20 8 -35q18 -35 32.5 -62.5t30 -52.5t34 -51.5t42.5 -59.5q-35 -68 -64.5 -140.5t-47.5 -141.5q-4 -12 -6 -27.5t-2 -32.5q0 -16 3 -27t13 -11q27 0 60.5 15t48.5 60q10 29 29.5 83.5t45.5 113.5l119 -156q6 -10 21.5 -25.5t32 -30.5t30.5 -26.5t21 -11.5 q41 0 60 40t19 95q0 47 -12 90q-10 -35 -20.5 -50t-32.5 -15q-20 0 -44 24.5t-46.5 59.5t-44 72.5t-37.5 62.5q20 37 38.5 64.5t41.5 48.5q25 20 47 37.5t43 17.5q18 0 28 -17q-4 37 -10 59.5t-14 33t-18.5 13.5t-22.5 3q-51 0 -121 -61q-41 -35 -80 -91l-71 129 q-18 39 -41 62q-57 0 -105 -29q-8 -10 -8 -30z" />
<glyph unicode="y" horiz-adv-x="638" d="M-66 -356q0 -57 33 -97.5t86 -46.5l6 15q18 76 35 151.5t37 149.5q4 14 8 28.5t10.5 35t16.5 49t24 71.5q10 2 19.5 3t19.5 1q45 0 111 26.5t127 75t104 114t43 145.5q0 27 -5 64.5t-18 72.5t-36 59.5t-57 24.5q-35 0 -82 -35t-97.5 -86t-96.5 -107.5t-79 -99.5 q-6 -8 -8 -8h-2q-4 4 -5 10t-1 12q0 47 23.5 97.5t46.5 85.5q20 31 35.5 52t24.5 36.5t13 28t4 26.5q0 23 -5 34t-23 15q-14 -2 -49 -40t-72 -96t-65.5 -129t-28.5 -140q0 -61 32 -131q-37 -90 -62.5 -169t-39.5 -141.5t-20.5 -103.5t-6.5 -53zM279 158q4 12 18 39.5 t30.5 58.5t32 57.5t23.5 36.5q10 12 26.5 31.5t35 38t35 32t28.5 13.5q16 0 19 -17.5t3 -31.5q0 -111 -75 -176q-82 -72 -176 -82z" />
<glyph unicode="z" horiz-adv-x="585" d="M23 598q0 -37 27.5 -61.5t67.5 -38t84 -19.5t77 -6q18 0 40.5 4t45.5 10q-33 -51 -73 -96t-82 -89l-84 -88t-79 -91q-18 -23 -18 -47q0 -23 14 -40.5t43 -21.5q43 -6 82 -6q45 0 90 6.5t92 10.5q27 4 51.5 6t51.5 2h18q10 0 21 -2h4q35 0 51 21.5t16 45.5 q0 23 -15.5 42.5t-47.5 21.5q-12 2 -25 2h-22q-55 0 -108.5 -8.5t-108.5 -12.5q45 45 93 90.5t89 94.5t69.5 104t36.5 121l-4 33q-4 27 -21.5 41t-39.5 14q-16 0 -31 -6q-41 -20 -76 -27.5t-69 -7.5q-61 0 -122 15.5t-132 19.5q-6 -18 -6 -37z" />
<glyph unicode="{" horiz-adv-x="299" d="M86 98q0 -6 3 -21.5t7 -30.5t10.5 -28.5t16.5 -15.5q10 -4 24.5 -7t24.5 -3q35 0 46 20.5t11 42.5q0 109 -7 220.5t-11 222.5q-4 53 -16.5 79.5t-61.5 28.5q-8 0 -10 -12q-18 -137 -23.5 -212t-7.5 -95q-2 -35 -3 -56.5t-2 -39t-1 -37.5v-56z" />
<glyph unicode="|" horiz-adv-x="389" d="M82 1485l22 -256q4 -115 8.5 -288t4.5 -366q0 -174 -3 -345t-14 -316q-2 -4 -2 -10t2 -10.5t4 -8.5q14 -16 60 -16q29 0 57.5 7t45 19.5t18.5 28.5q-4 184 -7.5 338l-6.5 286t-5 248.5t-2 225.5q0 115 3 224.5t9 228.5q4 4 5 4q0 2 -5 6q-10 16 -43.5 24.5t-68.5 8.5 q-23 0 -41.5 -3.5t-28.5 -11.5q-4 -4 -6 -9t-6 -9z" />
<glyph unicode="}" horiz-adv-x="321" d="M-51 -229q0 -29 2 -71t14 -82t38 -68.5t73 -28.5q70 0 102.5 26.5t54.5 79.5q6 8 13.5 34t14.5 80t14.5 143t11.5 229v6q0 10 -1 22.5t-1 28.5q41 39 74.5 84t54.5 102q-23 -14 -59 -37.5t-81 -56.5q-4 43 -11 89t-18.5 91t-24.5 86t-32 72q-16 -18 -32.5 -38.5 t-18.5 -65.5v-351q-78 -76 -133 -170t-55 -204zM74 -211q0 47 7 103.5t38 109.5q4 11 18 27q0 -76 -2 -146.5t-6 -126t-9 -91.5t-11 -38q-18 10 -26.5 47t-8.5 115z" />
<glyph unicode="~" horiz-adv-x="993" d="M25 662q0 -23 19 -46.5t54 -46.5q33 72 68 110t104 38q53 0 205 -78q143 -76 254 -76q82 0 123 41t119 150l2 12q0 33 -23.5 54.5t-52.5 31.5q2 -4 2 -14q0 -23 -19.5 -46.5t-47 -43t-59.5 -31.5t-56 -12q-49 0 -207 90q-158 92 -229 92q-92 0 -148.5 -60.5 t-107.5 -158.5v-6z" />
<glyph unicode="&#xa1;" horiz-adv-x="348" d="M61 82q12 -29 44 -45.5t67 -26.5q27 4 38 15.5t19 27.5q16 61 22.5 93t6.5 61q-2 45 -2 82v69q0 66 1 112t1 87q0 49 -2 102.5t-2 122.5v162l-6 131q-4 14 -17.5 22.5t-21.5 14.5q-20 -10 -41 -17.5t-27 -35.5q2 -55 2 -105v-92q0 -113 -2 -190.5t-6 -139.5 q-4 -82 -15 -163.5t-32 -167.5zM106 1272q0 -37 27 -63.5t62 -26.5q41 0 66.5 27.5t25.5 68.5q0 35 -29 58.5t-65 23.5q-35 0 -61 -26.5t-26 -61.5z" />
<glyph unicode="&#xa2;" horiz-adv-x="620" d="M31 600q0 -227 233 -246v-121q4 -10 12.5 -22t22.5 -23q10 -4 23 -4h22h21q10 0 20 4q20 18 21 54q0 29 -1.5 58.5t-3.5 57.5q33 2 67 9.5t60.5 17.5t43 27.5t18.5 42.5v6q0 31 -29 53h-57q-31 -10 -57.5 -19.5t-49.5 -17.5v4q0 14 -1 56.5t-2 98.5t-2 119.5t-1 123.5 l27 8q37 -57 92 -58q27 0 63 17q8 31 9 55q0 20 -4.5 28.5t-16.5 31.5q-8 14 -23.5 22t-34 12t-38 5t-33.5 1l-43 -2q-2 25 -2 43v29q-2 31 -2 47q0 18 -8 29q-27 33 -68 33l-10 -9q-4 -37 -8 -87t-8 -109q-59 -25 -106.5 -65t-80.5 -89t-49 -106.5t-16 -114.5zM166 596 q0 78 32.5 142.5t77.5 99.5q-2 -68 -4 -130.5t-3 -113.5t-1 -84v-37v-2q-59 10 -80.5 44t-21.5 81z" />
<glyph unicode="&#xa3;" horiz-adv-x="1089" d="M33 133q0 -61 34.5 -95t86.5 -34q78 0 130 47t87 135q35 -18 75.5 -49t81.5 -65.5t83 -67.5t81 -55q25 -16 55 -22.5t44 -6.5q31 0 56 6t25 23q0 8 -10 24q-41 53 -95 100.5t-114.5 88.5t-122 73.5t-114.5 59.5q23 72 42 141.5t36 141.5q39 6 79.5 11t88.5 5 q29 0 59.5 -3t64.5 -7q14 6 21.5 32.5t7.5 55.5q0 35 -10 49q-10 8 -37 8l-23 -2q-76 -2 -129 -8t-98 -12q8 55 12.5 111t8.5 112q2 74 7 121t17 72.5t33.5 34.5t58.5 9q16 0 40 -9t48.5 -22.5t45 -27.5t32.5 -27q12 8 13 29q0 16 -8.5 37.5t-20.5 43t-27.5 39t-32.5 27.5 q-10 6 -32.5 14.5t-49 16.5t-52 14.5t-40.5 6.5q-47 0 -83.5 -12.5t-67.5 -71.5q-12 -23 -16.5 -66t-4.5 -92l9 -182v-21q0 -10 -2 -20q-4 -53 -5 -86q0 -33 -2 -62h-34q-25 0 -51.5 3t-80.5 20q-23 4 -30.5 6t-7.5 8v4q-27 -4 -42.5 -24.5t-15.5 -42.5q0 -23 17.5 -45.5 t58.5 -34.5q43 -12 68.5 -16.5t48.5 -4.5l57 2q-10 -68 -23.5 -133t-31.5 -119q-27 8 -57.5 14.5t-81.5 6.5q-29 0 -58 -17.5t-51.5 -46t-36.5 -66.5t-14 -77zM115 143q0 47 32.5 76t61.5 29q16 0 39.5 -4.5t52.5 -24.5q-23 -78 -65.5 -108.5t-75.5 -30.5q-23 0 -34 18.5 t-11 44.5z" />
<glyph unicode="&#xa4;" horiz-adv-x="1073" d="M29 227l77 -77l115 112q131 -113 316 -112q184 0 315 112l115 -112l77 77l-110 111q59 68 84.5 147.5t25.5 171.5t-27.5 174t-82.5 146l110 110l-77 78l-115 -112q-131 113 -315 112q-184 0 -316 -112l-115 112l-77 -78l110 -110q-59 -68 -84.5 -147.5t-25.5 -172.5 q0 -92 27.5 -174t82.5 -145zM143 657q0 80 31 154t84 130t125 89t154 33q78 0 149.5 -33t125.5 -88t86 -129t32 -156v-14q0 -78 -32 -149.5t-86 -125t-126 -85t-149 -31.5q-84 0 -156 32.5t-125 88t-83 129t-30 155.5z" />
<glyph unicode="&#xa5;" horiz-adv-x="739" d="M-94 164q0 -27 17.5 -52.5t58.5 -37.5q63 -20 123.5 -28.5t119.5 -8.5q-16 -80 -24 -141.5t-8 -90.5q0 -20 13 -40.5t32.5 -39t43 -33t44.5 -20.5q14 2 25 12.5t19.5 25t12.5 28.5t4 24q0 72 5 142.5t16 140.5q59 6 119.5 11t119.5 5q35 0 69 -2t68 -8q16 8 23.5 40 t7.5 65q0 39 -8 53q-10 8 -35 8h-14q-7 0 -13 -2q-84 -2 -160.5 -10t-152.5 -15q6 33 12.5 65t14.5 64q51 4 102 8.5t103 4.5q35 0 68.5 -2t68.5 -8q16 8 23 39.5t7 64.5q0 39 -8 53q-10 8 -35 8q-16 0 -24 -2l-39 -2q96 102 144.5 250t48.5 307q0 43 -2.5 100.5t-14.5 110 t-37.5 89t-70.5 36.5q-59 0 -112.5 -49t-101 -126t-87 -169t-69.5 -177t-48.5 -150.5t-24.5 -90.5l-22 -94q-31 4 -51.5 24.5t-33 47t-17.5 54.5t-5 50q0 160 52.5 300.5t127.5 273.5q8 14 21.5 36.5t26 46t20.5 47t8 40.5q0 41 -33 41q-8 0 -14 -6.5t-18 -16.5 q-70 -76 -131.5 -164t-108.5 -184t-74.5 -200.5t-27.5 -211.5q0 -61 18 -123.5t64 -113.5q-31 4 -63 11t-64 17q-20 6 -28.5 8.5t-8.5 10.5v6q-27 -6 -42.5 -28.5t-15.5 -51.5q0 -27 16.5 -52.5t57.5 -37.5q66 -23 128.5 -30t123.5 -7h27q-8 -31 -14.5 -62.5t-14.5 -64.5 q-61 2 -123.5 10.5t-128.5 28.5q-23 6 -30 8t-7 11v6q-27 -6 -43 -28.5t-16 -51.5zM500 506q6 43 27.5 133t54 191.5t75.5 193.5t93 137l12 8q6 -16 12 -44.5t6 -57.5q0 -84 -16 -172t-51 -165t-88.5 -136t-124.5 -88z" />
<glyph unicode="&#xa6;" horiz-adv-x="266" d="M45 33q0 -16 7 -28.5t11 -27.5q39 -37 105 -36q29 16 38 36.5t9 55.5v8t-1 39t-4 101.5t-7 195.5l-4 205q-2 10 -35 10q-29 0 -65 -5t-48 -5h-4q-2 -147 -2 -295v-254zM47 739q0 -10 15.5 -15t37.5 -5q23 0 49.5 5t47.5 15l-11 555q0 35 -3 62.5t-7 50.5q-31 37 -65 51 q-10 -4 -21.5 -5t-21.5 -11q-10 -33 -13.5 -86t-3.5 -111v-119z" />
<glyph unicode="&#xa7;" horiz-adv-x="794" d="M20 418q0 -76 42 -120t106.5 -72.5t138.5 -49t138.5 -48.5t106.5 -70t42 -111q0 -35 -19.5 -59.5t-51 -40t-74.5 -23.5t-93 -8q-31 0 -65.5 2t-63 8t-47 15t-18.5 24q0 14 17.5 34.5t29.5 39.5l2 6q0 2 -4 6q-39 -6 -61.5 -13.5t-55.5 -25.5q-29 -16 -43 -43t-14 -57 q0 -35 42 -59.5t96 -40t108.5 -22.5t78.5 -7q76 0 143.5 21.5t119 61t81 99t29.5 133.5q0 117 -94 174l-33 14q82 98 125 182.5t43 161.5q0 78 -43 138.5t-147 107.5q-104 51 -217 103q-111 51 -140 79q-25 27 -24 58q0 37 23.5 61.5t54 37.5t62.5 19.5t50 6.5 q59 0 116.5 -34t80.5 -85q20 -49 37 -49q6 0 18 3t35 15q57 45 57 99l-12 32q-8 20 -21.5 44t-43 43.5t-80 32.5t-129.5 13q-66 0 -130.5 -16t-115.5 -49t-84 -81t-33 -112q0 -137 141 -227q-37 -25 -73.5 -65.5t-66.5 -88t-48.5 -99.5t-18.5 -99zM160 444q0 39 21.5 82 t52 81t66.5 68t67 44l149 -68q68 -31 98.5 -67.5t30.5 -79.5q0 -35 -17.5 -71t-42 -70.5t-52 -66.5t-48.5 -56l-4 -4q-74 12 -133 35.5t-101 52t-64.5 59.5t-22.5 61z" />
<glyph unicode="&#xa8;" horiz-adv-x="690" d="M113 1634q0 -35 28.5 -58.5t65.5 -23.5q35 0 60.5 27t25.5 61q0 37 -26.5 64t-61.5 27q-41 0 -66.5 -28t-25.5 -69zM408 1640q0 -35 28.5 -58t65.5 -23q35 0 60.5 26.5t25.5 61.5q0 37 -26.5 63.5t-61.5 26.5q-41 0 -66.5 -28t-25.5 -69z" />
<glyph unicode="&#xa9;" horiz-adv-x="1413" d="M20 934q0 -287 201 -487.5t486 -200.5q287 0 487 200q199 199 199 488q0 285 -201 485.5t-485 200.5q-287 0 -488 -201q-199 -199 -199 -485zM98 934q0 252 178 428q180 178 431 178q252 0 430 -178t178 -428q0 -254 -180 -432q-182 -176 -428 -176q-252 0 -430.5 178 t-178.5 430zM334 918q0 -129 67 -234q70 -104 152 -125q82 -23 104 -24q6 -2 25 -3h37q51 0 92 10.5t75 30t64.5 46t63.5 59.5l-23 37l-24 -21q-66 -55 -119 -71q-45 -14 -152 -15q-111 0 -172 90q-61 88 -61 217q0 74 20 136q10 35 29.5 68.5t46.5 68.5q59 72 172 72 q20 0 51 -6.5t70 -24.5q41 -16 73.5 -71.5t43.5 -104.5h41l-9 256h-38q-6 -33 -48 -33q-8 0 -16 1t-18 3q-18 6 -65.5 19.5t-108.5 13.5q-49 0 -106.5 -17.5t-125.5 -64.5q-66 -47 -103.5 -130t-37.5 -183z" />
<glyph unicode="&#xad;" horiz-adv-x="688" d="M72 514q0 -27 10 -52.5t33 -37.5q39 -23 75.5 -30t73.5 -7l240 25q20 0 40.5 -2t41.5 -9q10 8 14 40t4 65q0 37 -6 53q-6 8 -20 8q-11 0 -15 -2q-74 -2 -142.5 -17.5t-137.5 -15.5q-39 0 -77 7.5t-79 29.5q-12 6 -17.5 8.5t-5.5 10.5v6q-16 -6 -24 -28.5t-8 -51.5z" />
<glyph unicode="&#xae;" horiz-adv-x="1413" d="M20 938q0 -143 53.5 -268t146.5 -218.5t218 -146.5t269 -53q135 0 259 52t219 143.5t151.5 212.5t56.5 258v40q0 137 -56.5 258t-151.5 212.5t-219 143.5t-259 52q-139 0 -264.5 -55.5t-218.5 -148.5t-148.5 -218t-55.5 -264zM98 936q0 125 48.5 235.5t131 193.5 t192.5 131t235 48q119 0 228 -46t194 -125t136.5 -185.5t51.5 -229.5v-43q0 -121 -51.5 -227t-136.5 -186t-194.5 -126t-225.5 -46q-125 0 -236 48t-193.5 131t-131 192.5t-48.5 234.5zM379 592h317v35q-37 0 -65.5 13t-28.5 44v260h53l265 -352h188v35q-31 0 -46 7t-26 21 l-237 308q86 4 141 55t59 143q0 33 -13 70t-54 65q-47 33 -91 42.5t-120 9.5h-334v-35q31 0 49.5 -1t26.5 -7.5t10 -18.5t2 -33v-573q0 -29 -26.5 -41t-69.5 -12v-35zM600 1266q0 18 13.5 29.5t29.5 11.5l105 -9q37 0 73.5 -28.5t42.5 -98.5q2 -4 2 -24q0 -100 -75 -127 q-31 -12 -50.5 -18.5t-33 -9.5t-23.5 -3h-18h-64z" />
<glyph unicode="&#xaf;" horiz-adv-x="688" d="M63 1591q0 -27 11.5 -48t40.5 -25q37 -6 70.5 -8.5t66.5 -2.5q76 0 141.5 7.5t134.5 7.5h27q14 0 31 -2q10 8 14 35.5t4 56.5q0 33 -6 49q-6 8 -20 8q-11 0 -15 -2q-90 -6 -163.5 -14t-153.5 -8q-55 0 -119 6q-29 2 -31 14q-14 -6 -23.5 -27.5t-9.5 -46.5z" />
<glyph unicode="&#xb0;" horiz-adv-x="677" d="M55 1153q0 -119 72 -195.5t217 -76.5q51 0 102.5 20.5t92.5 56t66.5 86t25.5 109.5q0 53 -17.5 108.5t-48 99.5t-73.5 72.5t-95 28.5q-18 0 -43.5 -3t-44.5 -15q-82 -10 -131 -43t-76.5 -76t-37 -89t-9.5 -83zM139 1171q0 47 9.5 78t27 51.5t40 34t50.5 25.5q8 4 17 18 q-6 -14 -9.5 -21t-5.5 -13.5t-4 -16.5t-4 -31l90 74q4 4 15.5 8t31.5 4q29 0 56.5 -16t49 -44t35 -65.5t13.5 -80.5t-20.5 -80t-52.5 -66t-69.5 -45t-72.5 -16q-92 0 -144.5 56t-52.5 146z" />
<glyph unicode="&#xb1;" horiz-adv-x="866" d="M53 801q0 -27 13.5 -52.5t46.5 -37.5q53 -23 103 -30t99 -7h25q0 -59 4 -117.5t18 -124.5q6 -23 29 -29q14 -6 36 -11t44 -5q20 0 33.5 7t13.5 26q0 4 -4 20q-18 59 -25.5 112.5t-7.5 106.5v27q41 4 80 8t80 4q29 0 54.5 -2t54.5 -8q12 8 18 40t6 65q0 37 -6 53 q-8 8 -29 8q-14 0 -20 -2h-2q-59 -2 -114.5 -8t-110.5 -15q4 41 6 82t2 86v37q0 18 -2 37v2q0 10 -13.5 12t-29.5 2h-29q-20 0 -49 -4t-33 -14q2 -31 3 -59.5t1 -57.5q0 -35 -1 -68.5t-3 -66.5q-53 0 -106.5 8.5t-108.5 30.5q-18 6 -24.5 9t-6.5 12v4q-20 -6 -32.5 -29 t-12.5 -51zM84 285q0 -27 12.5 -52.5t40.5 -37.5q47 -23 92 -30t90 -7l291 24q25 0 49.5 -2t51.5 -8q10 8 15 40t5 62q0 39 -6 56q-6 8 -25 8q-12 0 -18 -2q-92 -2 -174 -17.5t-168 -15.5q-47 0 -93 7t-95 30q-14 6 -20.5 8t-6.5 10v7q-18 -6 -29.5 -29t-11.5 -51z" />
<glyph unicode="&#xb4;" horiz-adv-x="483" d="M6 1610q4 -33 16.5 -62.5t53.5 -29.5q80 37 138 66.5t98 49t67 29.5t45 10q25 0 38 19.5t13 46.5q0 33 -20.5 62.5t-63.5 29.5q-6 0 -22.5 -3t-47 -17.5t-76.5 -47t-112 -90.5q-35 -33 -59.5 -48t-53.5 -15h-14z" />
<glyph unicode="&#xb7;" horiz-adv-x="370" d="M23 741q0 -63 50 -107t117 -44q63 0 110.5 49t47.5 113q0 68 -48 114.5t-114 46.5q-72 0 -117.5 -50t-45.5 -122z" />
<glyph unicode="&#xb8;" horiz-adv-x="350" d="M2 -332q0 -33 23 -55q29 -31 72.5 -49.5t88.5 -18.5q49 0 89 24.5t53 82.5q4 10 4 20v21q0 61 -34 116.5t-75 100.5q18 20 35.5 39.5t24.5 46.5q-4 23 -34 34t-59 11q-22 0 -36 -6q-16 -29 -32 -44.5t-38 -37.5q-18 -18 -18 -47q0 -27 18 -45q14 -16 34.5 -35t37 -39 t29 -43t12.5 -45q0 -8 -4 -25q-23 -6 -46 -6q-35 0 -63.5 17.5t-32.5 60.5q-20 -10 -34.5 -30.5t-14.5 -47.5z" />
<glyph unicode="&#xba;" horiz-adv-x="1820" d="M57 1108q0 -70 21.5 -128t61.5 -101t96.5 -68t123.5 -25q61 0 119 30t102 78t69.5 107.5t25.5 118.5q0 164 -88 238t-240 74q-66 0 -119 -28t-92 -74t-59.5 -104.5t-20.5 -117.5zM141 1096q0 47 19.5 93t52.5 81q10 12 31 32l20 19h15v-45h12q51 70 129 70 q39 0 70.5 -19.5t53 -50.5t33 -69t11.5 -72q0 -43 -20.5 -88.5t-53.5 -80t-75 -57t-87 -22.5q-92 0 -151.5 56.5t-59.5 152.5zM438 446q0 -92 39 -174t103.5 -143t148.5 -97t174 -36q98 0 185.5 40t152 106.5t102 153.5t37.5 183q0 88 -34.5 171t-95 146.5t-140.5 101.5 t-170 38q-98 0 -188 -36t-160 -98.5t-112 -147.5t-42 -185v-23zM528 496q0 90 45 163.5t117 120.5q6 6 27 6q10 0 16 -6t19 -6h10q4 4 20.5 16.5t24.5 16.5h22q78 0 144.5 -44t118.5 -99h10q0 31 -13.5 53t-29 40.5t-28.5 33t-13 30.5q55 -8 102 -40.5t81 -79t53.5 -99.5 t19.5 -104q0 -78 -27.5 -146.5t-77 -121t-116 -82t-146.5 -29.5q-76 0 -144.5 30.5t-120.5 83t-83 120t-31 143.5zM1130 1106q0 -68 26 -124t70 -98t103.5 -65.5t124.5 -23.5q66 0 125 24.5t103 67.5t70 101.5t26 125.5q0 55 -23.5 116.5t-65.5 113t-100.5 85t-130.5 33.5 q-86 0 -166 -47t-116 -127q0 -2 -2.5 -12t-4.5 -20.5t-4 -20.5t-2 -12q-4 -16 -16 -26.5t-17 -31.5v-59zM1163 1159l68 -39q4 0 10 1t6 7v5q0 4 -5 13t-7 13v84q35 59 81 91t105 32q57 0 104.5 -22.5t80 -59.5t50 -85t17.5 -99q0 -47 -18.5 -85t-49 -64.5t-69.5 -42 t-80 -15.5q-61 0 -114.5 29.5t-93.5 70.5t-62.5 87t-22.5 79z" />
<glyph unicode="&#xbb;" horiz-adv-x="1378" d="M-37 401q0 -18 12.5 -28.5t31 -16.5t39 -7t38.5 -1q51 0 90 14l-104 -360q-2 -6 -2 -14q0 -16 8 -29.5t24 -13.5h76q29 0 53.5 6t32.5 35l123 399q4 18 17.5 31.5t23.5 19.5q23 16 51.5 25.5t61.5 19.5l589 117q12 0 17.5 -16.5t7.5 -32.5q2 -20 6 -53l8 -66t7.5 -60.5 t3.5 -39.5v-248l-4 -76q0 -29 9 -50.5t42 -21.5q27 0 45 11q31 12 48 42.5t26.5 70.5t11.5 86t2 94v73q0 94 -14.5 190.5t-36 182.5t-45 158.5t-41.5 120.5l-146 397q-20 53 -78.5 81.5t-117.5 28.5q-18 0 -36 -2t-34 -16q-61 -55 -133 -150.5t-145.5 -212t-143.5 -242.5 t-125 -243l-37 -10q-29 -12 -74 -27.5t-86.5 -38t-71.5 -53.5t-30 -74zM496 651q74 158 126 260.5t91 171t67.5 114.5t55.5 89q9 27 34 27q10 0 14.5 -5t10.5 -14q37 -49 73 -129t63.5 -159.5t45 -143t19.5 -82.5l-510 -114q-20 -6 -38 -10.5t-36 -4.5h-16z" />
<glyph unicode="&#xbc;" horiz-adv-x="1427" d="M29 471q0 -84 7 -163t29.5 -149.5t63.5 -131t109 -105.5h8t4 4v70q-18 80 -30.5 132t-19.5 88t-10.5 61.5t-3.5 50.5q0 166 33 339t94.5 316t147.5 234.5t192 91.5q23 0 44.5 -31t39 -72t28.5 -82t11 -63v-2q-55 -66 -105 -154t-89 -184t-62.5 -195.5t-23.5 -185.5 q0 -23 3 -52.5t13 -55t28.5 -43t47.5 -17.5q18 0 43.5 14.5t49.5 35t43 41t28 32.5q51 86 86.5 170t58.5 168t35 169t16 175q12 33 41 52.5t63.5 27.5t70.5 10t65 2q39 0 61.5 -21.5t34.5 -53t16.5 -70.5t4.5 -74q0 -25 -12.5 -94.5t-45.5 -174t-91 -236.5t-152 -282 q-8 -14 -9 -26q0 -16 14.5 -24.5t32.5 -8.5h7l24 19q61 35 113.5 99t94.5 143t75 168t55.5 174t33.5 158t11 122q0 63 -14.5 125.5t-46 113t-79.5 82t-116 31.5q-33 0 -60.5 -2t-59 -11t-72.5 -27.5t-99 -49.5q-16 51 -42.5 108.5t-62.5 106.5t-82 81t-104 32 q-68 0 -128 -30t-112 -76t-96 -101.5t-77 -106.5q-45 -72 -79 -156.5t-55.5 -176t-31.5 -183.5t-10 -176zM612 324q0 57 18.5 137t47.5 158.5t62.5 144t64.5 94.5v-41q0 -154 -52.5 -277.5t-138.5 -252.5q-2 10 -2 37z" />
<glyph unicode="&#xbd;" horiz-adv-x="1054" d="M37 158q0 -35 17.5 -76t47 -75t67.5 -56.5t81 -22.5q47 0 97 19.5t95 40.5l381 170q35 14 69 32.5t60.5 40t43 49t16.5 62.5q0 29 -18.5 39t-47.5 10q-41 0 -84 -13t-59 -20l-518 -206q-12 -4 -17 -5q-12 0 -20 9.5t-13.5 24t-6.5 28.5t-1 27q6 74 26.5 160.5t73 211.5 t143.5 300t241 427q8 18 10 34.5t2 37.5q0 20 -10 39.5t-35 19.5q-4 0 -9 -6t-7 -8q-47 -57 -96.5 -127t-92.5 -133.5t-73.5 -113.5t-43.5 -68q-47 -80 -102 -178.5t-103.5 -209t-81 -228.5t-32.5 -236z" />
<glyph unicode="&#xbe;" horiz-adv-x="612" d="M0 541q0 -25 15.5 -35t39.5 -10q20 0 26.5 1t9.5 4l8 8t24 13q2 0 5 1l3 1q0 -129 1 -258t5 -258q10 -14 31 -14q25 0 38 11t21.5 27.5t10.5 37t2 39.5v129q0 4 2 9t6 5h2q20 -2 48 -9t44 -24l131 -143q14 -16 39 -28.5t47 -12.5q10 0 17.5 3t7.5 13q0 16 -7.5 33.5 t-13.5 30.5q-4 8 -15 24.5t-16 20.5q-29 39 -60.5 73.5t-76.5 75.5q35 29 70 56.5t63 62.5q23 29 26 61.5t3 47.5q0 37 -27.5 62.5t-66.5 40.5t-79 22.5t-67 7.5q-45 0 -75.5 -4t-58 -13.5t-55.5 -24t-67 -34.5l-55 -37q-6 -4 -6 -16zM240 393v156l4 2q2 2 27.5 8t41.5 10 q12 4 23 4h22q25 0 44.5 -10t19.5 -39q0 -31 -17.5 -59.5t-44 -51t-56.5 -39t-56 -24.5h-4q-2 4 -3 21.5t-1 21.5z" />
<glyph unicode="&#xbf;" horiz-adv-x="727" d="M20 336q0 -66 26 -121t71 -96t104.5 -63.5t126.5 -22.5q51 0 112.5 14t115 40t90 61.5t36.5 78.5q0 20 -7 43t-22.5 42.5t-38 32.5t-52.5 13q-37 0 -78 -20q49 -25 69.5 -45.5t20.5 -36.5q0 -25 -37 -40t-83 -23.5t-88 -11.5t-52 -3q-49 0 -82 15.5t-54.5 38t-30.5 49 t-9 49.5q0 59 47 130.5t103.5 154.5t103.5 177.5t47 198.5q0 78 -52.5 121t-115.5 43q-16 0 -47 -8l-13 -4l-18 -25l6 -41h14q92 0 93 -86q0 -66 -22.5 -129t-56.5 -124.5t-74 -118t-73.5 -107.5t-56.5 -95t-23 -81zM248 1354q0 -37 26.5 -63.5t61.5 -26.5q41 0 66.5 27.5 t25.5 68.5q0 35 -28.5 58.5t-65.5 23.5q-35 0 -60.5 -26.5t-25.5 -61.5z" />
<glyph unicode="&#xc0;" horiz-adv-x="1112" d="M27 709q0 -51 47 -119q-4 -47 -6 -97.5t-2 -101.5q0 -102 -2.5 -201.5t-4.5 -201.5q-2 -6 -2 -15q0 -16 8.5 -29.5t24.5 -13.5h76q29 0 53.5 6.5t32.5 34.5l4 428v21q63 -35 132 -49.5t134 -18.5q29 4 56.5 8.5t56.5 8.5q37 -49 72.5 -105.5t65.5 -114t52.5 -112.5 t34.5 -100q33 -12 76 -13q18 0 38.5 2t45.5 6q6 2 11 23.5t5 34.5v321q0 41 1 90.5t3 104.5q25 14 49.5 31.5t49 36t39 44t14.5 48.5t-15.5 38t-50.5 15q2 -6 2 -17q0 -23 -20.5 -41t-67.5 -49q-2 96 -7 198.5t-20.5 200t-42 183.5t-68.5 150.5t-102.5 102.5t-142.5 38 q-100 0 -188 -49.5t-158.5 -139.5t-124 -217t-84.5 -282q-76 -23 -75 -88zM262 545q2 35 6 66.5t8 64.5q66 -20 139.5 -78.5t145.5 -138.5q-82 0 -157.5 19.5t-141.5 66.5zM297 793q25 117 61.5 217t81.5 172.5t96.5 113.5t106.5 41q72 0 117 -55t70.5 -143t34.5 -198 t9 -216q0 -53 -2 -104.5t-4 -96.5q-39 -16 -77.5 -26.5t-79.5 -20.5q-92 111 -188.5 191t-182.5 116q-10 4 -21.5 5.5t-21.5 3.5zM414 1726q0 -16 3 -31.5t16 -31.5q16 10 26 10h6q18 -2 45 -12t67 -29.5t98.5 -48.5t137.5 -65q20 0 34 14t22 35.5t12 44t6 39.5l-14 -9 q-41 6 -98.5 29t-112.5 47.5t-96 45l-45 22.5q-16 6 -29.5 10t-26.5 4q-51 0 -51 -61v-13zM774 397q23 6 44.5 12.5t43.5 14.5q-6 -67 -6 -94v-49q-20 31 -39.5 59.5t-42.5 56.5z" />
<glyph unicode="&#xc1;" horiz-adv-x="1112" d="M27 709q0 -51 47 -119q-4 -47 -6 -97.5t-2 -101.5q0 -102 -2.5 -201.5t-4.5 -201.5q-2 -6 -2 -15q0 -16 8.5 -29.5t24.5 -13.5h76q29 0 53.5 6.5t32.5 34.5l4 428v21q63 -35 132 -49.5t134 -18.5q29 4 56.5 8.5t56.5 8.5q37 -49 72.5 -105.5t65.5 -114t52.5 -112.5 t34.5 -100q33 -12 76 -13q18 0 38.5 2t45.5 6q6 2 11 23.5t5 34.5v321q0 41 1 90.5t3 104.5q25 14 49.5 31.5t49 36t39 44t14.5 48.5t-15.5 38t-50.5 15q2 -6 2 -17q0 -23 -20.5 -41t-67.5 -49q-2 96 -7 198.5t-20.5 200t-42 183.5t-68.5 150.5t-102.5 102.5t-142.5 38 q-100 0 -188 -49.5t-158.5 -139.5t-124 -217t-84.5 -282q-76 -23 -75 -88zM262 545q2 35 6 66.5t8 64.5q66 -20 139.5 -78.5t145.5 -138.5q-82 0 -157.5 19.5t-141.5 66.5zM297 793q25 117 61.5 217t81.5 172.5t96.5 113.5t106.5 41q72 0 117 -55t70.5 -143t34.5 -198 t9 -216q0 -53 -2 -104.5t-4 -96.5q-39 -16 -77.5 -26.5t-79.5 -20.5q-92 111 -188.5 191t-182.5 116q-10 4 -21.5 5.5t-21.5 3.5zM346 1610q4 -33 16.5 -62.5t53.5 -29.5q80 37 138 66.5t98 49t67 29.5t45 10q25 0 38 19.5t13 46.5q0 33 -20.5 62.5t-63.5 29.5 q-6 0 -22.5 -3t-47 -17.5t-76.5 -47t-112 -90.5q-35 -33 -59.5 -48t-53.5 -15h-14zM774 397q23 6 44.5 12.5t43.5 14.5q-6 -67 -6 -94v-49q-20 31 -39.5 59.5t-42.5 56.5z" />
<glyph unicode="&#xc2;" horiz-adv-x="1112" d="M27 709q0 -51 47 -119q-4 -47 -6 -97.5t-2 -101.5q0 -102 -2.5 -201.5t-4.5 -201.5q-2 -6 -2 -15q0 -16 8.5 -29.5t24.5 -13.5h76q29 0 53.5 6.5t32.5 34.5l4 428v21q63 -35 132 -49.5t134 -18.5q29 4 56.5 8.5t56.5 8.5q37 -49 72.5 -105.5t65.5 -114t52.5 -112.5 t34.5 -100q33 -12 76 -13q18 0 38.5 2t45.5 6q6 2 11 23.5t5 34.5v321q0 41 1 90.5t3 104.5q25 14 49.5 31.5t49 36t39 44t14.5 48.5t-15.5 38t-50.5 15q2 -6 2 -17q0 -23 -20.5 -41t-67.5 -49q-2 96 -7 198.5t-20.5 200t-42 183.5t-68.5 150.5t-102.5 102.5t-142.5 38 q-100 0 -188 -49.5t-158.5 -139.5t-124 -217t-84.5 -282q-76 -23 -75 -88zM262 545q2 35 6 66.5t8 64.5q66 -20 139.5 -78.5t145.5 -138.5q-82 0 -157.5 19.5t-141.5 66.5zM297 793q25 117 61.5 217t81.5 172.5t96.5 113.5t106.5 41q72 0 117 -55t70.5 -143t34.5 -198 t9 -216q0 -53 -2 -104.5t-4 -96.5q-39 -16 -77.5 -26.5t-79.5 -20.5q-92 111 -188.5 191t-182.5 116q-10 4 -21.5 5.5t-21.5 3.5zM307 1649q0 -33 22.5 -68t59.5 -35q39 0 63.5 10.5t52.5 28.5q35 23 59 51.5t40 57.5q10 -23 29.5 -39.5t41.5 -34.5q27 -23 78 -40t98 -17 q23 0 33 25.5t10 47.5q0 23 -10 39.5t-33 16.5q-16 0 -34.5 5t-36 12t-30.5 15.5t-17 14.5q-31 43 -38 74.5t-18 66.5q-16 43 -61 43q-23 0 -43.5 -14.5t-24.5 -42.5q-8 -23 -13 -38.5t-10 -27.5t-11.5 -22.5t-16.5 -22.5q-29 -39 -55.5 -62.5t-73.5 -23.5q-12 0 -24.5 1 t-28.5 9q-8 -10 -8 -30zM774 397q23 6 44.5 12.5t43.5 14.5q-6 -67 -6 -94v-49q-20 31 -39.5 59.5t-42.5 56.5z" />
<glyph unicode="&#xc3;" horiz-adv-x="1112" d="M27 709q0 -51 47 -119q-4 -47 -6 -97.5t-2 -101.5q0 -102 -2.5 -201.5t-4.5 -201.5q-2 -6 -2 -15q0 -16 8.5 -29.5t24.5 -13.5h76q29 0 53.5 6.5t32.5 34.5l4 428v21q63 -35 132 -49.5t134 -18.5q29 4 56.5 8.5t56.5 8.5q37 -49 72.5 -105.5t65.5 -114t52.5 -112.5 t34.5 -100q33 -12 76 -13q18 0 38.5 2t45.5 6q6 2 11 23.5t5 34.5v321q0 41 1 90.5t3 104.5q25 14 49.5 31.5t49 36t39 44t14.5 48.5t-15.5 38t-50.5 15q2 -6 2 -17q0 -23 -20.5 -41t-67.5 -49q-2 96 -7 198.5t-20.5 200t-42 183.5t-68.5 150.5t-102.5 102.5t-142.5 38 q-100 0 -188 -49.5t-158.5 -139.5t-124 -217t-84.5 -282q-76 -23 -75 -88zM200 1640q0 -23 19.5 -43t48.5 -43q29 72 58.5 110t89.5 38q20 0 59 -23.5t87 -53.5t97 -53.5t88 -23.5q88 0 149.5 58.5t61.5 148.5q0 31 -20.5 51.5t-44.5 30.5q2 -6 2 -20q0 -27 -16.5 -49.5 t-40 -40t-51 -27.5t-50.5 -10q-31 0 -76 28.5t-91 62.5t-86 62.5t-58 28.5q-33 0 -68 -8.5t-65.5 -34t-55 -70.5t-37.5 -119zM262 545q2 35 6 66.5t8 64.5q66 -20 139.5 -78.5t145.5 -138.5q-82 0 -157.5 19.5t-141.5 66.5zM297 793q25 117 61.5 217t81.5 172.5t96.5 113.5 t106.5 41q72 0 117 -55t70.5 -143t34.5 -198t9 -216q0 -53 -2 -104.5t-4 -96.5q-39 -16 -77.5 -26.5t-79.5 -20.5q-92 111 -188.5 191t-182.5 116q-10 4 -21.5 5.5t-21.5 3.5zM774 397q23 6 44.5 12.5t43.5 14.5q-6 -67 -6 -94v-49q-20 31 -39.5 59.5t-42.5 56.5z" />
<glyph unicode="&#xc4;" horiz-adv-x="1112" d="M27 709q0 -51 47 -119q-4 -47 -6 -97.5t-2 -101.5q0 -102 -2.5 -201.5t-4.5 -201.5q-2 -6 -2 -15q0 -16 8.5 -29.5t24.5 -13.5h76q29 0 53.5 6.5t32.5 34.5l4 428v21q63 -35 132 -49.5t134 -18.5q29 4 56.5 8.5t56.5 8.5q37 -49 72.5 -105.5t65.5 -114t52.5 -112.5 t34.5 -100q33 -12 76 -13q18 0 38.5 2t45.5 6q6 2 11 23.5t5 34.5v321q0 41 1 90.5t3 104.5q25 14 49.5 31.5t49 36t39 44t14.5 48.5t-15.5 38t-50.5 15q2 -6 2 -17q0 -23 -20.5 -41t-67.5 -49q-2 96 -7 198.5t-20.5 200t-42 183.5t-68.5 150.5t-102.5 102.5t-142.5 38 q-100 0 -188 -49.5t-158.5 -139.5t-124 -217t-84.5 -282q-76 -23 -75 -88zM262 545q2 35 6 66.5t8 64.5q66 -20 139.5 -78.5t145.5 -138.5q-82 0 -157.5 19.5t-141.5 66.5zM297 793q25 117 61.5 217t81.5 172.5t96.5 113.5t106.5 41q72 0 117 -55t70.5 -143t34.5 -198 t9 -216q0 -53 -2 -104.5t-4 -96.5q-39 -16 -77.5 -26.5t-79.5 -20.5q-92 111 -188.5 191t-182.5 116q-10 4 -21.5 5.5t-21.5 3.5zM389 1634q0 -35 28.5 -58.5t65.5 -23.5q35 0 60.5 27t25.5 61q0 37 -26.5 64t-61.5 27q-41 0 -66.5 -28t-25.5 -69zM684 1640q0 -35 28.5 -58 t65.5 -23q35 0 60.5 26.5t25.5 61.5q0 37 -26.5 63.5t-61.5 26.5q-41 0 -66.5 -28t-25.5 -69zM774 397q23 6 44.5 12.5t43.5 14.5q-6 -67 -6 -94v-49q-20 31 -39.5 59.5t-42.5 56.5z" />
<glyph unicode="&#xc5;" horiz-adv-x="1112" d="M27 709q0 -51 47 -119q-4 -47 -6 -97.5t-2 -101.5q0 -102 -2.5 -201.5t-4.5 -201.5q-2 -6 -2 -15q0 -16 8.5 -29.5t24.5 -13.5h76q29 0 53.5 6.5t32.5 34.5l4 428v21q63 -35 132 -49.5t134 -18.5q29 4 56.5 8.5t56.5 8.5q37 -49 72.5 -105.5t65.5 -114t52.5 -112.5 t34.5 -100q33 -12 76 -13q18 0 38.5 2t45.5 6q6 2 11 23.5t5 34.5v321q0 41 1 90.5t3 104.5q25 14 49.5 31.5t49 36t39 44t14.5 48.5t-15.5 38t-50.5 15q2 -6 2 -17q0 -23 -20.5 -41t-67.5 -49q-2 96 -7 198.5t-20.5 200t-42 183.5t-68.5 150.5t-102.5 102.5t-142.5 38 q-100 0 -188 -49.5t-158.5 -139.5t-124 -217t-84.5 -282q-76 -23 -75 -88zM262 545q2 35 6 66.5t8 64.5q66 -20 139.5 -78.5t145.5 -138.5q-82 0 -157.5 19.5t-141.5 66.5zM297 793q25 117 61.5 217t81.5 172.5t96.5 113.5t106.5 41q72 0 117 -55t70.5 -143t34.5 -198 t9 -216q0 -53 -2 -104.5t-4 -96.5q-39 -16 -77.5 -26.5t-79.5 -20.5q-92 111 -188.5 191t-182.5 116q-10 4 -21.5 5.5t-21.5 3.5zM389 1747q0 -96 56.5 -156.5t172.5 -60.5q41 0 82 16.5t74 45t53.5 68.5t20.5 87q0 43 -14.5 87t-39 80t-58.5 58.5t-74 22.5q-16 0 -36 -2 t-36 -13q-66 -8 -105 -34.5t-60.5 -61.5t-28.5 -71.5t-7 -65.5zM479 1761q0 66 24.5 89.5t61.5 39.5l5 5l8 8q-4 -10 -7.5 -14.5t-4.5 -8.5t-2 -11t-3 -22l62 51q4 0 10 4.5t22 4.5q37 0 70 -41t33 -101q0 -29 -13.5 -54t-35 -44.5t-47 -31t-50.5 -11.5q-61 0 -97 39t-36 98 zM774 397q23 6 44.5 12.5t43.5 14.5q-6 -67 -6 -94v-49q-20 31 -39.5 59.5t-42.5 56.5z" />
<glyph unicode="&#xc6;" horiz-adv-x="1931" d="M59 709q0 -51 47 -119q-4 -47 -6 -97.5t-2 -101.5q0 -102 -2 -201.5t-4 -201.5q-2 -6 -2 -15q0 -16 8 -29.5t25 -13.5h76q29 0 53 6.5t33 34.5l4 428v21q63 -35 131.5 -49.5t134.5 -18.5q29 4 56.5 8.5t56.5 8.5q37 -49 72.5 -105.5t65.5 -114t52.5 -112.5t34.5 -100 q33 -12 76 -13q18 0 38.5 2t45.5 6q6 2 11 23.5t5 34.5v33q86 -51 184.5 -78t202.5 -27q55 0 99 8t84 26.5t79 45.5t86 63q49 37 49 109q0 45 -3 65.5t-15 20.5q-16 0 -61 -45q-61 -63 -150.5 -104t-181.5 -41q-78 0 -142.5 23.5t-112.5 68.5t-75 110.5t-27 149.5l-2 106 q0 37 4.5 69t17.5 59.5t37.5 49t65.5 33.5q12 8 23 13q57 -23 116.5 -30t120.5 -7q72 0 117 6t70.5 19.5t35 32.5t9.5 48q0 45 -16.5 63.5t-73.5 34.5q-41 12 -83 17.5t-85 5.5q-49 0 -99.5 -6t-99.5 -21q-35 23 -51 73t-16 103q0 63 34.5 112.5t88 82.5t119 49.5 t126.5 16.5q39 0 91.5 -7.5t86.5 -19.5q45 -20 53.5 -29.5t8.5 -17.5q0 -16 -6 -34.5t-14.5 -35t-18.5 -30t-16 -19.5q12 -2 22 -5t25 -3q25 0 41 13.5t26 32.5t15.5 43t5.5 46q0 53 -23.5 103.5t-68.5 64.5q-55 18 -112.5 28.5t-119.5 10.5q-86 0 -171 -17.5t-158.5 -55.5 t-129 -96t-77.5 -138q-41 137 -116 220t-198 83q-100 0 -188 -49.5t-159 -139.5t-124 -217t-84 -282q-76 -23 -76 -88zM295 545q2 35 6 66.5t8 64.5q66 -20 139.5 -78.5t145.5 -138.5q-82 0 -158 19.5t-141 66.5zM330 793q25 117 61.5 217t81.5 172.5t96.5 113.5t106.5 41 q72 0 117 -55t70.5 -143t34.5 -198t9 -216q0 -53 -2 -104.5t-4 -96.5q-39 -16 -78 -26.5t-80 -20.5q-92 111 -188 191t-182 116q-10 4 -21.5 5.5t-21.5 3.5zM807 397q23 6 44 12.5t44 14.5q-6 -67 -6 -94v-49q-20 31 -40 59.5t-42 56.5zM1362 823q27 4 61.5 12.5t75.5 8.5 q47 0 74 -15q-59 -16 -103 -16z" />
<glyph unicode="&#xc7;" horiz-adv-x="1253" d="M31 635q0 -164 56 -294t146.5 -222t203 -141.5t225.5 -49.5q61 0 135.5 12.5t149.5 34t142.5 48t116.5 55.5q4 12 6 24.5t2 22.5q0 16 -9 35t-34 39q-49 -16 -111.5 -34t-130 -32t-134 -22.5t-123.5 -8.5q-66 0 -150 38t-158.5 110t-126 174t-51.5 231q0 135 51.5 258 t146.5 217.5t232.5 150.5t311.5 56q37 0 74.5 -8t68.5 -27.5t50.5 -52t19.5 -82.5q0 -139 -62.5 -210.5t-163.5 -71.5q-29 0 -46 6t-25 18.5t-10.5 27.5t-2.5 34v35q0 35 28 75.5t75 98.5h-8q-37 0 -73 -19.5t-64.5 -47.5t-47 -59.5t-18.5 -58.5q0 -41 7 -79.5t25.5 -69.5 t49.5 -50.5t78 -19.5q184 0 279 103.5t95 341.5q0 14 -2 29.5t-6 27.5q-18 47 -57 83t-85 60.5t-93 36.5t-80 12q-174 0 -308 -37.5t-234.5 -102t-169 -148.5t-111.5 -177.5t-61.5 -188.5t-18.5 -181zM510 -332q0 -33 23 -55q29 -31 72.5 -49.5t88.5 -18.5q49 0 89 24.5 t53 82.5q4 10 4 20v21q0 61 -34 116.5t-75 100.5q18 20 35.5 39.5t24.5 46.5q-4 23 -34 34t-59 11q-22 0 -36 -6q-16 -29 -32 -44.5t-38 -37.5q-18 -18 -18 -47q0 -27 18 -45q14 -16 34.5 -35t37 -39t29 -43t12.5 -45q0 -8 -4 -25q-23 -6 -46 -6q-35 0 -63.5 17.5 t-32.5 60.5q-20 -10 -34.5 -30.5t-14.5 -47.5z" />
<glyph unicode="&#xc8;" horiz-adv-x="1067" d="M18 395q0 -109 50.5 -206t150.5 -150q90 -59 195.5 -90t216.5 -31q55 0 99 8t84 26.5t79 45.5t86 63q49 37 49 109q0 45 -3 65.5t-15 20.5q-16 0 -62 -45q-61 -63 -150 -104t-182 -41q-78 0 -152.5 22.5t-133 67.5t-95 110.5t-36.5 149.5q0 51 8 101t28.5 92t56.5 75 t91 51q12 8 23 13q57 -23 116.5 -30t120.5 -7q72 0 117 6t70.5 19.5t34.5 32.5t9 48q0 45 -16 63.5t-74 34.5q-41 12 -83 17.5t-85 5.5q-49 0 -99 -6t-99 -21q-35 23 -51.5 73t-16.5 103q0 63 35 112.5t88 82.5t118.5 49.5t127.5 16.5q39 0 91 -7.5t87 -19.5 q45 -20 53 -29.5t8 -17.5q0 -16 -6 -34.5t-14 -35t-18.5 -30t-16.5 -19.5q12 -2 22.5 -5t24.5 -3q25 0 41.5 13.5t26.5 32.5t15 43t5 46q0 53 -23.5 103.5t-68.5 64.5q-55 18 -112.5 28.5t-118.5 10.5q-96 0 -192.5 -22.5t-174.5 -70.5t-129 -123t-55 -179 q4 -66 36.5 -129.5t73.5 -110.5q-66 -29 -113.5 -76t-79.5 -107.5t-47.5 -131t-15.5 -144.5zM405 1726q0 -16 3 -31.5t16 -31.5q16 10 26 10h6q18 -2 45 -12t67 -29.5t98.5 -48.5t137.5 -65q20 0 34 14t22 35.5t12 44t6 39.5l-14 -9q-41 6 -98.5 29t-112.5 47.5t-96 45 l-45 22.5q-16 6 -29.5 10t-26.5 4q-51 0 -51 -61v-13zM537 823q27 4 61.5 12.5t75.5 8.5q47 0 74 -15q-59 -16 -103 -16z" />
<glyph unicode="&#xc9;" horiz-adv-x="1024" d="M18 395q0 -109 50.5 -206t150.5 -150q90 -59 195.5 -90t216.5 -31q55 0 99 8t84 26.5t79 45.5t86 63q49 37 49 109q0 45 -3 65.5t-15 20.5q-16 0 -62 -45q-61 -63 -150 -104t-182 -41q-78 0 -152.5 22.5t-133 67.5t-95 110.5t-36.5 149.5q0 51 8 101t28.5 92t56.5 75 t91 51q12 8 23 13q57 -23 116.5 -30t120.5 -7q72 0 117 6t70.5 19.5t34.5 32.5t9 48q0 45 -16 63.5t-74 34.5q-41 12 -83 17.5t-85 5.5q-49 0 -99 -6t-99 -21q-35 23 -51.5 73t-16.5 103q0 63 35 112.5t88 82.5t118.5 49.5t127.5 16.5q39 0 91 -7.5t87 -19.5 q45 -20 53 -29.5t8 -17.5q0 -16 -6 -34.5t-14 -35t-18.5 -30t-16.5 -19.5q12 -2 22.5 -5t24.5 -3q25 0 41.5 13.5t26.5 32.5t15 43t5 46q0 53 -23.5 103.5t-68.5 64.5q-55 18 -112.5 28.5t-118.5 10.5q-96 0 -192.5 -22.5t-174.5 -70.5t-129 -123t-55 -179 q4 -66 36.5 -129.5t73.5 -110.5q-66 -29 -113.5 -76t-79.5 -107.5t-47.5 -131t-15.5 -144.5zM364 1610q4 -33 16.5 -62.5t53.5 -29.5q80 37 138 66.5t98 49t67 29.5t45 10q25 0 38 19.5t13 46.5q0 33 -20.5 62.5t-63.5 29.5q-6 0 -22.5 -3t-47 -17.5t-76.5 -47t-112 -90.5 q-35 -33 -59.5 -48t-53.5 -15h-14zM537 823q27 4 61.5 12.5t75.5 8.5q47 0 74 -15q-59 -16 -103 -16z" />
<glyph unicode="&#xca;" horiz-adv-x="1067" d="M18 395q0 -109 50.5 -206t150.5 -150q90 -59 195.5 -90t216.5 -31q55 0 99 8t84 26.5t79 45.5t86 63q49 37 49 109q0 45 -3 65.5t-15 20.5q-16 0 -62 -45q-61 -63 -150 -104t-182 -41q-78 0 -152.5 22.5t-133 67.5t-95 110.5t-36.5 149.5q0 51 8 101t28.5 92t56.5 75 t91 51q12 8 23 13q57 -23 116.5 -30t120.5 -7q72 0 117 6t70.5 19.5t34.5 32.5t9 48q0 45 -16 63.5t-74 34.5q-41 12 -83 17.5t-85 5.5q-49 0 -99 -6t-99 -21q-35 23 -51.5 73t-16.5 103q0 63 35 112.5t88 82.5t118.5 49.5t127.5 16.5q39 0 91 -7.5t87 -19.5 q45 -20 53 -29.5t8 -17.5q0 -16 -6 -34.5t-14 -35t-18.5 -30t-16.5 -19.5q12 -2 22.5 -5t24.5 -3q25 0 41.5 13.5t26.5 32.5t15 43t5 46q0 53 -23.5 103.5t-68.5 64.5q-55 18 -112.5 28.5t-118.5 10.5q-96 0 -192.5 -22.5t-174.5 -70.5t-129 -123t-55 -179 q4 -66 36.5 -129.5t73.5 -110.5q-66 -29 -113.5 -76t-79.5 -107.5t-47.5 -131t-15.5 -144.5zM328 1649q0 -33 22.5 -68t59.5 -35q39 0 63.5 10.5t52.5 28.5q35 23 59 51.5t40 57.5q10 -23 29.5 -39.5t41.5 -34.5q27 -23 78 -40t98 -17q23 0 33 25.5t10 47.5q0 23 -10 39.5 t-33 16.5q-16 0 -34.5 5t-36 12t-30.5 15.5t-17 14.5q-31 43 -38 74.5t-18 66.5q-16 43 -61 43q-23 0 -43.5 -14.5t-24.5 -42.5q-8 -23 -13 -38.5t-10 -27.5t-11.5 -22.5t-16.5 -22.5q-29 -39 -55.5 -62.5t-73.5 -23.5q-12 0 -24.5 1t-28.5 9q-8 -10 -8 -30zM537 823 q27 4 61.5 12.5t75.5 8.5q47 0 74 -15q-59 -16 -103 -16z" />
<glyph unicode="&#xcb;" horiz-adv-x="1067" d="M18 395q0 -109 50.5 -206t150.5 -150q90 -59 195.5 -90t216.5 -31q55 0 99 8t84 26.5t79 45.5t86 63q49 37 49 109q0 45 -3 65.5t-15 20.5q-16 0 -62 -45q-61 -63 -150 -104t-182 -41q-78 0 -152.5 22.5t-133 67.5t-95 110.5t-36.5 149.5q0 51 8 101t28.5 92t56.5 75 t91 51q12 8 23 13q57 -23 116.5 -30t120.5 -7q72 0 117 6t70.5 19.5t34.5 32.5t9 48q0 45 -16 63.5t-74 34.5q-41 12 -83 17.5t-85 5.5q-49 0 -99 -6t-99 -21q-35 23 -51.5 73t-16.5 103q0 63 35 112.5t88 82.5t118.5 49.5t127.5 16.5q39 0 91 -7.5t87 -19.5 q45 -20 53 -29.5t8 -17.5q0 -16 -6 -34.5t-14 -35t-18.5 -30t-16.5 -19.5q12 -2 22.5 -5t24.5 -3q25 0 41.5 13.5t26.5 32.5t15 43t5 46q0 53 -23.5 103.5t-68.5 64.5q-55 18 -112.5 28.5t-118.5 10.5q-96 0 -192.5 -22.5t-174.5 -70.5t-129 -123t-55 -179 q4 -66 36.5 -129.5t73.5 -110.5q-66 -29 -113.5 -76t-79.5 -107.5t-47.5 -131t-15.5 -144.5zM412 1634q0 -35 28.5 -58.5t65.5 -23.5q35 0 60.5 27t25.5 61q0 37 -26.5 64t-61.5 27q-41 0 -66.5 -28t-25.5 -69zM537 823q27 4 61.5 12.5t75.5 8.5q47 0 74 -15 q-59 -16 -103 -16zM707 1640q0 -35 28.5 -58t65.5 -23q35 0 60.5 26.5t25.5 61.5q0 37 -26.5 63.5t-61.5 26.5q-41 0 -66.5 -28t-25.5 -69z" />
<glyph unicode="&#xcc;" horiz-adv-x="751" d="M49 57q0 -31 21.5 -60.5t56.5 -53t81 -36.5t95 -13q86 0 147.5 33.5t105.5 90t70.5 129t41 151.5t19.5 158t5 144q0 172 -9 303t-19.5 222.5t-19.5 138.5t-11 51q-14 37 -28.5 63.5t-35 44t-49 26.5t-67.5 9q-41 0 -64.5 -52t-36 -126t-15.5 -156t-3 -141v-80 q0 -221 20.5 -376.5t89.5 -254.5q-25 156 -24 222l2 28q10 150 12 289t5 247.5t12.5 177.5t37.5 79q8 -6 14.5 -54.5t10.5 -125t6 -175t2 -200.5q0 -47 2 -104.5t2 -123.5q0 -98 -7 -200.5t-30.5 -185.5t-66.5 -136t-117 -53q-78 2 -123 37t-45 63q0 27 31 31 q-6 14 -18.5 19.5t-28.5 5.5q-29 0 -50.5 -14.5t-21.5 -41.5zM242 1726q0 -16 3 -31.5t16 -31.5q16 10 26 10h6q18 -2 45 -12t67 -29.5t98.5 -48.5t137.5 -65q20 0 34 14t22 35.5t12 44t6 39.5l-14 -9q-41 6 -98.5 29t-112.5 47.5t-96 45l-45 22.5q-16 6 -29.5 10t-26.5 4 q-51 0 -51 -61v-13z" />
<glyph unicode="&#xcd;" horiz-adv-x="751" d="M49 57q0 -31 21.5 -60.5t56.5 -53t81 -36.5t95 -13q86 0 147.5 33.5t105.5 90t70.5 129t41 151.5t19.5 158t5 144q0 172 -9 303t-19.5 222.5t-19.5 138.5t-11 51q-14 37 -28.5 63.5t-35 44t-49 26.5t-67.5 9q-41 0 -64.5 -52t-36 -126t-15.5 -156t-3 -141v-80 q0 -221 20.5 -376.5t89.5 -254.5q-25 156 -24 222l2 28q10 150 12 289t5 247.5t12.5 177.5t37.5 79q8 -6 14.5 -54.5t10.5 -125t6 -175t2 -200.5q0 -47 2 -104.5t2 -123.5q0 -98 -7 -200.5t-30.5 -185.5t-66.5 -136t-117 -53q-78 2 -123 37t-45 63q0 27 31 31 q-6 14 -18.5 19.5t-28.5 5.5q-29 0 -50.5 -14.5t-21.5 -41.5zM221 1610q4 -33 16.5 -62.5t53.5 -29.5q80 37 138 66.5t98 49t67 29.5t45 10q25 0 38 19.5t13 46.5q0 33 -20.5 62.5t-63.5 29.5q-6 0 -22.5 -3t-47 -17.5t-76.5 -47t-112 -90.5q-35 -33 -59.5 -48t-53.5 -15 h-14z" />
<glyph unicode="&#xce;" horiz-adv-x="751" d="M49 57q0 -31 21.5 -60.5t56.5 -53t81 -36.5t95 -13q86 0 147.5 33.5t105.5 90t70.5 129t41 151.5t19.5 158t5 144q0 172 -9 303t-19.5 222.5t-19.5 138.5t-11 51q-14 37 -28.5 63.5t-35 44t-49 26.5t-67.5 9q-41 0 -64.5 -52t-36 -126t-15.5 -156t-3 -141v-80 q0 -221 20.5 -376.5t89.5 -254.5q-25 156 -24 222l2 28q10 150 12 289t5 247.5t12.5 177.5t37.5 79q8 -6 14.5 -54.5t10.5 -125t6 -175t2 -200.5q0 -47 2 -104.5t2 -123.5q0 -98 -7 -200.5t-30.5 -185.5t-66.5 -136t-117 -53q-78 2 -123 37t-45 63q0 27 31 31 q-6 14 -18.5 19.5t-28.5 5.5q-29 0 -50.5 -14.5t-21.5 -41.5zM166 1649q0 -33 22.5 -68t59.5 -35q39 0 63.5 10.5t52.5 28.5q35 23 59 51.5t40 57.5q10 -23 29.5 -39.5t41.5 -34.5q27 -23 78 -40t98 -17q23 0 33 25.5t10 47.5q0 23 -10 39.5t-33 16.5q-16 0 -34.5 5t-36 12 t-30.5 15.5t-17 14.5q-31 43 -38 74.5t-18 66.5q-16 43 -61 43q-23 0 -43.5 -14.5t-24.5 -42.5q-8 -23 -13 -38.5t-10 -27.5t-11.5 -22.5t-16.5 -22.5q-29 -39 -55.5 -62.5t-73.5 -23.5q-12 0 -24.5 1t-28.5 9q-8 -10 -8 -30z" />
<glyph unicode="&#xcf;" horiz-adv-x="751" d="M49 57q0 -31 21.5 -60.5t56.5 -53t81 -36.5t95 -13q86 0 147.5 33.5t105.5 90t70.5 129t41 151.5t19.5 158t5 144q0 172 -9 303t-19.5 222.5t-19.5 138.5t-11 51q-14 37 -28.5 63.5t-35 44t-49 26.5t-67.5 9q-41 0 -64.5 -52t-36 -126t-15.5 -156t-3 -141v-80 q0 -221 20.5 -376.5t89.5 -254.5q-25 156 -24 222l2 28q10 150 12 289t5 247.5t12.5 177.5t37.5 79q8 -6 14.5 -54.5t10.5 -125t6 -175t2 -200.5q0 -47 2 -104.5t2 -123.5q0 -98 -7 -200.5t-30.5 -185.5t-66.5 -136t-117 -53q-78 2 -123 37t-45 63q0 27 31 31 q-6 14 -18.5 19.5t-28.5 5.5q-29 0 -50.5 -14.5t-21.5 -41.5zM236 1634q0 -35 28.5 -58.5t65.5 -23.5q35 0 60.5 27t25.5 61q0 37 -26.5 64t-61.5 27q-41 0 -66.5 -28t-25.5 -69zM531 1640q0 -35 28.5 -58t65.5 -23q35 0 60.5 26.5t25.5 61.5q0 37 -26.5 63.5t-61.5 26.5 q-41 0 -66.5 -28t-25.5 -69z" />
<glyph unicode="&#xd0;" horiz-adv-x="1908" d="M29 1286q0 -20 31.5 -26.5t64.5 -6.5q16 0 29.5 1t19.5 1q8 8 8 17q0 10 -10 16q-4 2 -16.5 4t-25.5 5t-24.5 7.5t-11.5 10.5q0 12 47 22q41 10 83 14.5t83 4.5q98 0 185.5 -8.5t169 -25.5t163.5 -43t172 -60q127 -49 253 -124t226.5 -171.5t163 -213t62.5 -249.5 q0 -90 -32 -154.5t-84 -108.5t-119.5 -71t-138.5 -41t-139.5 -18.5t-123.5 -4.5q-39 0 -96.5 3.5t-143.5 13.5v471q12 2 25 2h33q35 0 68.5 -4t86.5 -23q16 -4 25 -4q35 0 67.5 21.5t32.5 50.5q0 27 -28 43q-43 27 -84 41t-76 21.5t-63.5 8.5t-49.5 1h-28q-4 35 -6.5 65.5 t-4.5 61.5q-4 70 -18 120t-70 95q-18 -14 -30.5 -56.5t-20.5 -88.5t-13 -85t-5 -47l-4 -82q-59 -4 -109.5 -17t-95.5 -32q-27 -10 -48.5 -36.5t-21.5 -49.5q0 -27 39 -27h6q49 4 111.5 8.5t109.5 6.5l-14 -453q-66 10 -90.5 23.5t-40.5 27.5q-18 16 -24.5 31.5t-8.5 40.5 q-33 -8 -45 -27.5t-12 -70.5q0 -29 20.5 -51.5t52 -41t71.5 -33t77 -26.5q6 -41 17.5 -58.5t33.5 -43.5l47 -4q20 0 37 2t33 6l24 63q78 -4 152 -6t143 -2q137 0 273.5 33t245 100.5t176 169t67.5 240.5q0 104 -40 202.5t-106.5 187.5t-151.5 168t-176 142.5t-181 111.5 t-166 75q-147 53 -291.5 90t-279.5 37q-53 0 -132 -4.5t-154 -22.5t-128 -57t-53 -109z" />
<glyph unicode="&#xd1;" horiz-adv-x="1155" d="M10 113q0 -25 5 -49.5t15.5 -44t23 -33t28.5 -13.5q43 0 56.5 25t21.5 53q31 109 54.5 200t39.5 179t26.5 181.5t18.5 207.5q33 -96 81 -196.5t105.5 -193.5t120 -175t120.5 -144.5t111.5 -98.5t90.5 -38q72 27 112.5 100.5t61 164t26 183.5t5.5 161q0 266 -91 486.5 t-284 404.5q-8 -16 -13.5 -28.5t-5.5 -27.5q41 -98 81 -202.5t71 -214t49 -222t18 -225.5q0 -82 -11 -164t-36 -164q-37 0 -86 46t-104 121t-112.5 168t-111 187.5t-96.5 180.5t-69 145h-2v2q10 72 17 141.5t9 135.5q0 31 -24.5 61.5t-57.5 30.5q-78 0 -116.5 -47 t-42.5 -103v-14q0 -51 23.5 -124t60.5 -144q-25 -123 -48.5 -243t-46 -231.5t-45 -210t-45.5 -175.5q-4 -10 -4 -21v-18zM155 1640q0 -23 19.5 -43t48.5 -43q29 72 58.5 110t89.5 38q20 0 59 -23.5t87 -53.5t97 -53.5t88 -23.5q88 0 149.5 58.5t61.5 148.5q0 31 -20.5 51.5 t-44.5 30.5q2 -6 2 -20q0 -27 -16.5 -49.5t-40 -40t-51 -27.5t-50.5 -10q-31 0 -76 28.5t-91 62.5t-86 62.5t-58 28.5q-33 0 -68 -8.5t-65.5 -34t-55 -70.5t-37.5 -119zM219 1294q0 41 4 58.5t27 17.5q10 0 14 -14.5t4 -30.5q0 -31 -5 -64.5t-13 -68.5q-14 29 -22.5 55.5 t-8.5 46.5z" />
<glyph unicode="&#xd2;" d="M27 655q0 -158 46 -290t133 -227t213 -147t286 -52q115 0 223 52t193 146t137.5 226.5t52.5 291.5q0 184 -53.5 337t-132 262.5t-170 170t-164.5 60.5q-51 0 -98.5 -10.5t-83.5 -35t-57.5 -65.5t-21.5 -100q0 -43 25 -85t63.5 -75t87 -53.5t93.5 -20.5q20 0 32 7l35 65 q-35 0 -68.5 17.5t-59 43t-42 56.5t-16.5 57q0 29 19.5 47.5t66.5 18.5q63 0 131 -64.5t122 -166t89 -224.5t35 -238q0 -113 -33 -216t-91 -183t-139 -128t-175 -48q-117 0 -210.5 40t-159 113.5t-100 179t-34.5 238.5t26.5 231.5t69.5 172.5t94 127t101 96q8 8 8 21 q0 14 4 26v80l-17 18q-53 -8 -106 -31.5t-100 -78.5q-80 -96 -130.5 -176t-78 -157t-36.5 -155.5t-9 -173.5zM422 1726q0 -16 3 -31.5t16 -31.5q16 10 26 10h6q18 -2 45 -12t67 -29.5t98.5 -48.5t137.5 -65q20 0 34 14t22 35.5t12 44t6 39.5l-14 -9q-41 6 -98.5 29 t-112.5 47.5t-96 45l-45 22.5q-16 6 -29.5 10t-26.5 4q-51 0 -51 -61v-13z" />
<glyph unicode="&#xd3;" d="M27 655q0 -158 46 -290t133 -227t213 -147t286 -52q115 0 223 52t193 146t137.5 226.5t52.5 291.5q0 184 -53.5 337t-132 262.5t-170 170t-164.5 60.5q-51 0 -98.5 -10.5t-83.5 -35t-57.5 -65.5t-21.5 -100q0 -43 25 -85t63.5 -75t87 -53.5t93.5 -20.5q20 0 32 7l35 65 q-35 0 -68.5 17.5t-59 43t-42 56.5t-16.5 57q0 29 19.5 47.5t66.5 18.5q63 0 131 -64.5t122 -166t89 -224.5t35 -238q0 -113 -33 -216t-91 -183t-139 -128t-175 -48q-117 0 -210.5 40t-159 113.5t-100 179t-34.5 238.5t26.5 231.5t69.5 172.5t94 127t101 96q8 8 8 21 q0 14 4 26v80l-17 18q-53 -8 -106 -31.5t-100 -78.5q-80 -96 -130.5 -176t-78 -157t-36.5 -155.5t-9 -173.5zM352 1610q4 -33 16.5 -62.5t53.5 -29.5q80 37 138 66.5t98 49t67 29.5t45 10q25 0 38 19.5t13 46.5q0 33 -20.5 62.5t-63.5 29.5q-6 0 -22.5 -3t-47 -17.5 t-76.5 -47t-112 -90.5q-35 -33 -59.5 -48t-53.5 -15h-14z" />
<glyph unicode="&#xd4;" d="M27 655q0 -158 46 -290t133 -227t213 -147t286 -52q115 0 223 52t193 146t137.5 226.5t52.5 291.5q0 184 -53.5 337t-132 262.5t-170 170t-164.5 60.5q-51 0 -98.5 -10.5t-83.5 -35t-57.5 -65.5t-21.5 -100q0 -43 25 -85t63.5 -75t87 -53.5t93.5 -20.5q20 0 32 7l35 65 q-35 0 -68.5 17.5t-59 43t-42 56.5t-16.5 57q0 29 19.5 47.5t66.5 18.5q63 0 131 -64.5t122 -166t89 -224.5t35 -238q0 -113 -33 -216t-91 -183t-139 -128t-175 -48q-117 0 -210.5 40t-159 113.5t-100 179t-34.5 238.5t26.5 231.5t69.5 172.5t94 127t101 96q8 8 8 21 q0 14 4 26v80l-17 18q-53 -8 -106 -31.5t-100 -78.5q-80 -96 -130.5 -176t-78 -157t-36.5 -155.5t-9 -173.5zM330 1649q0 -33 22.5 -68t59.5 -35q39 0 63.5 10.5t52.5 28.5q35 23 59 51.5t40 57.5q10 -23 29.5 -39.5t41.5 -34.5q27 -23 78 -40t98 -17q23 0 33 25.5t10 47.5 q0 23 -10 39.5t-33 16.5q-16 0 -34.5 5t-36 12t-30.5 15.5t-17 14.5q-31 43 -38 74.5t-18 66.5q-16 43 -61 43q-23 0 -43.5 -14.5t-24.5 -42.5q-8 -23 -13 -38.5t-10 -27.5t-11.5 -22.5t-16.5 -22.5q-29 -39 -55.5 -62.5t-73.5 -23.5q-12 0 -24.5 1t-28.5 9q-8 -10 -8 -30z " />
<glyph unicode="&#xd5;" d="M27 655q0 -158 46 -290t133 -227t213 -147t286 -52q115 0 223 52t193 146t137.5 226.5t52.5 291.5q0 184 -53.5 337t-132 262.5t-170 170t-164.5 60.5q-51 0 -98.5 -10.5t-83.5 -35t-57.5 -65.5t-21.5 -100q0 -43 25 -85t63.5 -75t87 -53.5t93.5 -20.5q20 0 32 7l35 65 q-35 0 -68.5 17.5t-59 43t-42 56.5t-16.5 57q0 29 19.5 47.5t66.5 18.5q63 0 131 -64.5t122 -166t89 -224.5t35 -238q0 -113 -33 -216t-91 -183t-139 -128t-175 -48q-117 0 -210.5 40t-159 113.5t-100 179t-34.5 238.5t26.5 231.5t69.5 172.5t94 127t101 96q8 8 8 21 q0 14 4 26v80l-17 18q-53 -8 -106 -31.5t-100 -78.5q-80 -96 -130.5 -176t-78 -157t-36.5 -155.5t-9 -173.5zM258 1640q0 -23 19.5 -43t48.5 -43q29 72 58.5 110t89.5 38q20 0 59 -23.5t87 -53.5t97 -53.5t88 -23.5q88 0 149.5 58.5t61.5 148.5q0 31 -20.5 51.5t-44.5 30.5 q2 -6 2 -20q0 -27 -16.5 -49.5t-40 -40t-51 -27.5t-50.5 -10q-31 0 -76 28.5t-91 62.5t-86 62.5t-58 28.5q-33 0 -68 -8.5t-65.5 -34t-55 -70.5t-37.5 -119z" />
<glyph unicode="&#xd6;" d="M27 655q0 -158 46 -290t133 -227t213 -147t286 -52q115 0 223 52t193 146t137.5 226.5t52.5 291.5q0 184 -53.5 337t-132 262.5t-170 170t-164.5 60.5q-51 0 -98.5 -10.5t-83.5 -35t-57.5 -65.5t-21.5 -100q0 -43 25 -85t63.5 -75t87 -53.5t93.5 -20.5q20 0 32 7l35 65 q-35 0 -68.5 17.5t-59 43t-42 56.5t-16.5 57q0 29 19.5 47.5t66.5 18.5q63 0 131 -64.5t122 -166t89 -224.5t35 -238q0 -113 -33 -216t-91 -183t-139 -128t-175 -48q-117 0 -210.5 40t-159 113.5t-100 179t-34.5 238.5t26.5 231.5t69.5 172.5t94 127t101 96q8 8 8 21 q0 14 4 26v80l-17 18q-53 -8 -106 -31.5t-100 -78.5q-80 -96 -130.5 -176t-78 -157t-36.5 -155.5t-9 -173.5zM418 1634q0 -35 28.5 -58.5t65.5 -23.5q35 0 60.5 27t25.5 61q0 37 -26.5 64t-61.5 27q-41 0 -66.5 -28t-25.5 -69zM713 1640q0 -35 28.5 -58t65.5 -23 q35 0 60.5 26.5t25.5 61.5q0 37 -26.5 63.5t-61.5 26.5q-41 0 -66.5 -28t-25.5 -69z" />
<glyph unicode="&#xd7;" horiz-adv-x="847" d="M121 905q0 -18 10 -35q23 -35 40 -62.5t35.5 -52t40 -51t50.5 -59.5q-41 -68 -77 -140.5t-58 -142.5q-4 -12 -7 -28.5t-3 -32.5t5 -26.5t15 -10.5q31 0 72 15.5t57 60.5q12 29 35.5 83t54.5 114l144 -156q8 -10 25.5 -25.5t36.5 -31t36.5 -26.5t23.5 -11q49 0 73 40 t24 95q0 23 -3 45t-12 45q-10 -35 -22 -50.5t-41 -15.5q-25 0 -52.5 25t-55 59.5t-52 72.5t-45.5 63q45 74 94 112q29 20 57.5 38t51.5 18q20 0 35 -17q-6 37 -13.5 59.5t-17.5 33t-22.5 13.5t-26.5 3q-57 0 -146 -62q-25 -18 -48 -40.5t-46 -49.5l-86 129q-18 39 -47 62 q-68 0 -125 -29q-10 -14 -10 -31z" />
<glyph unicode="&#xd8;" d="M27 655q0 -141 35.5 -260t103.5 -211q-29 -35 -55.5 -69.5t-53.5 -65.5q-12 -8 -12 -29q0 -16 16.5 -32.5t41 -31.5t50 -24.5t44.5 -9.5q10 0 19 3t15 14q20 29 40 55t38 55q80 -53 178.5 -81.5t217.5 -28.5q115 0 223 52t193 146t137.5 226.5t52.5 291.5 q0 168 -45 309.5t-115 249.5q27 35 54.5 68t56.5 68q4 2 4 12q0 16 -17.5 39.5t-42 45t-51.5 36t-45 14.5q-10 0 -23 -6l-71 -117q-121 111 -225 111q-51 0 -98.5 -10.5t-83.5 -35t-57.5 -65.5t-21.5 -100q0 -43 25 -85t63.5 -75t87 -53.5t93.5 -20.5q-55 -78 -118 -166 t-130.5 -180t-137 -186t-139.5 -184q-74 135 -73 331q0 133 26.5 231.5t69.5 172.5t94 127t101 96q8 8 8 21q0 14 4 26v80l-17 18q-53 -8 -106 -31.5t-100 -78.5q-80 -96 -130.5 -176t-78 -157t-36.5 -155.5t-9 -173.5zM399 178q100 143 187.5 266t164 231.5t148.5 207 t143 192.5q45 -96 73 -204t28 -212q0 -113 -33 -216t-91 -183t-139 -128t-175 -48q-180 0 -306 94zM680 1286q0 29 19.5 47.5t66.5 18.5q41 0 85 -30t85 -79v-2q-18 -29 -40 -61.5t-46 -67.5q-33 4 -63.5 22.5t-54 43t-38 54.5t-14.5 54z" />
<glyph unicode="&#xd9;" horiz-adv-x="1298" d="M47 741q0 -172 23.5 -324.5t84 -267t165 -181t266.5 -66.5q123 0 226 56t183 148q25 -41 54.5 -85t64.5 -93q25 -18 47 -18q31 0 52.5 25.5t21.5 58.5q0 39 -33 65q-66 109 -106 189q74 129 112.5 277.5t38.5 289.5q0 49 -1 115.5t-7 136.5t-19.5 139.5t-37 122.5 t-59.5 87t-89 34q-39 0 -68.5 -34t-53 -86t-41 -116.5t-29 -127t-16.5 -117t-5 -84.5q0 -106 4 -193.5t14.5 -163t30 -142.5t48.5 -132q-74 -98 -160 -145.5t-164 -47.5q-125 0 -202 68t-119 176.5t-56 245.5t-14 276q0 127 17.5 246t49.5 232q10 39 18.5 69.5t8.5 50.5 q0 27 -16 27q-14 0 -45 -25q-92 -141 -140.5 -319t-48.5 -367zM354 1726q0 -16 3 -31.5t16 -31.5q16 10 26 10h6q18 -2 45 -12t67 -29.5t98.5 -48.5t137.5 -65q20 0 34 14t22 35.5t12 44t6 39.5l-14 -9q-41 6 -98.5 29t-112.5 47.5t-96 45l-45 22.5q-16 6 -29.5 10t-26.5 4 q-51 0 -51 -61v-13zM977 834q0 8 2 44.5t7 87t11.5 107.5t15.5 105.5t19 80t23 31.5q6 0 12 -9t11 -54t8.5 -138.5t3.5 -259.5q0 -117 -18.5 -215t-51.5 -180q-25 80 -34 173.5t-9 226.5z" />
<glyph unicode="&#xda;" horiz-adv-x="1298" d="M47 741q0 -172 23.5 -324.5t84 -267t165 -181t266.5 -66.5q123 0 226 56t183 148q25 -41 54.5 -85t64.5 -93q25 -18 47 -18q31 0 52.5 25.5t21.5 58.5q0 39 -33 65q-66 109 -106 189q74 129 112.5 277.5t38.5 289.5q0 49 -1 115.5t-7 136.5t-19.5 139.5t-37 122.5 t-59.5 87t-89 34q-39 0 -68.5 -34t-53 -86t-41 -116.5t-29 -127t-16.5 -117t-5 -84.5q0 -106 4 -193.5t14.5 -163t30 -142.5t48.5 -132q-74 -98 -160 -145.5t-164 -47.5q-125 0 -202 68t-119 176.5t-56 245.5t-14 276q0 127 17.5 246t49.5 232q10 39 18.5 69.5t8.5 50.5 q0 27 -16 27q-14 0 -45 -25q-92 -141 -140.5 -319t-48.5 -367zM389 1610q4 -33 16.5 -62.5t53.5 -29.5q80 37 138 66.5t98 49t67 29.5t45 10q25 0 38 19.5t13 46.5q0 33 -20.5 62.5t-63.5 29.5q-6 0 -22.5 -3t-47 -17.5t-76.5 -47t-112 -90.5q-35 -33 -59.5 -48t-53.5 -15 h-14zM977 834q0 8 2 44.5t7 87t11.5 107.5t15.5 105.5t19 80t23 31.5q6 0 12 -9t11 -54t8.5 -138.5t3.5 -259.5q0 -117 -18.5 -215t-51.5 -180q-25 80 -34 173.5t-9 226.5z" />
<glyph unicode="&#xdb;" horiz-adv-x="1298" d="M47 741q0 -172 23.5 -324.5t84 -267t165 -181t266.5 -66.5q123 0 226 56t183 148q25 -41 54.5 -85t64.5 -93q25 -18 47 -18q31 0 52.5 25.5t21.5 58.5q0 39 -33 65q-66 109 -106 189q74 129 112.5 277.5t38.5 289.5q0 49 -1 115.5t-7 136.5t-19.5 139.5t-37 122.5 t-59.5 87t-89 34q-39 0 -68.5 -34t-53 -86t-41 -116.5t-29 -127t-16.5 -117t-5 -84.5q0 -106 4 -193.5t14.5 -163t30 -142.5t48.5 -132q-74 -98 -160 -145.5t-164 -47.5q-125 0 -202 68t-119 176.5t-56 245.5t-14 276q0 127 17.5 246t49.5 232q10 39 18.5 69.5t8.5 50.5 q0 27 -16 27q-14 0 -45 -25q-92 -141 -140.5 -319t-48.5 -367zM353 1649q0 -33 22.5 -68t59.5 -35q39 0 63.5 10.5t52.5 28.5q35 23 59 51.5t40 57.5q10 -23 29.5 -39.5t41.5 -34.5q27 -23 78 -40t98 -17q23 0 33 25.5t10 47.5q0 23 -10 39.5t-33 16.5q-16 0 -34.5 5t-36 12 t-30.5 15.5t-17 14.5q-31 43 -38 74.5t-18 66.5q-16 43 -61 43q-23 0 -43.5 -14.5t-24.5 -42.5q-8 -23 -13 -38.5t-10 -27.5t-11.5 -22.5t-16.5 -22.5q-29 -39 -55.5 -62.5t-73.5 -23.5q-12 0 -24.5 1t-28.5 9q-8 -10 -8 -30zM977 834q0 8 2 44.5t7 87t11.5 107.5 t15.5 105.5t19 80t23 31.5q6 0 12 -9t11 -54t8.5 -138.5t3.5 -259.5q0 -117 -18.5 -215t-51.5 -180q-25 80 -34 173.5t-9 226.5z" />
<glyph unicode="&#xdc;" horiz-adv-x="1298" d="M47 741q0 -172 23.5 -324.5t84 -267t165 -181t266.5 -66.5q123 0 226 56t183 148q25 -41 54.5 -85t64.5 -93q25 -18 47 -18q31 0 52.5 25.5t21.5 58.5q0 39 -33 65q-66 109 -106 189q74 129 112.5 277.5t38.5 289.5q0 49 -1 115.5t-7 136.5t-19.5 139.5t-37 122.5 t-59.5 87t-89 34q-39 0 -68.5 -34t-53 -86t-41 -116.5t-29 -127t-16.5 -117t-5 -84.5q0 -106 4 -193.5t14.5 -163t30 -142.5t48.5 -132q-74 -98 -160 -145.5t-164 -47.5q-125 0 -202 68t-119 176.5t-56 245.5t-14 276q0 127 17.5 246t49.5 232q10 39 18.5 69.5t8.5 50.5 q0 27 -16 27q-14 0 -45 -25q-92 -141 -140.5 -319t-48.5 -367zM418 1634q0 -35 28.5 -58.5t65.5 -23.5q35 0 60.5 27t25.5 61q0 37 -26.5 64t-61.5 27q-41 0 -66.5 -28t-25.5 -69zM713 1640q0 -35 28.5 -58t65.5 -23q35 0 60.5 26.5t25.5 61.5q0 37 -26.5 63.5t-61.5 26.5 q-41 0 -66.5 -28t-25.5 -69zM977 834q0 8 2 44.5t7 87t11.5 107.5t15.5 105.5t19 80t23 31.5q6 0 12 -9t11 -54t8.5 -138.5t3.5 -259.5q0 -117 -18.5 -215t-51.5 -180q-25 80 -34 173.5t-9 226.5z" />
<glyph unicode="&#xdd;" horiz-adv-x="739" d="M70 698q0 -49 12 -99t38.5 -94t69.5 -81t107 -62q-20 -80 -38.5 -166.5t-33 -164.5t-23.5 -138.5t-9 -87.5q0 -20 13 -40.5t32.5 -39t43 -33t44.5 -20.5q14 2 25 12.5t19.5 25t12.5 28.5t4 24q0 150 21.5 293.5t56.5 290.5q111 14 195.5 80t142 161t86.5 213t29 240 q0 43 -2.5 100.5t-14.5 110t-37.5 89t-70.5 36.5q-59 0 -112.5 -49t-101 -126t-87 -169t-69.5 -177t-48.5 -150.5t-24.5 -90.5l-22 -94q-31 4 -51.5 24.5t-33 47t-17.5 54.5t-5 50q0 160 52.5 300.5t127.5 273.5q8 14 21.5 36.5t26 46t20.5 47t8 40.5q0 41 -33 41 q-8 0 -14 -6.5t-18 -16.5q-70 -76 -131.5 -164t-108.5 -184t-74.5 -200.5t-27.5 -211.5zM299 1610q4 -33 16.5 -62.5t53.5 -29.5q80 37 138 66.5t98 49t67 29.5t45 10q25 0 38 19.5t13 46.5q0 33 -20.5 62.5t-63.5 29.5q-6 0 -22.5 -3t-47 -17.5t-76.5 -47t-112 -90.5 q-35 -33 -59.5 -48t-53.5 -15h-14zM500 506q6 43 27.5 133t54 191.5t75.5 193.5t93 137l12 8q6 -16 12 -44.5t6 -57.5q0 -84 -16 -172t-51 -165t-88.5 -136t-124.5 -88z" />
<glyph unicode="&#xde;" horiz-adv-x="952" d="M31 565q0 -33 20 -55q23 -27 47.5 -48.5t53.5 -39.5q-6 -57 -12.5 -103.5t-13.5 -91.5t-14.5 -91t-17.5 -103v-10q0 -39 22.5 -74t76.5 -35q20 0 26 25q20 109 37.5 214t30.5 212q14 -4 38.5 -8.5t50 -8.5t49.5 -6t40 -2q88 0 171 21.5t146.5 70.5t101.5 128t38 192 q0 94 -18.5 181t-61.5 153.5t-114 105.5t-175 39q-29 0 -66.5 -8.5t-74.5 -22.5t-69 -35.5t-50 -46.5q-8 66 -19.5 132.5t-27.5 133.5q-10 39 -34 71t-89 32q-43 0 -62.5 -22.5t-19.5 -51.5q0 -39 27 -59q6 0 9 9t7 19q4 20 12 21q8 0 14.5 -10.5t6.5 -14.5q31 -131 44 -269 t13 -286q0 -68 -3 -136.5t-7 -137.5q-27 10 -46.5 21.5t-39.5 45.5q-4 10 -3 18.5t-7 8.5q-12 -8 -24.5 -29.5t-12.5 -48.5zM301 494q4 41 6 81.5t4 81.5q8 53 12.5 101.5t12.5 94.5t21.5 91t37.5 94q16 29 56.5 43.5t80.5 14.5q90 0 142.5 -32t80 -82t36 -110.5t8.5 -117.5 q0 -86 -23.5 -141.5t-66.5 -87t-104.5 -44t-139.5 -12.5q-14 0 -36.5 2t-46.5 6t-46.5 8t-34.5 9z" />
<glyph unicode="&#xdf;" horiz-adv-x="688" d="M49 274q0 -53 7 -105t20 -101q16 -59 42.5 -84t53.5 -25q23 0 37 14.5t14 38.5q0 15 -2 23q-10 49 -15 103.5t-5 107.5q0 59 8 114.5t25.5 97.5t46 66.5t71.5 24.5q10 0 27.5 -2t34 -9.5t29 -21.5t12.5 -39q0 -49 -39 -65.5t-86 -16.5q-23 0 -34 -14t-11 -35 q0 -23 13 -46.5t40 -29.5q25 -6 53.5 -16t54 -23.5t43 -32t17.5 -38.5q0 -37 -21.5 -46.5t-44.5 -9.5h-30t-41 2.5t-37.5 6.5t-16.5 10q0 18 5.5 36.5t5.5 30.5q0 8 -7 13q-35 -16 -51 -45t-16 -60t18.5 -51t48 -33.5t67.5 -19.5t77 -6q172 0 172 172q0 14 -9.5 37.5 t-25.5 50t-38.5 51.5t-51.5 41q47 10 64.5 48t17.5 79q0 37 -15.5 74t-44 64.5t-69.5 45t-94 17.5q-88 0 -149.5 -33t-99.5 -88t-54.5 -126t-16.5 -147z" />
<glyph unicode="&#xe0;" horiz-adv-x="475" d="M12 270q27 -4 38 -21.5t11 -37.5q-45 -80 -45 -139q0 -47 31 -80q10 -2 17.5 -3t15.5 -1q27 0 39 12l18 47q16 45 27.5 85t30.5 46q2 2 10 2q10 0 28.5 -1t61.5 -1h51l6 -94q14 -31 32.5 -53.5t41.5 -22.5q6 0 18 4q4 16 5 33v59q0 47 -2.5 87t-6.5 80t-10 83t-14 97 q-2 16 -8.5 37.5t-12.5 43t-13 41t-9 29.5q-4 16 -17.5 32.5t-29.5 16.5h-11q-12 0 -18 -8l-4 -18l-78 -97q-14 -23 -31.5 -53.5t-35 -63t-32 -62.5t-24.5 -50h-53q-16 0 -23 2zM100 951q0 -12 2 -23.5t12 -23.5q12 8 20 8h4q14 -2 34 -9.5t50 -22t74 -36t103 -48.5 q15 0 25.5 10.5t16.5 26.5t9 33t5 29l-11 -6q-30 4 -73.5 21.5t-84.5 35.5t-72 33.5t-34 16.5q-12 5 -22 8t-20 3q-38 0 -38 -46v-10zM240 307q4 14 12 37t18.5 45.5t20.5 38.5t18 18q8 -14 12.5 -32.5t6.5 -39t3 -38t1 -29.5q-10 -2 -25 -2h-22h-23q-12 0 -22 2z" />
<glyph unicode="&#xe1;" horiz-adv-x="475" d="M12 270q27 -4 38 -21.5t11 -37.5q-45 -80 -45 -139q0 -47 31 -80q10 -2 17.5 -3t15.5 -1q27 0 39 12l18 47q16 45 27.5 85t30.5 46q2 2 10 2q10 0 28.5 -1t61.5 -1h51l6 -94q14 -31 32.5 -53.5t41.5 -22.5q6 0 18 4q4 16 5 33v59q0 47 -2.5 87t-6.5 80t-10 83t-14 97 q-2 16 -8.5 37.5t-12.5 43t-13 41t-9 29.5q-4 16 -17.5 32.5t-29.5 16.5h-11q-12 0 -18 -8l-4 -18l-78 -97q-14 -23 -31.5 -53.5t-35 -63t-32 -62.5t-24.5 -50h-53q-16 0 -23 2zM56 864q3 -25 12 -47t40 -22q60 28 103.5 50t73.5 36.5t50.5 22t33.5 7.5q19 0 29 14.5 t10 34.5q0 24 -15.5 46t-47.5 22q-5 0 -17.5 -2t-35 -13t-57.5 -35t-84 -67q-26 -25 -44.5 -36t-40.5 -11h-10zM240 307q4 14 12 37t18.5 45.5t20.5 38.5t18 18q8 -14 12.5 -32.5t6.5 -39t3 -38t1 -29.5q-10 -2 -25 -2h-22h-23q-12 0 -22 2z" />
<glyph unicode="&#xe2;" horiz-adv-x="475" d="M12 270q27 -4 38 -21.5t11 -37.5q-45 -80 -45 -139q0 -47 31 -80q10 -2 17.5 -3t15.5 -1q27 0 39 12l18 47q16 45 27.5 85t30.5 46q2 2 10 2q10 0 28.5 -1t61.5 -1h51l6 -94q14 -31 32.5 -53.5t41.5 -22.5q6 0 18 4q4 16 5 33v59q0 47 -2.5 87t-6.5 80t-10 83t-14 97 q-2 16 -8.5 37.5t-12.5 43t-13 41t-9 29.5q-4 16 -17.5 32.5t-29.5 16.5h-11q-12 0 -18 -8l-4 -18l-78 -97q-14 -23 -31.5 -53.5t-35 -63t-32 -62.5t-24.5 -50h-53q-16 0 -23 2zM75 893q0 -25 17 -51t45 -26q29 0 47.5 7.5t39.5 21.5q26 17 44 38.5t30 42.5 q7 -17 21.5 -29.5t31.5 -25.5q20 -17 58.5 -30t73.5 -13q17 0 24.5 19t7.5 36t-7.5 29.5t-24.5 12.5q-12 0 -26 3.5t-27 9t-23 12t-13 10.5q-23 32 -28 56t-14 50q-12 32 -45 32q-18 0 -33 -11t-18 -31q-6 -18 -10 -29.5t-7.5 -20.5t-8.5 -17t-12 -17q-22 -29 -42 -46.5 t-55 -17.5q-9 0 -18.5 0.5t-21.5 6.5q-6 -7 -6 -22zM240 307q4 14 12 37t18.5 45.5t20.5 38.5t18 18q8 -14 12.5 -32.5t6.5 -39t3 -38t1 -29.5q-10 -2 -25 -2h-22h-23q-12 0 -22 2z" />
<glyph unicode="&#xe3;" horiz-adv-x="475" d="M12 270q27 -4 38 -21.5t11 -37.5q-45 -80 -45 -139q0 -47 31 -80q10 -2 17.5 -3t15.5 -1q27 0 39 12l18 47q16 45 27.5 85t30.5 46q2 2 10 2q10 0 28.5 -1t61.5 -1h51l6 -94q14 -31 32.5 -53.5t41.5 -22.5q6 0 18 4q4 16 5 33v59q0 47 -2.5 87t-6.5 80t-10 83t-14 97 q-2 16 -8.5 37.5t-12.5 43t-13 41t-9 29.5q-4 16 -17.5 32.5t-29.5 16.5h-11q-12 0 -18 -8l-4 -18l-78 -97q-14 -23 -31.5 -53.5t-35 -63t-32 -62.5t-24.5 -50h-53q-16 0 -23 2zM53 885q0 -17 11.5 -32t29.5 -32q17 53 35 81.5t53 28.5q12 0 35.5 -17.5t52.5 -40t58.5 -40 t52.5 -17.5q53 0 89.5 43.5t36.5 111.5q0 23 -12 38t-27 23q2 -5 2 -15q0 -20 -10 -37t-24 -30t-30.5 -20.5t-30.5 -7.5q-19 0 -46 21.5t-54.5 46.5t-51.5 46.5t-35 21.5q-19 0 -40 -6.5t-39.5 -25.5t-33 -52.5t-22.5 -88.5zM240 307q4 14 12 37t18.5 45.5t20.5 38.5t18 18 q8 -14 12.5 -32.5t6.5 -39t3 -38t1 -29.5q-10 -2 -25 -2h-22h-23q-12 0 -22 2z" />
<glyph unicode="&#xe4;" horiz-adv-x="475" d="M12 270q27 -4 38 -21.5t11 -37.5q-45 -80 -45 -139q0 -47 31 -80q10 -2 17.5 -3t15.5 -1q27 0 39 12l18 47q16 45 27.5 85t30.5 46q2 2 10 2q10 0 28.5 -1t61.5 -1h51l6 -94q14 -31 32.5 -53.5t41.5 -22.5q6 0 18 4q4 16 5 33v59q0 47 -2.5 87t-6.5 80t-10 83t-14 97 q-2 16 -8.5 37.5t-12.5 43t-13 41t-9 29.5q-4 16 -17.5 32.5t-29.5 16.5h-11q-12 0 -18 -8l-4 -18l-78 -97q-14 -23 -31.5 -53.5t-35 -63t-32 -62.5t-24.5 -50h-53q-16 0 -23 2zM122 881q0 -27 21 -44.5t49 -17.5q26 0 45.5 20t19.5 46q0 28 -20 48.5t-46 20.5 q-31 0 -50 -21t-19 -52zM240 307q4 14 12 37t18.5 45.5t20.5 38.5t18 18q8 -14 12.5 -32.5t6.5 -39t3 -38t1 -29.5q-10 -2 -25 -2h-22h-23q-12 0 -22 2zM343 885q0 -26 21.5 -43.5t49.5 -17.5q26 0 45 20t19 46q0 28 -20 48t-46 20q-31 0 -50 -21t-19 -52z" />
<glyph unicode="&#xe5;" horiz-adv-x="475" d="M12 270q27 -4 38 -21.5t11 -37.5q-45 -80 -45 -139q0 -47 31 -80q10 -2 17.5 -3t15.5 -1q27 0 39 12l18 47q16 45 27.5 85t30.5 46q2 2 10 2q10 0 28.5 -1t61.5 -1h51l6 -94q14 -31 32.5 -53.5t41.5 -22.5q6 0 18 4q4 16 5 33v59q0 47 -2.5 87t-6.5 80t-10 83t-14 97 q-2 16 -8.5 37.5t-12.5 43t-13 41t-9 29.5q-4 16 -17.5 32.5t-29.5 16.5h-11q-12 0 -18 -8l-4 -18l-78 -97q-14 -23 -31.5 -53.5t-35 -63t-32 -62.5t-24.5 -50h-53q-16 0 -23 2zM131 868q0 -76 46 -125t140 -49q33 0 67 12.5t60.5 36t44 55t17.5 70.5q0 35 -11.5 71 t-32 65.5t-49 48t-61.5 18.5q-12 0 -28.5 -2t-26.5 -10q-53 -6 -86 -27.5t-50.5 -49.5t-23.5 -58.5t-6 -55.5zM215 883q0 47 17.5 64.5t46.5 29.5q2 0 6 6l-5 -15t-4 -24l46 37q6 6 22 6q29 0 53.5 -29.5t24.5 -72.5q0 -23 -10.5 -41.5t-26.5 -32.5t-34.5 -22.5t-37.5 -8.5 q-45 0 -71.5 29t-26.5 74zM240 307q4 14 12 37t18.5 45.5t20.5 38.5t18 18q8 -14 12.5 -32.5t6.5 -39t3 -38t1 -29.5q-10 -2 -25 -2h-22h-23q-12 0 -22 2z" />
<glyph unicode="&#xe6;" horiz-adv-x="878" d="M12 82q0 -51 35 -90q10 -2 17.5 -3t15.5 -1q27 0 39 12l18 47q16 45 28.5 75t24.5 46l4 1q5 1 19 1h45h78l6 -8l8 -96q27 -61 76 -62q10 0 16 2h2q41 0 86 3t89.5 13.5t85 30t75.5 49.5q2 14 2 21v18q0 10 -10 21.5t-20 15.5q-16 4 -31 4h-8q-37 -6 -68 -8t-55 -2 q-47 0 -74 4t-31 4v119q92 0 166 3t94 11q12 20 13 43q0 12 -3 23.5t-5 21.5q-39 2 -81 4.5t-78 3.5t-63 1h-30q-2 20 -2 36v31v21l24 2q18 2 58 3t86.5 3t91.5 4t73 6q18 2 31 14q-6 68 -59 105q-9 6 -29 6h-14q-63 -6 -125 -8t-114 -3t-91 -1t-57 -2q-4 10 -14.5 14 t-18.5 8q-4 2 -12 2q-27 0 -39 -14l-4 -14q-2 -6 -10.5 -18.5t-19.5 -27t-21.5 -27.5t-16.5 -22q-14 -23 -33.5 -53.5t-38 -63t-35 -63.5t-26.5 -51h-16q-27 0 -48 -6v-23q29 -23 37 -53q-43 -78 -43 -133zM242 299l2 10q10 25 18 45.5t23 48.5q4 6 8 15.5t10 15.5 q4 -6 8 -14q4 -18 9.5 -47t7.5 -41q2 -10 2 -21v-12q-10 -2 -21.5 -3t-21.5 -1t-22.5 1t-22.5 3z" />
<glyph unicode="&#xe7;" horiz-adv-x="620" d="M31 246q0 -121 66.5 -183.5t203.5 -62.5q39 0 89 3t95 13.5t75 30t30 53.5q0 23 -8.5 36.5t-20.5 23.5h-57q-53 -16 -96 -31.5t-78 -15.5q-96 0 -130 34.5t-34 94.5q0 49 14.5 94t37 81t51 60.5t57.5 30.5l92 24q37 -57 92 -57q27 0 63 17q8 31 9 55q0 20 -4.5 28.5 t-16.5 30.5q-8 14 -23.5 22.5t-34 12.5t-38 5t-33.5 1q-94 0 -168 -34.5t-126 -92t-79.5 -129.5t-27.5 -145zM145 -236q0 -25 17 -41q22 -23 54 -36.5t65 -13.5q37 0 66.5 18t38.5 61q3 7 3 15v15q0 45 -25 86t-55 75q13 14 26 28.5t18 34.5q-3 17 -25 25t-44 8 q-16 0 -26 -4q-12 -22 -24 -33t-28 -28q-13 -13 -13 -34q0 -20 13 -34q10 -11 25.5 -25.5t27.5 -29t21.5 -31.5t9.5 -33q0 -6 -3 -19q-17 -4 -34 -4q-26 0 -47 13t-24 44q-15 -7 -26 -22t-11 -35z" />
<glyph unicode="&#xe8;" horiz-adv-x="548" d="M20 131q0 -59 35 -105t109 -46q45 0 87 14t78 33.5t64.5 40t46.5 34.5q13 9 13 27t-14.5 36.5t-30.5 18.5q-14 0 -31 -1t-29 -3q-88 -8 -137 -18t-55 -10q12 29 23 60.5t20 59.5q2 6 10 7q68 0 123 2t80 4q12 2 16 17t4 26q0 12 -2 26.5t-8 24.5l-27 4h-133q-10 0 -13 6 t-3 12q0 35 8 52.5t14 23.5q6 2 13 2h14q18 0 32.5 1t28.5 1h35q18 0 47 2q12 0 29.5 4.5t33 10.5t26 13t10.5 13q0 23 -22.5 47.5t-35.5 40.5q-29 8 -45 10.5t-28 2.5q-111 0 -182.5 -16.5t-129.5 -20.5q-23 -2 -35 -6t-12 -21q0 -29 36 -47t67 -33l-44 -100q-12 -2 -24 -6 t-23 -8q-4 -10 -6 -17.5t-2 -17.5q0 -14 5 -23.5t10 -23.5q-16 -41 -31 -82t-15 -72zM95 951q0 -12 2.5 -23.5t11.5 -23.5q12 8 20 8h4q14 -2 34 -9.5t50 -22t74 -36t103 -48.5q15 0 25.5 10.5t16.5 26.5t9 33t5 29l-11 -6q-31 4 -74 21.5t-84 35.5t-72 33.5t-34 16.5 q-12 5 -22 8t-20 3q-38 0 -38 -46v-10z" />
<glyph unicode="&#xe9;" horiz-adv-x="548" d="M20 131q0 -59 35 -105t109 -46q45 0 87 14t78 33.5t64.5 40t46.5 34.5q13 9 13 27t-14.5 36.5t-30.5 18.5q-14 0 -31 -1t-29 -3q-88 -8 -137 -18t-55 -10q12 29 23 60.5t20 59.5q2 6 10 7q68 0 123 2t80 4q12 2 16 17t4 26q0 12 -2 26.5t-8 24.5l-27 4h-133q-10 0 -13 6 t-3 12q0 35 8 52.5t14 23.5q6 2 13 2h14q18 0 32.5 1t28.5 1h35q18 0 47 2q12 0 29.5 4.5t33 10.5t26 13t10.5 13q0 23 -22.5 47.5t-35.5 40.5q-29 8 -45 10.5t-28 2.5q-111 0 -182.5 -16.5t-129.5 -20.5q-23 -2 -35 -6t-12 -21q0 -29 36 -47t67 -33l-44 -100q-12 -2 -24 -6 t-23 -8q-4 -10 -6 -17.5t-2 -17.5q0 -14 5 -23.5t10 -23.5q-16 -41 -31 -82t-15 -72zM99 864q3 -25 12 -47t40 -22q60 28 103.5 50t73.5 36.5t50.5 22t33.5 7.5q19 0 29 14.5t10 34.5q0 24 -15.5 46t-47.5 22q-5 0 -17.5 -2t-35 -13t-57.5 -35t-84 -67q-26 -25 -44.5 -36 t-40.5 -11h-10z" />
<glyph unicode="&#xea;" horiz-adv-x="548" d="M20 131q0 -59 35 -105t109 -46q45 0 87 14t78 33.5t64.5 40t46.5 34.5q13 9 13 27t-14.5 36.5t-30.5 18.5q-14 0 -31 -1t-29 -3q-88 -8 -137 -18t-55 -10q12 29 23 60.5t20 59.5q2 6 10 7q68 0 123 2t80 4q12 2 16 17t4 26q0 12 -2 26.5t-8 24.5l-27 4h-133q-10 0 -13 6 t-3 12q0 35 8 52.5t14 23.5q6 2 13 2h14q18 0 32.5 1t28.5 1h35q18 0 47 2q12 0 29.5 4.5t33 10.5t26 13t10.5 13q0 23 -22.5 47.5t-35.5 40.5q-29 8 -45 10.5t-28 2.5q-111 0 -182.5 -16.5t-129.5 -20.5q-23 -2 -35 -6t-12 -21q0 -29 36 -47t67 -33l-44 -100q-12 -2 -24 -6 t-23 -8q-4 -10 -6 -17.5t-2 -17.5q0 -14 5 -23.5t10 -23.5q-16 -41 -31 -82t-15 -72zM66 899q0 -25 17 -51t45 -26q29 0 47.5 7.5t39.5 21.5q26 17 44 38.5t30 42.5q7 -17 21.5 -29.5t31.5 -25.5q20 -17 58.5 -30t73.5 -13q17 0 24.5 19t7.5 36t-7.5 29.5t-24.5 12.5 q-12 0 -26 3.5t-27 9t-23 12t-13 10.5q-23 32 -28 56t-14 50q-12 32 -45 32q-18 0 -33 -11t-18 -31q-6 -18 -10 -29.5t-7.5 -20.5t-8.5 -17t-12 -17q-22 -29 -42 -46.5t-55 -17.5q-9 0 -18.5 0.5t-21.5 6.5q-6 -7 -6 -22z" />
<glyph unicode="&#xeb;" horiz-adv-x="548" d="M20 131q0 -59 35 -105t109 -46q45 0 87 14t78 33.5t64.5 40t46.5 34.5q13 9 13 27t-14.5 36.5t-30.5 18.5q-14 0 -31 -1t-29 -3q-88 -8 -137 -18t-55 -10q12 29 23 60.5t20 59.5q2 6 10 7q68 0 123 2t80 4q12 2 16 17t4 26q0 12 -2 26.5t-8 24.5l-27 4h-133q-10 0 -13 6 t-3 12q0 35 8 52.5t14 23.5q6 2 13 2h14q18 0 32.5 1t28.5 1h35q18 0 47 2q12 0 29.5 4.5t33 10.5t26 13t10.5 13q0 23 -22.5 47.5t-35.5 40.5q-29 8 -45 10.5t-28 2.5q-111 0 -182.5 -16.5t-129.5 -20.5q-23 -2 -35 -6t-12 -21q0 -29 36 -47t67 -33l-44 -100q-12 -2 -24 -6 t-23 -8q-4 -10 -6 -17.5t-2 -17.5q0 -14 5 -23.5t10 -23.5q-16 -41 -31 -82t-15 -72zM123 888q0 -27 21.5 -44.5t48.5 -17.5t46 20t19 46q0 28 -20 48.5t-46 20.5q-31 0 -50 -21t-19 -52zM344 892q0 -26 21.5 -43.5t48.5 -17.5t46 20t19 46q0 28 -20 48t-46 20 q-31 0 -50 -21t-19 -52z" />
<glyph unicode="&#xec;" horiz-adv-x="299" d="M2 834q0 -10 2 -23.5t12 -24.5q16 8 21 9h4q27 -4 84 -33t178 -84q14 0 24.5 11t16.5 26.5t9 32t5 28.5l-12 -6q-31 4 -74 21.5t-84 36t-71.5 34t-34.5 17.5q-25 10 -41 10q-39 0 -39 -45v-10zM86 98q0 -6 3 -21.5t7 -30.5t10.5 -28.5t16.5 -15.5q10 -4 24.5 -7t24.5 -3 q35 0 46 20.5t11 42.5q0 109 -7 220.5t-11 222.5q-4 53 -16.5 79.5t-61.5 28.5q-8 0 -10 -12q-18 -137 -23.5 -212t-7.5 -95q-2 -35 -3 -56.5t-2 -39t-1 -37.5v-56z" />
<glyph unicode="&#xed;" horiz-adv-x="299" d="M4 745q4 -23 12.5 -45t40.5 -22q121 55 176.5 86t83.5 31q18 0 28.5 14t10.5 35q0 23 -15 45t-48 22q-4 0 -16.5 -2t-36 -12t-57 -34.5t-83.5 -67.5q-29 -25 -46 -37.5t-40 -12.5h-10zM86 98q0 -6 3 -21.5t7 -30.5t10.5 -28.5t16.5 -15.5q10 -4 24.5 -7t24.5 -3 q35 0 46 20.5t11 42.5q0 109 -7 220.5t-11 222.5q-4 53 -16.5 79.5t-61.5 28.5q-8 0 -10 -12q-18 -137 -23.5 -212t-7.5 -95q-2 -35 -3 -56.5t-2 -39t-1 -37.5v-56z" />
<glyph unicode="&#xee;" horiz-adv-x="299" d="M-38 893q0 -25 17 -51t45 -26q29 0 47.5 7.5t39.5 21.5q26 17 44 38.5t30 42.5q7 -17 21.5 -29.5t31.5 -25.5q20 -17 58.5 -30t73.5 -13q17 0 24.5 19t7.5 36t-7.5 29.5t-24.5 12.5q-12 0 -26 3.5t-27 9t-23 12t-13 10.5q-23 32 -28 56t-14 50q-12 32 -45 32 q-18 0 -33 -11t-18 -31q-6 -18 -10 -29.5t-7.5 -20.5t-8.5 -17t-12 -17q-22 -29 -42 -46.5t-55 -17.5q-9 0 -18.5 0.5t-21.5 6.5q-6 -7 -6 -22zM86 98q0 -6 3 -21.5t7 -30.5t10.5 -28.5t16.5 -15.5q10 -4 24.5 -7t24.5 -3q35 0 46 20.5t11 42.5q0 109 -7 220.5t-11 222.5 q-4 53 -16.5 79.5t-61.5 28.5q-8 0 -10 -12q-18 -137 -23.5 -212t-7.5 -95q-2 -35 -3 -56.5t-2 -39t-1 -37.5v-56z" />
<glyph unicode="&#xef;" horiz-adv-x="299" d="M7 881q0 -27 21.5 -44.5t48.5 -17.5t46 20t19 46q0 28 -20 48.5t-46 20.5q-31 0 -50 -21t-19 -52zM86 98q0 -6 3 -21.5t7 -30.5t10.5 -28.5t16.5 -15.5q10 -4 24.5 -7t24.5 -3q35 0 46 20.5t11 42.5q0 109 -7 220.5t-11 222.5q-4 53 -16.5 79.5t-61.5 28.5q-8 0 -10 -12 q-18 -137 -23.5 -212t-7.5 -95q-2 -35 -3 -56.5t-2 -39t-1 -37.5v-56zM228 885q0 -26 21.5 -43.5t48.5 -17.5t46 20t19 46q0 28 -20 48t-46 20q-31 0 -50 -21t-19 -52z" />
<glyph unicode="&#xf0;" horiz-adv-x="1001" d="M31 492q0 -133 49 -243t129 -187.5t179 -120.5t202 -43q104 0 177 38.5t118 103t65.5 150.5t20.5 179q-6 219 -79 432t-210 391l61 55q25 23 43.5 30t53.5 23q10 10 18 26.5t8 33.5q0 27 -24 26q-4 0 -21 -4q-57 -18 -105 -50t-95 -68q-86 94 -191 172q-27 18 -57.5 29.5 t-53.5 11.5q-4 -2 -4 -15q0 -12 6.5 -31.5t15.5 -41t21.5 -40t24.5 -30.5q70 -61 135 -139q-47 -37 -93 -65t-95 -36q-29 -6 -29 -28q0 -20 16.5 -39t38.5 -19l11 2q59 20 110 47t98 62q117 -170 173.5 -368.5t56.5 -405.5q0 -143 -66.5 -221t-165.5 -78q-92 0 -166.5 32.5 t-127 94t-81 147.5t-28.5 191q0 94 36 160.5t105 66.5q90 -2 149.5 -16.5t99.5 -43t65.5 -72.5t48.5 -106q6 -8 18.5 -27.5t65.5 -29.5q-6 88 -40 166t-93.5 135t-143.5 90t-188 33q-68 0 -117 -28.5t-82 -78t-48 -115t-15 -138.5z" />
<glyph unicode="&#xf1;" horiz-adv-x="577" d="M31 125q0 -16 3 -40t10 -46.5t20.5 -37.5t33.5 -15q14 0 23.5 9t15.5 22.5t9.5 26.5t5.5 24q4 20 6 61t4 83t4 76t4 42q6 20 12 20t18.5 -24.5t31 -61.5t40 -79t45 -78.5t50 -61.5t51.5 -25q33 0 57.5 21.5t42 56.5t26.5 77t9 83q0 92 -22.5 169t-54.5 133t-63.5 87 t-50.5 31q-12 0 -15 -13.5t-3 -23.5v-6l6 -23q16 -61 30.5 -105t25 -84t16.5 -83t6 -104q0 -45 -10 -46q-2 0 -12 15q-35 43 -72 101.5t-71 110.5t-62.5 89t-48.5 37q-29 0 -51.5 -52.5t-38 -122t-23.5 -139t-8 -104.5zM59 735q0 -25 11.5 -41t42.5 -32q6 55 17 90.5 t50 35.5q12 0 37 -11t53.5 -25.5t58 -25.5t52.5 -11q55 0 80.5 44t25.5 97q0 29 -12 58.5t-39 31.5q6 -12 6 -26q0 -37 -26.5 -69t-55.5 -32q-18 0 -46.5 14.5t-59.5 33t-56.5 32.5t-37.5 14q-41 0 -71 -42t-30 -136z" />
<glyph unicode="&#xf2;" horiz-adv-x="673" d="M20 297q0 -53 16.5 -111.5t55.5 -119.5v-9q0 -23 12.5 -51.5t38.5 -62.5q16 12 28.5 25.5t18.5 31.5q82 2 165 29.5t148.5 78t107.5 119t42 154.5q0 39 -14 85t-37 60q-29 18 -60.5 25.5t-64.5 7.5q-39 0 -88 -16q-78 -23 -138.5 -109t-121.5 -246q-12 33 -12 70 q0 43 13 88t42 84t71 69.5t101 45.5q29 10 60.5 17t60.5 9q12 0 28.5 4.5t16.5 14.5q0 12 -43 31q-39 16 -96 16q-68 0 -131.5 -25.5t-111.5 -71.5t-78 -107.5t-30 -135.5zM138 951q0 -12 2 -23.5t12 -23.5q12 8 20 8h4q14 -2 34 -9.5t50 -22t74 -36t103 -48.5 q15 0 25.5 10.5t16.5 26.5t9 33t5 29l-11 -6q-30 4 -73.5 21.5t-84.5 35.5t-72 33.5t-34 16.5q-12 5 -22 8t-20 3q-38 0 -38 -46v-10zM242 145q51 143 107 228.5t134 85.5q35 0 56.5 -16.5t21.5 -49.5q0 -49 -30.5 -94t-75.5 -79t-94.5 -54.5t-86.5 -20.5h-32z" />
<glyph unicode="&#xf3;" horiz-adv-x="673" d="M20 297q0 -53 16.5 -111.5t55.5 -119.5v-9q0 -23 12.5 -51.5t38.5 -62.5q16 12 28.5 25.5t18.5 31.5q82 2 165 29.5t148.5 78t107.5 119t42 154.5q0 39 -14 85t-37 60q-29 18 -60.5 25.5t-64.5 7.5q-39 0 -88 -16q-78 -23 -138.5 -109t-121.5 -246q-12 33 -12 70 q0 43 13 88t42 84t71 69.5t101 45.5q29 10 60.5 17t60.5 9q12 0 28.5 4.5t16.5 14.5q0 12 -43 31q-39 16 -96 16q-68 0 -131.5 -25.5t-111.5 -71.5t-78 -107.5t-30 -135.5zM103 864q3 -25 12 -47t40 -22q60 28 103.5 50t73.5 36.5t50.5 22t33.5 7.5q19 0 29 14.5t10 34.5 q0 24 -15.5 46t-47.5 22q-5 0 -17.5 -2t-35 -13t-57.5 -35t-84 -67q-26 -25 -44.5 -36t-40.5 -11h-10zM242 145q51 143 107 228.5t134 85.5q35 0 56.5 -16.5t21.5 -49.5q0 -49 -30.5 -94t-75.5 -79t-94.5 -54.5t-86.5 -20.5h-32z" />
<glyph unicode="&#xf4;" horiz-adv-x="673" d="M20 297q0 -53 16.5 -111.5t55.5 -119.5v-9q0 -23 12.5 -51.5t38.5 -62.5q16 12 28.5 25.5t18.5 31.5q82 2 165 29.5t148.5 78t107.5 119t42 154.5q0 39 -14 85t-37 60q-29 18 -60.5 25.5t-64.5 7.5q-39 0 -88 -16q-78 -23 -138.5 -109t-121.5 -246q-12 33 -12 70 q0 43 13 88t42 84t71 69.5t101 45.5q29 10 60.5 17t60.5 9q12 0 28.5 4.5t16.5 14.5q0 12 -43 31q-39 16 -96 16q-68 0 -131.5 -25.5t-111.5 -71.5t-78 -107.5t-30 -135.5zM107 893q0 -25 17 -51t45 -26q29 0 47.5 7.5t39.5 21.5q26 17 44 38.5t30 42.5q7 -17 21.5 -29.5 t31.5 -25.5q20 -17 58.5 -30t73.5 -13q17 0 24.5 19t7.5 36t-7.5 29.5t-24.5 12.5q-12 0 -26 3.5t-27 9t-23 12t-13 10.5q-23 32 -28 56t-14 50q-12 32 -45 32q-18 0 -33 -11t-18 -31q-6 -18 -10 -29.5t-7.5 -20.5t-8.5 -17t-12 -17q-22 -29 -42 -46.5t-55 -17.5 q-9 0 -18.5 0.5t-21.5 6.5q-6 -7 -6 -22zM242 145q51 143 107 228.5t134 85.5q35 0 56.5 -16.5t21.5 -49.5q0 -49 -30.5 -94t-75.5 -79t-94.5 -54.5t-86.5 -20.5h-32z" />
<glyph unicode="&#xf5;" horiz-adv-x="673" d="M20 297q0 -53 16.5 -111.5t55.5 -119.5v-9q0 -23 12.5 -51.5t38.5 -62.5q16 12 28.5 25.5t18.5 31.5q82 2 165 29.5t148.5 78t107.5 119t42 154.5q0 39 -14 85t-37 60q-29 18 -60.5 25.5t-64.5 7.5q-39 0 -88 -16q-78 -23 -138.5 -109t-121.5 -246q-12 33 -12 70 q0 43 13 88t42 84t71 69.5t101 45.5q29 10 60.5 17t60.5 9q12 0 28.5 4.5t16.5 14.5q0 12 -43 31q-39 16 -96 16q-68 0 -131.5 -25.5t-111.5 -71.5t-78 -107.5t-30 -135.5zM83 885q0 -17 11.5 -32t29.5 -32q17 53 35 81.5t53 28.5q12 0 35.5 -17.5t52.5 -40t58.5 -40 t52.5 -17.5q53 0 89.5 43.5t36.5 111.5q0 23 -12 38t-27 23q2 -5 2 -15q0 -20 -10 -37t-24 -30t-30.5 -20.5t-30.5 -7.5q-19 0 -46 21.5t-54.5 46.5t-51.5 46.5t-35 21.5q-19 0 -40 -6.5t-39.5 -25.5t-33 -52.5t-22.5 -88.5zM242 145q51 143 107 228.5t134 85.5 q35 0 56.5 -16.5t21.5 -49.5q0 -49 -30.5 -94t-75.5 -79t-94.5 -54.5t-86.5 -20.5h-32z" />
<glyph unicode="&#xf6;" horiz-adv-x="673" d="M20 297q0 -53 16.5 -111.5t55.5 -119.5v-9q0 -23 12.5 -51.5t38.5 -62.5q16 12 28.5 25.5t18.5 31.5q82 2 165 29.5t148.5 78t107.5 119t42 154.5q0 39 -14 85t-37 60q-29 18 -60.5 25.5t-64.5 7.5q-39 0 -88 -16q-78 -23 -138.5 -109t-121.5 -246q-12 33 -12 70 q0 43 13 88t42 84t71 69.5t101 45.5q29 10 60.5 17t60.5 9q12 0 28.5 4.5t16.5 14.5q0 12 -43 31q-39 16 -96 16q-68 0 -131.5 -25.5t-111.5 -71.5t-78 -107.5t-30 -135.5zM148 888q0 -27 21 -44.5t49 -17.5q26 0 45.5 20t19.5 46q0 28 -20 48.5t-46 20.5q-31 0 -50 -21 t-19 -52zM242 145q51 143 107 228.5t134 85.5q35 0 56.5 -16.5t21.5 -49.5q0 -49 -30.5 -94t-75.5 -79t-94.5 -54.5t-86.5 -20.5h-32zM369 892q0 -26 21.5 -43.5t49.5 -17.5q26 0 45 20t19 46q0 28 -20 48t-46 20q-31 0 -50 -21t-19 -52z" />
<glyph unicode="&#xf7;" horiz-adv-x="1050" d="M104 592q0 -27 16.5 -52.5t53.5 -37.5q59 -23 116.5 -30t112.5 -7l367 24q31 0 62.5 -2t64.5 -8q14 8 21.5 41t7.5 66q0 35 -8 51q-10 8 -33 8q-17 0 -25 -2q-117 -2 -220 -17.5t-208 -15.5q-59 0 -117.5 7.5t-121.5 29.5q-20 6 -27.5 8t-7.5 11v6q-25 -6 -39.5 -28.5 t-14.5 -51.5zM424 276q0 -35 28.5 -58t65.5 -23q35 0 60.5 26.5t25.5 61.5q0 37 -26.5 63.5t-61.5 26.5q-41 0 -66.5 -28t-25.5 -69zM430 829q0 -35 28.5 -58t65.5 -23q35 0 60.5 26.5t25.5 61.5q0 37 -26.5 63.5t-61.5 26.5q-41 0 -66.5 -28t-25.5 -69z" />
<glyph unicode="&#xf8;" horiz-adv-x="716" d="M39 317q0 -74 24.5 -134t75.5 -101q-39 -51 -78 -96q-6 -6 -6 -15q0 -8 9.5 -17t21.5 -16.5t25.5 -12.5t23.5 -5t17 8q39 55 73 105q55 -20 137 -21q57 0 115 22.5t104 63.5t74.5 96.5t28.5 122.5q0 61 -21.5 125t-58.5 115q18 27 39 51.5t43 50.5q2 2 2 7q0 8 -9 21 t-21.5 23.5t-27 18.5t-22.5 8q-4 0 -12 -4l-64 -104q-51 35 -110 35q-20 0 -49 -3.5t-49 -17.5q-92 -12 -147.5 -49t-86.5 -85t-41 -99.5t-10 -92.5zM133 338q0 51 10.5 86t30 58.5t45 39t55.5 27.5q8 2 17 16l-9 -21t-5.5 -14.5t-4.5 -18.5t-4 -34l101 84q6 4 18 8t35 4 q33 0 63 -18q-53 -78 -128.5 -183.5t-153.5 -207.5q-70 63 -70 174zM287 119q78 113 141.5 202t122.5 168q18 -31 30.5 -67.5t12.5 -79.5q0 -47 -22.5 -89t-58.5 -74t-79 -50t-82 -18t-65 8z" />
<glyph unicode="&#xf9;" horiz-adv-x="600" d="M31 238q-1 -74 22 -158q39 -78 142 -80h2q25 0 59.5 13.5t69 42t64.5 73.5t48 109l8 -72q4 -27 6.5 -52.5t2.5 -50.5q0 -35 22 -63q12 -4 22.5 -6t20.5 -2q57 0 58 76v18l-9 88q-8 61 -25.5 140t-62.5 200q-16 43 -30 43q-23 0 -56 -82q-31 -78 -48 -142.5t-33.5 -111.5 t-37 -72.5t-59.5 -25.5q-35 0 -46 25.5t-11 68.5q0 16 2 36.5t6 43.5q14 86 36.5 170t49.5 170q-6 37 -27 37q-10 0 -24 -10q-172 -209 -172 -426zM114 951q0 -12 2 -23.5t12 -23.5q12 8 20 8h4q14 -2 34 -9.5t50 -22t74 -36t103 -48.5q15 0 25.5 10.5t16.5 26.5t9 33t5 29 l-11 -6q-30 4 -73.5 21.5t-84.5 35.5t-72 33.5t-34 16.5q-12 5 -22 8t-20 3q-38 0 -38 -46v-10z" />
<glyph unicode="&#xfa;" horiz-adv-x="600" d="M31 238q-1 -74 22 -158q39 -78 142 -80h2q25 0 59.5 13.5t69 42t64.5 73.5t48 109l8 -72q4 -27 6.5 -52.5t2.5 -50.5q0 -35 22 -63q12 -4 22.5 -6t20.5 -2q57 0 58 76v18l-9 88q-8 61 -25.5 140t-62.5 200q-16 43 -30 43q-23 0 -56 -82q-31 -78 -48 -142.5t-33.5 -111.5 t-37 -72.5t-59.5 -25.5q-35 0 -46 25.5t-11 68.5q0 16 2 36.5t6 43.5q14 86 36.5 170t49.5 170q-6 37 -27 37q-10 0 -24 -10q-172 -209 -172 -426zM102 886q3 -25 12 -47t40 -22q60 28 103.5 50t73.5 36.5t50.5 22t33.5 7.5q19 0 29 14.5t10 34.5q0 24 -15.5 46t-47.5 22 q-5 0 -17.5 -2t-35 -13t-57.5 -35t-84 -67q-26 -25 -44.5 -36t-40.5 -11h-10z" />
<glyph unicode="&#xfb;" horiz-adv-x="600" d="M31 238q-1 -74 22 -158q39 -78 142 -80h2q25 0 59.5 13.5t69 42t64.5 73.5t48 109l8 -72q4 -27 6.5 -52.5t2.5 -50.5q0 -35 22 -63q12 -4 22.5 -6t20.5 -2q57 0 58 76v18l-9 88q-8 61 -25.5 140t-62.5 200q-16 43 -30 43q-23 0 -56 -82q-31 -78 -48 -142.5t-33.5 -111.5 t-37 -72.5t-59.5 -25.5q-35 0 -46 25.5t-11 68.5q0 16 2 36.5t6 43.5q14 86 36.5 170t49.5 170q-6 37 -27 37q-10 0 -24 -10q-172 -209 -172 -426zM91 893q0 -25 17 -51t45 -26q29 0 47.5 7.5t39.5 21.5q26 17 44 38.5t30 42.5q7 -17 21.5 -29.5t31.5 -25.5q20 -17 58.5 -30 t73.5 -13q17 0 24.5 19t7.5 36t-7.5 29.5t-24.5 12.5q-12 0 -26 3.5t-27 9t-23 12t-13 10.5q-23 32 -28 56t-14 50q-12 32 -45 32q-18 0 -33 -11t-18 -31q-6 -18 -10 -29.5t-7.5 -20.5t-8.5 -17t-12 -17q-22 -29 -42 -46.5t-55 -17.5q-9 0 -18.5 0.5t-21.5 6.5q-6 -7 -6 -22 z" />
<glyph unicode="&#xfc;" horiz-adv-x="600" d="M31 238q-1 -74 22 -158q39 -78 142 -80h2q25 0 59.5 13.5t69 42t64.5 73.5t48 109l8 -72q4 -27 6.5 -52.5t2.5 -50.5q0 -35 22 -63q12 -4 22.5 -6t20.5 -2q57 0 58 76v18l-9 88q-8 61 -25.5 140t-62.5 200q-16 43 -30 43q-23 0 -56 -82q-31 -78 -48 -142.5t-33.5 -111.5 t-37 -72.5t-59.5 -25.5q-35 0 -46 25.5t-11 68.5q0 16 2 36.5t6 43.5q14 86 36.5 170t49.5 170q-6 37 -27 37q-10 0 -24 -10q-172 -209 -172 -426zM140 881q0 -27 21 -44.5t49 -17.5q26 0 45.5 20t19.5 46q0 28 -20 48.5t-46 20.5q-31 0 -50 -21t-19 -52zM361 885 q0 -26 21.5 -43.5t49.5 -17.5q26 0 45 20t19 46q0 28 -20 48t-46 20q-31 0 -50 -21t-19 -52z" />
<glyph unicode="&#xfd;" horiz-adv-x="638" d="M-66 -356q0 -57 33 -97.5t86 -46.5l6 15q18 76 35 151.5t37 149.5q4 14 8 28.5t10.5 35t16.5 49t24 71.5q10 2 19.5 3t19.5 1q45 0 111 26.5t127 75t104 114t43 145.5q0 27 -5 64.5t-18 72.5t-36 59.5t-57 24.5q-35 0 -82 -35t-97.5 -86t-96.5 -107.5t-79 -99.5 q-6 -8 -8 -8h-2q-4 4 -5 10t-1 12q0 47 23.5 97.5t46.5 85.5q20 31 35.5 52t24.5 36.5t13 28t4 26.5q0 23 -5 34t-23 15q-14 -2 -49 -40t-72 -96t-65.5 -129t-28.5 -140q0 -61 32 -131q-37 -90 -62.5 -169t-39.5 -141.5t-20.5 -103.5t-6.5 -53zM203 864q3 -25 12 -47t40 -22 q60 28 103.5 50t73.5 36.5t50.5 22t33.5 7.5q19 0 29 14.5t10 34.5q0 24 -15.5 46t-47.5 22q-5 0 -17.5 -2t-35 -13t-57.5 -35t-84 -67q-26 -25 -44.5 -36t-40.5 -11h-10zM279 158q4 12 18 39.5t30.5 58.5t32 57.5t23.5 36.5q10 12 26.5 31.5t35 38t35 32t28.5 13.5 q16 0 19 -17.5t3 -31.5q0 -111 -75 -176q-82 -72 -176 -82z" />
<glyph unicode="&#xfe;" horiz-adv-x="456" d="M23 -2q0 -47 29.5 -78t58.5 -31q20 0 28 17q4 37 8.5 86t8.5 102q33 -12 82 -12q41 0 76.5 22.5t62 58.5t42 81t15.5 90q0 31 -4 61.5t-15.5 57t-33 43t-57.5 16.5q-35 0 -66 -10t-57 -27q4 39 9 73t5 58q0 23 -6 39.5t-21.5 23.5t-33.5 7q-29 0 -48.5 -15.5t-19.5 -44.5 q2 -10 2 -22v-21q0 -31 -5 -66.5t-11 -73.5t-11.5 -76t-5.5 -70v-23q0 -10 2 -20q-18 -63 -26 -128t-8 -118zM180 289q14 63 39 105t70 42q29 0 42 -22.5t13 -55.5q0 -29 -8 -60.5t-21.5 -57t-32 -43t-36.5 -17.5q-37 0 -51.5 31t-14.5 78z" />
<glyph unicode="&#xff;" horiz-adv-x="638" d="M-66 -356q0 -57 33 -97.5t86 -46.5l6 15q18 76 35 151.5t37 149.5q4 14 8 28.5t10.5 35t16.5 49t24 71.5q10 2 19.5 3t19.5 1q45 0 111 26.5t127 75t104 114t43 145.5q0 27 -5 64.5t-18 72.5t-36 59.5t-57 24.5q-35 0 -82 -35t-97.5 -86t-96.5 -107.5t-79 -99.5 q-6 -8 -8 -8h-2q-4 4 -5 10t-1 12q0 47 23.5 97.5t46.5 85.5q20 31 35.5 52t24.5 36.5t13 28t4 26.5q0 23 -5 34t-23 15q-14 -2 -49 -40t-72 -96t-65.5 -129t-28.5 -140q0 -61 32 -131q-37 -90 -62.5 -169t-39.5 -141.5t-20.5 -103.5t-6.5 -53zM165 881q0 -27 21.5 -44.5 t48.5 -17.5t46 20t19 46q0 28 -20 48.5t-46 20.5q-31 0 -50 -21t-19 -52zM279 158q4 12 18 39.5t30.5 58.5t32 57.5t23.5 36.5q10 12 26.5 31.5t35 38t35 32t28.5 13.5q16 0 19 -17.5t3 -31.5q0 -111 -75 -176q-82 -72 -176 -82zM386 885q0 -26 21.5 -43.5t48.5 -17.5t46 20 t19 46q0 28 -20 48t-46 20q-31 0 -50 -21t-19 -52z" />
<glyph unicode="&#x152;" horiz-adv-x="1986" d="M27 655q0 -158 46 -290t133 -227t213 -147t286 -52q109 0 210 45t185 131q8 -4 18 -9.5t23 -13.5q84 -51 183 -77.5t204 -26.5q55 0 99 8t84 26.5t79 45t86 63.5q49 37 49 109q0 45 -3 65.5t-15 20.5q-16 0 -62 -45q-61 -63 -150 -104.5t-182 -41.5q-96 0 -172.5 35 t-123.5 102q45 82 69.5 177.5t24.5 205.5q0 41 -4 81t-9 79q0 2 5 2q57 -23 116.5 -30t120.5 -7q72 0 117 6.5t70.5 19.5t35 32.5t9.5 48.5q0 45 -16.5 63.5t-74.5 34.5q-41 12 -83 17.5t-85 5.5q-49 0 -99 -6.5t-99 -20.5q-35 23 -51.5 73t-16.5 103q0 63 35 112.5t88 82 t118.5 49t127.5 16.5q39 0 91 -7t87 -19q45 -20 53 -29.5t8 -18.5q0 -16 -6 -34.5t-14 -35t-18.5 -29.5t-16.5 -19q12 -2 22.5 -5t24.5 -3q25 0 41.5 13t26.5 32.5t15 43t5 46.5q0 53 -23.5 103t-68.5 65q-55 18 -112.5 28.5t-118.5 10.5q-80 0 -160 -15.5t-149.5 -47.5 t-125 -82t-85.5 -118q-74 90 -155 139.5t-146 49.5q-51 0 -98.5 -10.5t-83.5 -35t-57.5 -65.5t-21.5 -100q0 -43 25 -85t63.5 -75t87 -53.5t93.5 -20.5q20 0 32 7l35 65q-35 0 -68.5 17.5t-59 43t-42 56.5t-16.5 57q0 29 19.5 47.5t66.5 18.5q63 0 131 -64.5t122 -166 t89 -224.5t35 -238q0 -113 -33 -216t-91 -183t-139 -128t-175 -48q-117 0 -210.5 40t-159 113.5t-100 179t-34.5 238.5t26.5 231.5t69.5 172.5t94 127t101 96q8 8 8 21q0 14 4 26v80l-17 18q-53 -8 -106 -31.5t-100 -78.5q-80 -96 -130.5 -176t-78 -157t-36.5 -155.5 t-9 -173.5zM1434 893q27 4 61.5 12t75.5 8q47 0 74 -14q-59 -16 -103 -16z" />
<glyph unicode="&#x153;" horiz-adv-x="1044" d="M20 297q0 -53 16.5 -111.5t55.5 -119.5v-9q0 -23 12.5 -51.5t38.5 -62.5q16 12 28.5 25.5t18.5 31.5q82 2 164 29.5t148 76.5q6 -27 18 -51t33 -39q18 -14 43 -14q84 0 172 32t158 95q2 14 2 21v18q0 10 -10.5 21.5t-20.5 15.5q-16 4 -31 4h-8q-104 -16 -158.5 -24.5 t-62.5 -8.5l16 53l19 66q188 0 225 14q12 20 12 43q0 12 -3 23.5t-5 21.5q-78 4 -124 6.5t-58 2.5q8 41 14 57t10 31l25 2q37 4 95.5 7t117.5 9q18 2 31 14q-6 68 -60 105q-8 6 -28 6h-15q-145 -12 -222 -18.5t-87 -8.5l-65 -12l-15 -12q2 -10 6 -17.5t9 -15.5q-31 6 -58 6 q-39 0 -88 -16q-78 -23 -138.5 -109t-121.5 -246q-12 33 -12 70q0 43 13 88t42 84t71 69.5t101 45.5q29 10 60.5 17t60.5 9q12 0 28.5 4.5t16.5 14.5q0 12 -43 31q-39 16 -96 16q-68 0 -131.5 -25.5t-111.5 -71.5t-78 -107.5t-30 -135.5zM242 145q51 143 107 228.5t134 85.5 q35 0 56.5 -16.5t21.5 -49.5q0 -49 -30.5 -94t-75.5 -79t-94.5 -54.5t-86.5 -20.5h-32z" />
<glyph unicode="&#x178;" horiz-adv-x="1087" d="M70 698q0 -49 12 -99t38.5 -94t69.5 -81t107 -62q-20 -80 -38.5 -166.5t-33 -164.5t-23.5 -138.5t-9 -87.5q0 -20 13 -40.5t32.5 -39t43 -33t44.5 -20.5q14 2 25 12.5t19.5 25t12.5 28.5t4 24q0 150 21.5 293.5t56.5 290.5q111 14 195.5 80t142 161t86.5 213t29 240 q0 43 -2.5 100.5t-14.5 110t-37.5 89t-70.5 36.5q-59 0 -112.5 -49t-101 -126t-87 -169t-69.5 -177t-48.5 -150.5t-24.5 -90.5l-22 -94q-31 4 -51.5 24.5t-33 47t-17.5 54.5t-5 50q0 160 52.5 300.5t127.5 273.5q8 14 21.5 36.5t26 46t20.5 47t8 40.5q0 41 -33 41 q-8 0 -14 -6.5t-18 -16.5q-70 -76 -131.5 -164t-108.5 -184t-74.5 -200.5t-27.5 -211.5zM344 1634q0 -35 28.5 -58.5t65.5 -23.5q35 0 60.5 27t25.5 61q0 37 -26.5 64t-61.5 27q-41 0 -66.5 -28t-25.5 -69zM500 506q6 43 27.5 133t54 191.5t75.5 193.5t93 137l12 8 q6 -16 12 -44.5t6 -57.5q0 -84 -16 -172t-51 -165t-88.5 -136t-124.5 -88zM639 1640q0 -35 28.5 -58t65.5 -23q35 0 60.5 26.5t25.5 61.5q0 37 -26.5 63.5t-61.5 26.5q-41 0 -66.5 -28t-25.5 -69z" />
<glyph unicode="&#x2c6;" horiz-adv-x="675" d="M31 1649q0 -33 22.5 -68t59.5 -35q39 0 63.5 10.5t52.5 28.5q35 23 59 51.5t40 57.5q10 -23 29.5 -39.5t41.5 -34.5q27 -23 78 -40t98 -17q23 0 33 25.5t10 47.5q0 23 -10 39.5t-33 16.5q-16 0 -34.5 5t-36 12t-30.5 15.5t-17 14.5q-31 43 -38 74.5t-18 66.5 q-16 43 -61 43q-23 0 -43.5 -14.5t-24.5 -42.5q-8 -23 -13 -38.5t-10 -27.5t-11.5 -22.5t-16.5 -22.5q-29 -39 -55.5 -62.5t-73.5 -23.5q-12 0 -24.5 1t-28.5 9q-8 -10 -8 -30z" />
<glyph unicode="&#x2dc;" horiz-adv-x="825" d="M20 1640q0 -23 19.5 -43t48.5 -43q29 72 58.5 110t89.5 38q20 0 59 -23.5t87 -53.5t97 -53.5t88 -23.5q88 0 149.5 58.5t61.5 148.5q0 31 -20.5 51.5t-44.5 30.5q2 -6 2 -20q0 -27 -16.5 -49.5t-40 -40t-51 -27.5t-50.5 -10q-31 0 -76 28.5t-91 62.5t-86 62.5t-58 28.5 q-33 0 -68 -8.5t-65.5 -34t-55 -70.5t-37.5 -119z" />
<glyph unicode="&#x2000;" horiz-adv-x="997" />
<glyph unicode="&#x2001;" horiz-adv-x="1995" />
<glyph unicode="&#x2002;" horiz-adv-x="997" />
<glyph unicode="&#x2003;" horiz-adv-x="1995" />
<glyph unicode="&#x2004;" horiz-adv-x="665" />
<glyph unicode="&#x2005;" horiz-adv-x="498" />
<glyph unicode="&#x2006;" horiz-adv-x="332" />
<glyph unicode="&#x2007;" horiz-adv-x="332" />
<glyph unicode="&#x2008;" horiz-adv-x="249" />
<glyph unicode="&#x2009;" horiz-adv-x="399" />
<glyph unicode="&#x200a;" horiz-adv-x="110" />
<glyph unicode="&#x2010;" horiz-adv-x="688" d="M72 514q0 -27 10 -52.5t33 -37.5q39 -23 75.5 -30t73.5 -7l240 25q20 0 40.5 -2t41.5 -9q10 8 14 40t4 65q0 37 -6 53q-6 8 -20 8q-11 0 -15 -2q-74 -2 -142.5 -17.5t-137.5 -15.5q-39 0 -77 7.5t-79 29.5q-12 6 -17.5 8.5t-5.5 10.5v6q-16 -6 -24 -28.5t-8 -51.5z" />
<glyph unicode="&#x2011;" horiz-adv-x="688" d="M72 514q0 -27 10 -52.5t33 -37.5q39 -23 75.5 -30t73.5 -7l240 25q20 0 40.5 -2t41.5 -9q10 8 14 40t4 65q0 37 -6 53q-6 8 -20 8q-11 0 -15 -2q-74 -2 -142.5 -17.5t-137.5 -15.5q-39 0 -77 7.5t-79 29.5q-12 6 -17.5 8.5t-5.5 10.5v6q-16 -6 -24 -28.5t-8 -51.5z" />
<glyph unicode="&#x2012;" horiz-adv-x="688" d="M72 514q0 -27 10 -52.5t33 -37.5q39 -23 75.5 -30t73.5 -7l240 25q20 0 40.5 -2t41.5 -9q10 8 14 40t4 65q0 37 -6 53q-6 8 -20 8q-11 0 -15 -2q-74 -2 -142.5 -17.5t-137.5 -15.5q-39 0 -77 7.5t-79 29.5q-12 6 -17.5 8.5t-5.5 10.5v6q-16 -6 -24 -28.5t-8 -51.5z" />
<glyph unicode="&#x2013;" horiz-adv-x="1060" d="M16 567q0 -27 19.5 -52.5t66.5 -37.5q76 -23 148 -30t143 -7l467 25q41 0 80 -2t80 -8q18 8 26.5 39.5t8.5 64.5q0 37 -11 53q-10 8 -38 9q-21 -1 -31 -3q-145 -2 -278.5 -17t-268.5 -15q-74 0 -149.5 7t-153.5 30q-25 6 -34 8t-9 10v6q-29 -6 -47.5 -28.5t-18.5 -51.5z " />
<glyph unicode="&#x2014;" horiz-adv-x="1611" d="M35 567q0 -27 29.5 -52.5t97.5 -37.5q111 -23 218 -30t212 -7q180 0 350 12.5t344 12.5q59 0 117.5 -2t118.5 -8q27 8 39 39.5t12 64.5q0 39 -14 53q-18 8 -60 9h-22q-13 -1 -23 -3q-215 -2 -412.5 -17t-398.5 -15q-111 0 -220.5 7t-225.5 30q-35 6 -50.5 8t-15.5 10l2 6 q-45 -6 -71.5 -28.5t-26.5 -51.5z" />
<glyph unicode="&#x2018;" horiz-adv-x="307" d="M20 1217q0 -33 13.5 -58.5t34 -44t44 -28t46.5 -9.5q41 0 79.5 28t38.5 71q0 37 -21.5 53t-51.5 16q-12 0 -23.5 -2t-15.5 -10q-4 -4 -6 -13.5t-6 -7.5q-20 8 -21 33q0 25 13.5 44.5t35 34.5t45 23.5t45.5 8.5l17 -2q-8 31 -34 44t-54 13q-37 0 -69 -17.5t-56.5 -45 t-39 -62.5t-14.5 -69z" />
<glyph unicode="&#x2019;" horiz-adv-x="307" d="M20 1124q8 -31 34 -44t55 -13q37 0 68.5 17.5t56 45t39 62.5t14.5 70q0 33 -13.5 58.5t-34 43.5t-45 27.5t-44.5 9.5q-41 0 -80 -27.5t-39 -70.5q0 -37 21.5 -53.5t51.5 -16.5q12 0 23.5 2t15.5 10q4 4 6.5 13.5t6.5 7.5q20 -8 20 -33t-13 -44.5t-35 -34.5t-46.5 -23.5 t-44.5 -8.5z" />
<glyph unicode="&#x201c;" horiz-adv-x="669" d="M45 1217q0 -33 13.5 -58.5t34 -44t44 -28t45.5 -9.5q41 0 80 28t39 71q0 37 -21.5 53t-52.5 16q-12 0 -23 -2t-16 -10q-4 -4 -6 -13.5t-6 -7.5q-20 8 -20 33t13 44.5t34.5 34.5t45 23.5t46.5 8.5l16 -2q-8 31 -33.5 44t-54.5 13q-37 0 -68.5 -17.5t-56 -45t-39 -62.5 t-14.5 -69zM369 1217q0 -33 13 -58.5t33.5 -44t44 -28t46.5 -9.5q41 0 80 28t39 71q0 37 -21.5 53t-52.5 16q-12 0 -23.5 -2t-15.5 -10q-4 -4 -6 -13.5t-6 -7.5q-20 8 -21 33q0 25 13.5 44.5t35 34.5t45 23.5t45.5 8.5l17 -2q-8 31 -34 44t-54 13q-37 0 -69 -17.5t-56.5 -45 t-38.5 -62.5t-14 -69z" />
<glyph unicode="&#x201d;" horiz-adv-x="659" d="M35 1124q8 -31 33.5 -44t54.5 -13q37 0 68.5 17.5t56 45t39 62.5t14.5 70q0 33 -13.5 58.5t-34 43.5t-45 27.5t-44.5 9.5q-41 0 -80 -27.5t-39 -70.5q0 -37 21.5 -53.5t52.5 -16.5q12 0 23.5 2t15.5 10q4 4 6 13.5t6 7.5q20 -8 20 -33t-13 -44.5t-34.5 -34.5t-46 -23.5 t-45.5 -8.5zM358 1124q8 -31 34 -44t54 -13q37 0 69 17.5t56.5 45t39 62.5t14.5 70q0 33 -13.5 58.5t-34 43.5t-45 27.5t-45.5 9.5q-41 0 -79.5 -27.5t-38.5 -70.5q0 -37 21.5 -53.5t51.5 -16.5q12 0 23.5 2t15.5 10q4 4 6 13.5t7 7.5q20 -8 20 -33t-13.5 -44.5t-35 -34.5 t-46 -23.5t-44.5 -8.5z" />
<glyph unicode="&#x2022;" horiz-adv-x="473" d="M41 739q0 -37 16.5 -70.5t44 -58t64.5 -39t78 -14.5q37 0 71.5 16.5t60 43t41 62.5t15.5 73q0 41 -15.5 76.5t-42 61t-62 41t-74.5 15.5q-86 0 -141.5 -60.5t-55.5 -146.5z" />
<glyph unicode="&#x2026;" horiz-adv-x="784" d="M29 82q0 -35 27.5 -58.5t64.5 -23.5q36 0 63 27q25 27 25 61q0 37 -26.5 63.5t-63.5 26.5q-39 0 -64.5 -27.5t-25.5 -68.5zM301 82q0 -35 28.5 -58.5t65.5 -23.5t64 27q25 27 24 61q0 37 -26.5 63.5t-63.5 26.5q-41 0 -66.5 -27.5t-25.5 -68.5zM575 82q0 -35 28 -58.5 t65 -23.5q36 0 63 27q25 27 25 61q0 37 -27 63.5t-63 26.5q-39 0 -65 -27.5t-26 -68.5z" />
<glyph unicode="&#x202f;" horiz-adv-x="399" />
<glyph unicode="&#x205f;" horiz-adv-x="498" />
<glyph unicode="&#x2122;" horiz-adv-x="1716" d="M25 1585l36 -2q0 72 35 111t117 39l74 2v-621q0 -35 -24.5 -46t-76.5 -11v-35h318v35q-49 0 -73.5 12t-24.5 45v621l71 -2q86 0 120 -39t34 -111l37 2l-4 193h-635zM725 1743h29q41 0 59 -13.5t18 -56.5v-559q0 -35 -24.5 -46t-77.5 -11v-35h256v35q-51 0 -76.5 12 t-25.5 45v518l288 -610h37l267 643v-551q0 -35 -25 -46t-78 -11v-35h318v35q-47 0 -72 12t-25 45v578q0 37 23.5 44t73.5 7v35h-224l-249 -574l-263 574h-229v-35z" />
<glyph unicode="&#x25fc;" horiz-adv-x="634" d="M0 0v635h635v-635h-635z" />
</font>
</defs>
</svg>
